<svg width="342" height="207" fill="none" xmlns="http://www.w3.org/2000/svg"><rect width="342" height="207" rx="48" fill="#9ED6DF"/><path d="M308.707 180.707a.999.999 0 000-1.414l-6.364-6.364a.999.999 0 10-1.414 1.414l5.657 5.657-5.657 5.657a.999.999 0 101.414 1.414l6.364-6.364zM280 180v1h28v-2h-28v1z" fill="#C63F3E"/><path d="M308.707 180.707a.999.999 0 000-1.414l-6.364-6.364a.999.999 0 10-1.414 1.414l5.657 5.657-5.657 5.657a.999.999 0 101.414 1.414l6.364-6.364zM280 180v1h28v-2h-28v1z" fill="#C63F3E"/></svg>