<svg width="30" height="20" fill="none" xmlns="http://www.w3.org/2000/svg"><path d="M1.008 16V5.072h7.264v1.84H3.216v2.656h4.096v1.808H3.216v2.784h5.056V16H1.008zm8.813 0V5.072h2.88l3.503 7.68h.288v-7.68h2.209V16h-2.849l-3.536-7.808h-.288V16H9.82zm15.13.16c-.917 0-1.675-.117-2.272-.352-.597-.245-1.066-.603-1.408-1.072-.33-.48-.565-1.067-.704-1.76-.139-.704-.208-1.515-.208-2.432 0-.97.075-1.808.224-2.512.16-.715.416-1.301.768-1.76.363-.47.832-.816 1.408-1.04.587-.235 1.307-.352 2.16-.352.438 0 .89.027 1.36.08.48.043.933.101 1.36.176.438.075.8.15 1.088.224l-.032 1.728a14.563 14.563 0 00-1.088-.144 24.004 24.004 0 00-1.28-.096 16.368 16.368 0 00-1.184-.048c-.533 0-.97.07-1.312.208-.33.139-.587.363-.768.672-.17.299-.288.688-.352 1.168-.064.47-.096 1.035-.096 1.696 0 .843.059 1.547.176 2.112.128.555.368.965.72 1.232.363.267.88.4 1.552.4a9.798 9.798 0 001.12-.064c.192-.021.352-.043.48-.064v-2.384h-1.296v-1.68h3.392v5.648c-.235.032-.517.075-.848.128-.33.043-.677.085-1.04.128-.352.043-.698.08-1.04.112a9.25 9.25 0 01-.88.048zM0 18h29.575v.8H0V18z" fill="#000"/></svg>