<svg width="393" height="73" fill="none" xmlns="http://www.w3.org/2000/svg"><path fill="#fff" d="M0 0H393V73H0z"/><path fill="#fff" d="M0 0H335V73H0z"/><path d="M15.158 45.868l3.349-18.55c.017-.07.061-.105.132-.105h3.915c.07 0 .115.035.132.106l3.217 18.55c.009.087-.026.131-.106.131h-2.992c-.088 0-.136-.044-.145-.132l-.29-1.977H18.69l-.29 1.977c-.008.088-.052.132-.131.132h-3.006c-.07 0-.106-.044-.106-.132zm5.564-12.445l-.159-1.002-.118 1.002-1.213 7.58h2.597l-1.107-7.58zM221.165 46h-3.045c-.079 0-.119-.044-.119-.132V30.47h-3.507c-.088 0-.132-.044-.132-.132l.027-3.02c0-.07.035-.105.105-.105h10.257c.097 0 .145.035.145.106v3.019c0 .088-.035.132-.105.132h-3.547l.027 15.398c0 .088-.036.132-.106.132zm99.035-5.748a2.742 2.742 0 01-.382.461.636.636 0 01-.448.172c-.167 0-.326-.128-.475-.383-.141-.263-.211-.654-.211-1.173 0-.527.114-1.05.343-1.569a6.2 6.2 0 01.896-1.45c.369-.457.791-.892 1.266-1.305l2.9-2.334c1.67-1.327 2.505-2.58 2.505-3.757 0-.598-.162-1.059-.488-1.384a1.599 1.599 0 00-1.173-.488c-.457 0-.839.083-1.147.25-.307.159-.562.36-.765.607-.395.483-.593.997-.593 1.542 0 .37.062.69.185.963.132.264.198.444.198.54 0 .088-.044.211-.132.37a1.63 1.63 0 01-.383.448c-.395.316-.786.474-1.173.474-.378 0-.659-.061-.844-.184a1.775 1.775 0 01-.448-.501c-.22-.37-.33-.822-.33-1.358 0-.536.119-1.086.356-1.648a4.902 4.902 0 011.029-1.53c1.002-1.01 2.298-1.515 3.889-1.515 1.204 0 2.193.373 2.966 1.12.756.747 1.134 1.692 1.134 2.835 0 1.995-.905 3.687-2.716 5.075l-1.648 1.24c-1.494 1.098-2.61 2.109-3.348 3.032-.203.272-.383.536-.541.79-.149.247-.29.467-.422.66zm-3.217 2.32c.396-.325.783-.488 1.161-.488.386 0 .711.027.975.08.273.052.527.136.765.25.545.281.817.686.817 1.213 0 .66-.215 1.235-.646 1.727-.457.519-.971.778-1.542.778h-.093c-.562 0-1.05-.211-1.463-.633-.378-.404-.567-.835-.567-1.292 0-.765.198-1.31.593-1.635z" fill="#C63F3E"/><path d="M28.683 51.292V31.69h2.564v2.268h.163c.215-.342.503-.711.863-1.107.378-.396.873-.729 1.485-.999.612-.288 1.368-.432 2.268-.432 1.08 0 2.025.216 2.835.648.81.414 1.486.981 2.026 1.701.54.702.944 1.494 1.215 2.376.27.882.405 1.782.405 2.7 0 .918-.136 1.818-.405 2.7a7.754 7.754 0 01-1.215 2.403 6.2 6.2 0 01-2.026 1.701c-.81.414-1.755.621-2.834.621-.9 0-1.657-.144-2.269-.432-.611-.288-1.107-.63-1.485-1.026a9.404 9.404 0 01-.864-1.08h-.162v7.56h-2.564zm2.619-12.447c0 .864.152 1.701.459 2.511a4.943 4.943 0 001.43 1.971c.648.504 1.45.756 2.403.756.972 0 1.773-.252 2.404-.756a4.624 4.624 0 001.43-1.971c.325-.81.486-1.647.486-2.511 0-.882-.162-1.719-.486-2.511a4.437 4.437 0 00-1.43-1.944c-.63-.522-1.431-.783-2.404-.783-.953 0-1.755.261-2.403.783a4.733 4.733 0 00-1.43 1.944 6.906 6.906 0 00-.46 2.511zM121.615 46c-.18 0-.315-.261-.405-.783a.24.24 0 00-.027-.108c0-.036.009-.081.027-.135 0-.396.108-.621.324-.675.504-.072.99-.18 1.458-.324.108-.036.351-.108.729-.216.846.018 1.287-.18 1.323-.594.018-.288.027-.675.027-1.161 0-.576-.009-1.089-.027-1.539v-2.43c.018-.882 0-1.728-.054-2.538l-.027-1.35c0-.612.009-1.071.027-1.377l.081-2.619-2.376.756c-.576.126-.918.189-1.026.189-.198 0-.297-.045-.297-.135a.618.618 0 01-.081-.324c-.018-.702 0-1.161.054-1.377.072-.18.306-.351.702-.513 1.764-.09 3.663-.639 5.697-1.647.234-.072.459-.108.675-.108.198 0 .351.036.459.108.108.054.162.135.162.243 0 .612-.018 1.368-.054 2.268l-.027.972-.162 2.484v1.89l.081 1.647c.036.576.054 1.368.054 2.376.018.198.027.639.027 1.323 0 1.8.063 3.006.189 3.618 2.142.09 3.213.216 3.213.378l.081 1.161c.036.36-.162.54-.594.54-.756 0-1.44-.036-2.052-.108-.306-.036-.81-.072-1.512-.108-.864.054-2.025.108-3.483.162l-1.053-.027c-.63 0-1.341.027-2.133.081zm121.912-10.395c-.324 0-.558-.072-.702-.216-.144-.144-.369-.45-.675-.918l-3.294-5.022c-.108-.18-.234-.297-.378-.351a.959.959 0 00-.432-.108h-.459c-.234 0-.414.072-.54.216-.108.126-.162.333-.162.621V43.57h.27V29.827c0-.144.027-.27.081-.378.054-.126.171-.189.351-.189h.405c.126 0 .234.018.324.054.108.036.216.144.324.324l3.294 4.968c.324.486.567.819.729.999.18.18.468.27.864.27.396 0 .675-.09.837-.27.18-.18.432-.513.756-.999l3.294-4.968c.108-.18.207-.288.297-.324a.872.872 0 01.324-.054h.405c.18 0 .297.063.351.189a.665.665 0 01.108.378V43.57h.27V29.827c0-.288-.063-.495-.189-.621-.108-.144-.288-.216-.54-.216h-.459a.959.959 0 00-.432.108c-.126.054-.243.171-.351.351l-3.294 5.022c-.306.468-.531.774-.675.918-.144.144-.378.216-.702.216zM239.018 46h-4.023c-.342 0-.594-.072-.756-.216-.144-.162-.216-.414-.216-.756V27.532c0-.342.072-.585.216-.729.162-.162.414-.243.756-.243h4.347c.288 0 .522.063.702.189.198.126.378.333.54.621l2.43 4.401c.09.162.162.279.216.351a.366.366 0 00.27.108h.243c.108 0 .189-.036.243-.108.072-.072.153-.189.243-.351l2.403-4.401c.162-.288.333-.495.513-.621.198-.126.441-.189.729-.189h4.374c.342 0 .585.081.729.243.162.144.243.387.243.729v17.496c0 .342-.081.594-.243.756-.144.144-.387.216-.729.216h-4.158c-.342 0-.594-.072-.756-.216-.144-.162-.216-.414-.216-.756v-9.504l-1.593 2.943c-.162.306-.36.531-.594.675-.216.126-.495.189-.837.189h-1.08c-.342 0-.63-.063-.864-.189-.216-.144-.405-.369-.567-.675l-1.593-2.943v9.504c0 .342-.081.594-.243.756-.144.144-.387.216-.729.216z" fill="#808BC5"/><path d="M55.935 27.154c1.08.72 1.944 1.692 2.592 2.916.666 1.224 1.125 2.421 1.377 3.591.27 1.152.405 2.061.405 2.727 0 1.116-.18 2.412-.54 3.888-.342 1.476-1.09 2.853-2.241 4.131-1.152 1.26-2.817 1.89-4.995 1.89-2.988 0-5.112-1.737-6.372-5.211-.558-1.566-.873-3.312-.945-5.238 0-1.584.333-3.087.999-4.509.666-1.44 1.539-2.592 2.619-3.456 1.098-.864 2.223-1.296 3.375-1.296 1.044 0 1.818.027 2.322.081.522.054.99.216 1.404.486zm-3.537 17.631c1.908 0 3.33-.792 4.266-2.376.936-1.602 1.404-3.609 1.404-6.021 0-1.476-.225-2.835-.675-4.077-.432-1.26-1.053-2.259-1.863-2.997-.792-.756-1.71-1.134-2.754-1.134h-.73c-.377 0-.71.063-.998.189a2.353 2.353 0 00-.783.567 23.15 23.15 0 00-1.512 1.647c-.396.486-.801 1.215-1.215 2.187-.396.972-.594 2.097-.594 3.375 0 1.512.18 2.925.54 4.239.378 1.296.972 2.358 1.782 3.186.81.81 1.854 1.215 3.132 1.215zm107.292 1.426c-1.055 0-1.863-.22-2.426-.66-.554-.439-.931-1.05-1.134-1.832-.202-.79-.303-1.714-.303-2.768V26.225h4.746v14.172c0 .791.062 1.345.185 1.661.123.308.413.462.87.462.492 0 .8-.22.923-.66.132-.44.198-1.006.198-1.7V26.225h4.706V46h-4.72v-2.11c-.298.757-.659 1.332-1.081 1.728-.413.395-1.068.593-1.964.593zm124.387.053a4.98 4.98 0 01-2.637-.739 5.581 5.581 0 01-1.938-1.977 5.434 5.434 0 01-.711-2.73l.052-13.5c0-.07.035-.105.106-.105h3.032c.07 0 .105.035.105.106v13.5c0 .606.194 1.125.581 1.555.386.422.856.633 1.41.633.58 0 1.064-.21 1.45-.633.387-.43.58-.949.58-1.555v-13.5c0-.07.036-.106.106-.106h3.032c.07 0 .106.035.106.106l.052 13.5a5.45 5.45 0 01-.712 2.742 5.61 5.61 0 01-1.924 1.978c-.8.483-1.697.725-2.69.725z" fill="#245455"/><path d="M65.376 28.882a325.54 325.54 0 00-.135 4.104l-.027 3.861c0 .342.009.639.027.891l.027 1.62c0 .378-.01.612-.027.702a1.818 1.818 0 00-.027.297c.018.09.027.153.027.189 0 .072.009.117.027.135l.648.054a13.45 13.45 0 001.43.027l4.996-.054 2.835.081 1.269.027c.198.018.297.072.297.162a.444.444 0 01-.027.135.51.51 0 00-.027.162v1.242c0 .324.054 1.008.162 2.052l.108 1.134.027.135c0 .09-.045.144-.135.162-.09.036-.252.054-.486.054l-1.971-.027-3.348-.054c-.45 0-1.08.027-1.89.081-.36.018-.765.036-1.215.054-.432.018-.864.027-1.296.027l-.46-.027a4.576 4.576 0 00-.62-.027l-1.215.027a10.47 10.47 0 01-.837.027c-.234 0-.378-.036-.432-.108-.036-.054-.054-.144-.054-.27.018-.126.027-.234.027-.324 0-.396.027-1.08.08-2.052l.082-2.781-.054-1.269a48.506 48.506 0 01-.054-.891c-.018-.36-.027-.729-.027-1.107 0 .612.054 0 .162-1.836.108-1.854.162-2.997.162-3.429l-.027-3.051-.054-1.728v-.027c0-.144.099-.216.297-.216l.378.027c.09 0 .207.009.35.027h.919c.108 0 .162.072.162.216l-.054 1.566zm11.91.513h1.593l4.266-.783V44.65c.702 0 1.143-.18 1.323-.54.198-.36.297-.972.297-1.836h1.377c0 .558-.027 1.071-.081 1.539a2.353 2.353 0 01-.486 1.215c-.252.342-.648.612-1.188.81-.54.18-1.296.27-2.268.27-.666 0-1.215-.099-1.647-.297-.414-.198-.738-.432-.972-.702a2.626 2.626 0 01-.486-.864 2.797 2.797 0 01-.135-.756V30.745h-1.593v-1.35zm193.723 3.537c1.134 0 2.16.279 3.078.837a5.894 5.894 0 012.16 2.295c.522.954.783 2.025.783 3.213 0 .342-.009.603-.027.783h-10.395c.072 1.296.495 2.403 1.269 3.321.774.918 1.827 1.377 3.159 1.377 1.08 0 1.971-.198 2.673-.594a4.744 4.744 0 001.728-1.701l1.458.972a6.447 6.447 0 01-2.349 2.214c-.972.522-2.124.783-3.456.783-1.224 0-2.313-.288-3.267-.864-.954-.576-1.701-1.377-2.241-2.403s-.81-2.187-.81-3.483c0-1.296.261-2.457.783-3.483.54-1.026 1.278-1.827 2.214-2.403.954-.576 2.034-.864 3.24-.864zm4.185 5.616c-.18-1.314-.621-2.295-1.323-2.943-.702-.666-1.656-.999-2.862-.999-1.17 0-2.133.378-2.889 1.134-.738.738-1.206 1.674-1.404 2.808h8.478z" fill="#EAA7C7"/><path d="M92.467 46.264a5.001 5.001 0 01-2.65-.739 5.758 5.758 0 01-1.938-1.964 5.28 5.28 0 01-.725-2.716l.026-8.556c0-1.002.242-1.903.725-2.703a5.422 5.422 0 011.925-1.938 4.978 4.978 0 012.637-.738c.984 0 1.868.242 2.65.725a5.46 5.46 0 011.898 1.951c.484.809.725 1.71.725 2.703l.027 8.556c0 .985-.238 1.886-.712 2.703a5.609 5.609 0 01-1.925 1.977 4.98 4.98 0 01-2.663.739zm0-3.257c.545 0 1.02-.22 1.424-.659.404-.448.606-.95.606-1.503l-.026-8.556c0-.598-.19-1.103-.567-1.516-.378-.413-.857-.62-1.437-.62-.554 0-1.028.203-1.424.607-.396.404-.593.914-.593 1.53v8.555c0 .59.197 1.099.593 1.53.395.421.87.632 1.424.632zm78.151-11.236h2.322V46h-2.322V31.771zm1.134-2.646c-.432 0-.792-.144-1.08-.432a1.524 1.524 0 01-.432-1.08c0-.414.144-.765.432-1.053a1.422 1.422 0 011.08-.459c.432 0 .792.153 1.08.459.306.288.459.639.459 1.053 0 .414-.153.774-.459 1.08a1.465 1.465 0 01-1.08.432z" fill="#EAC119"/><path d="M306.054 44.945c0 .712-.734 1.068-2.201 1.068h-1.49c-1.53 0-2.294-.373-2.294-1.12 0-.203.101-.348.303-.435.202-.088.404-.159.607-.211.202-.053.303-.128.303-.224 0-.168-.356-.647-1.068-1.438-.703-.8-1.261-1.445-1.674-1.938 0 .018-.229.264-.686.739-.457.466-.98 1.01-1.569 1.634-.58.624-.87.967-.87 1.029 0 .061.259.136.778.224.527.08.791.29.791.633 0 .668-.699 1.028-2.096 1.08-.229.01-.519.014-.87.014h-.119c-1.09 0-1.762-.062-2.017-.185-.492-.237-.738-.562-.738-.975 0-.22.087-.356.263-.409.053-.017.202-.053.448-.105.247-.053.501-.136.765-.25.36-.168.87-.532 1.529-1.095.668-.571 1.868-1.648 3.6-3.23a44.888 44.888 0 00-2.637-3.243c-.615-.703-1.6-1.204-2.953-1.503-.334-.07-.501-.194-.501-.37 0-.843 1.098-1.265 3.296-1.265 2.197 0 3.296.378 3.296 1.134 0 .316-.339.536-1.016.66-.123.026-.184.052-.184.078 0 .22.149.519.448.897l.633.804c.413.492.773.905 1.081 1.24l1.806-1.833c.413-.413.62-.69.62-.831 0-.15-.075-.26-.224-.33a1.52 1.52 0 00-.488-.158c-.484-.088-.725-.25-.725-.487 0-.238.092-.436.277-.594a1.82 1.82 0 01.738-.369 7.415 7.415 0 011.727-.21c1.986 0 2.979.386 2.979 1.16 0 .377-.219.566-.659.566-.299 0-.663.097-1.094.29a3.505 3.505 0 00-1.055.699l-3.098 3.111 3.138 3.665c.325.36.791.677 1.397.95.607.272 1.007.47 1.2.593.202.114.303.294.303.54z" fill="#000"/><path d="M107.106 45.487v-.567c0-.198.04-.315.121-.351.081-.036.221-.054.419-.054h3.483c.243 0 .396-.036.459-.108.072-.081.108-.234.108-.459V30.164c0-.242-.027-.409-.081-.499-.054-.09-.198-.135-.432-.135h-3.024c-.198 0-.347-.023-.446-.068-.099-.044-.148-.175-.148-.391v-.405c0-.243.031-.405.094-.486.063-.09.221-.135.473-.135.873-.009 1.579-.063 2.119-.162a2.559 2.559 0 001.391-.756c.387-.396.774-1.026 1.161-1.89a2.6 2.6 0 00.162-.391c.045-.117.18-.176.405-.176h.378c.171 0 .297.018.378.054.09.027.135.126.135.297v18.792c0 .315.04.513.121.594.081.072.284.108.608.108h2.997c.18 0 .324.018.432.054.108.036.162.153.162.351v.54c0 .216-.027.36-.081.432-.045.072-.171.108-.378.108h-10.557c-.198 0-.324-.032-.378-.094-.054-.072-.081-.212-.081-.419zm98.942-15.093c-.702 0-1.278-.153-1.728-.459-.432-.306-.648-.693-.648-1.161 0-.486.216-.882.648-1.188.45-.324 1.026-.486 1.728-.486.72 0 1.287.153 1.701.459.432.306.648.711.648 1.215 0 .486-.207.882-.621 1.188-.414.288-.99.432-1.728.432zm7.101 13.473V46h-13.797v-2.133h5.67v-8.451h-5.67v-2.133h8.316v10.584h5.481z" fill="#9ED6DF"/><path d="M151.066 34.39l1.134-.999.513.243-.027 2.484a748.653 748.653 0 00-.027 7.479c0 1.62.009 2.943.027 3.969a101.003 101.003 0 00.189 3.699c.036.27.063.45.081.54.018.09.126.171.324.243.216.072.459.126.729.162.27.054.495.09.675.108l-.081.783a29.639 29.639 0 00-1.431-.081H150.067c-.612.018-1.134.045-1.566.081l.081-.783c.198-.018.432-.054.702-.108.288-.036.549-.09.783-.162.234-.072.36-.153.378-.243l.054-.594c.036-.378.072-1.08.108-2.106.036-1.008.054-2.439.054-4.293-.774.54-1.485.918-2.133 1.134-.63.216-1.35.324-2.16.324-1.026 0-1.899-.279-2.619-.837a5.512 5.512 0 01-1.647-2.214 7.915 7.915 0 01-.54-2.916c0-1.296.27-2.448.81-3.456.558-1.026 1.296-1.827 2.214-2.403a5.5 5.5 0 013.051-.891 8.32 8.32 0 011.728.189 5.553 5.553 0 011.701.648zm-.378 9.423c0-1.872-.018-3.384-.054-4.536a96.875 96.875 0 00-.108-2.646 25.33 25.33 0 00-.081-1.134 6.726 6.726 0 00-1.188-.351 5.777 5.777 0 00-1.08-.108c-.918 0-1.692.261-2.322.783-.612.522-1.08 1.188-1.404 1.998a6.498 6.498 0 00-.486 2.484 5.9 5.9 0 00.378 2.106 3.683 3.683 0 001.161 1.62c.522.414 1.197.621 2.025.621.576 0 1.098-.063 1.566-.189a9.894 9.894 0 001.593-.648zm45.952.108l.27.621-4.401 2.025-.162-.162c.036-.162.072-.477.108-.945.054-.486.081-.999.081-1.539h-.027a7.187 7.187 0 01-1.782 1.755c-.702.486-1.548.729-2.538.729a4.625 4.625 0 01-2.376-.648c-.72-.45-1.305-1.098-1.755-1.944-.432-.846-.648-1.872-.648-3.078 0-1.152.198-2.16.594-3.024.414-.882.954-1.62 1.62-2.214a6.952 6.952 0 012.241-1.323 7.123 7.123 0 012.484-.459c.828 0 1.539.081 2.133.243v-5.697c0-.504-.081-.828-.243-.972-.144-.144-.342-.216-.594-.216-.234 0-.486.036-.756.108a4.06 4.06 0 00-.702.27l-.27-.621 4.671-2.16.162.162c-.018.144-.045.531-.081 1.161-.018.63-.027 1.377-.027 2.241v14.742c0 .504.072.828.216.972a.9.9 0 00.621.216c.378 0 .765-.081 1.161-.243zm-7.614.864c.63 0 1.233-.162 1.809-.486a8.145 8.145 0 001.647-1.188v-7.074c-.432-.468-.918-.765-1.458-.891-.522-.144-.981-.216-1.377-.216-1.152 0-2.115.396-2.889 1.188-.756.774-1.134 2.007-1.134 3.699 0 1.548.315 2.763.945 3.645.63.882 1.449 1.323 2.457 1.323zM256.18 46v-.864l2.322-.351c.036-1.98.054-3.627.054-4.941v-1.512c0-1.836-.018-3.204-.054-4.104l-2.484-.162v-.891l4.239-1.404.405.27-.081 3.834v3.969c0 1.314.018 2.961.054 4.941l2.133.351V46h-6.588zm3.321-21.195c.504 0 .918.153 1.242.459.324.306.486.702.486 1.188s-.171.882-.513 1.188c-.324.306-.729.459-1.215.459-.486 0-.891-.153-1.215-.459-.324-.306-.486-.702-.486-1.188s.162-.882.486-1.188c.324-.306.729-.459 1.215-.459z" fill="#ED783D"/><rect x="343" y="23" width="34" height="5.4" rx="2" fill="#ED783D"/><rect x="343.81" y="33.8" width="33.191" height="5.4" rx="2" fill="#808BC5"/><rect x="343" y="44.6" width="34" height="5.4" rx="2" fill="#EAA7C7"/></svg>