<svg width="363" height="68" fill="none" xmlns="http://www.w3.org/2000/svg"><rect width="363" height="68" rx="18" fill="#9ED6DF"/><path d="M344.707 34.707a1 1 0 000-1.414l-6.364-6.364a1 1 0 10-1.414 1.414L342.586 34l-5.657 5.657a1 1 0 101.414 1.414l6.364-6.364zM316 34v1h28v-2h-28v1zM21.008 40V29.072h2.208v9.056h4.32V40h-6.528zm10.792.176c-.886 0-1.59-.15-2.112-.448-.512-.299-.88-.752-1.104-1.36-.224-.608-.336-1.37-.336-2.288 0-.992.139-1.803.416-2.432.288-.63.704-1.093 1.248-1.392.544-.31 1.216-.464 2.016-.464 1.184 0 2.074.299 2.672.896.608.597.912 1.541.912 2.832l-.096 1.184h-5.024c.01.597.133 1.045.368 1.344.234.299.64.448 1.216.448.33 0 .693-.005 1.088-.016l1.168-.064c.395-.021.73-.043 1.008-.064l.048 1.488c-.267.043-.603.09-1.008.144-.406.053-.827.096-1.264.128-.427.043-.832.064-1.216.064zm-1.408-4.832h2.992c0-.725-.117-1.232-.352-1.52-.224-.288-.592-.432-1.104-.432-.341 0-.624.064-.848.192-.224.128-.395.336-.512.624-.117.288-.176.667-.176 1.136zm9.43 4.832c-.351 0-.73-.021-1.135-.064a15.418 15.418 0 01-2-.288l.064-1.584c.277.032.587.07.928.112.352.043.693.08 1.024.112.341.021.618.032.832.032.32 0 .581-.027.784-.08.213-.053.373-.139.48-.256.107-.128.16-.31.16-.544 0-.181-.048-.32-.144-.416-.085-.096-.256-.176-.512-.24a8.494 8.494 0 00-1.088-.224c-.598-.085-1.094-.208-1.488-.368-.384-.16-.667-.395-.848-.704-.181-.32-.272-.752-.272-1.296 0-.661.144-1.179.432-1.552a2.262 2.262 0 011.152-.784 4.93 4.93 0 011.568-.24c.373 0 .757.021 1.152.064.395.032.768.075 1.12.128.352.053.645.107.88.16l-.064 1.616c-.267-.043-.576-.08-.928-.112a17.59 17.59 0 00-1.92-.128c-.245 0-.464.027-.656.08a.89.89 0 00-.448.224c-.096.107-.144.267-.144.48 0 .15.043.272.128.368.085.096.245.181.48.256a9.85 9.85 0 001.056.192c.661.096 1.19.23 1.584.4.395.17.677.416.848.736.181.32.272.752.272 1.296 0 .64-.128 1.152-.384 1.536-.256.384-.63.661-1.12.832-.49.17-1.088.256-1.792.256zM48.326 40v-6.256h-.8v-1.776h.8v-.464c0-.757.07-1.355.208-1.792.15-.437.4-.747.752-.928.352-.181.827-.272 1.424-.272.17 0 .373.01.608.032.245.01.48.027.704.048.224.021.395.043.512.064l-.016 1.632h-.576c-.203-.01-.379-.016-.528-.016-.235 0-.427.037-.576.112a.66.66 0 00-.304.368c-.053.17-.08.416-.08.736v.48h1.92v1.776h-1.92V40h-2.128zm5.149 0v-8.032h2.128V40h-2.128zm0-9.312v-1.824h2.144v1.824h-2.144zm7.442 12.976c-.853 0-1.568-.064-2.144-.192-.565-.128-.992-.363-1.28-.704-.288-.33-.432-.81-.432-1.44 0-.277.037-.528.112-.752.085-.213.213-.416.384-.608a5.51 5.51 0 01.672-.592 1.169 1.169 0 01-.368-.464 1.836 1.836 0 01-.128-.688c0-.085.037-.197.112-.336.075-.15.165-.304.272-.464.107-.16.208-.304.304-.432a2.208 2.208 0 01-.608-.416 2.254 2.254 0 01-.48-.768c-.117-.32-.176-.73-.176-1.232 0-.683.128-1.227.384-1.632.267-.405.65-.699 1.152-.88.501-.181 1.11-.272 1.824-.272.277 0 .576.021.896.064.32.043.576.085.768.128l2.608-.048v1.44l-1.216-.016c.096.128.181.293.256.496.085.192.128.432.128.72 0 .736-.128 1.307-.384 1.712-.245.405-.619.688-1.12.848-.501.15-1.136.224-1.904.224a5.22 5.22 0 01-.352-.016 12.54 12.54 0 00-.368-.048 4.8 4.8 0 00-.128.368 1.017 1.017 0 00-.064.272c0 .117.021.208.064.272a.592.592 0 00.272.16c.139.032.336.053.592.064.267.01.619.016 1.056.016.757 0 1.36.07 1.808.208.459.139.784.384.976.736.192.352.288.848.288 1.488 0 .95-.336 1.648-1.008 2.096-.661.459-1.584.688-2.768.688zm-.112-1.584c.661 0 1.136-.08 1.424-.24.299-.15.448-.4.448-.752 0-.277-.053-.48-.16-.608-.096-.128-.261-.213-.496-.256a7.484 7.484 0 00-.96-.048c-.107 0-.235-.005-.384-.016-.15 0-.304-.005-.464-.016-.15 0-.288-.005-.416-.016a3.164 3.164 0 00-.256-.016c-.15.107-.272.208-.368.304a1.13 1.13 0 00-.192.288 1.347 1.347 0 00-.048.384c0 .245.059.437.176.576.117.15.31.256.576.32.277.064.65.096 1.12.096zm-.272-6.224c.49 0 .837-.096 1.04-.288.213-.203.32-.533.32-.992 0-.459-.107-.79-.32-.992-.203-.203-.55-.304-1.04-.304-.47 0-.81.101-1.024.304-.203.203-.304.533-.304.992 0 .459.101.79.304.992.213.192.555.288 1.024.288zm7.94 4.32c-.694 0-1.233-.144-1.617-.432-.373-.299-.64-.747-.8-1.344-.15-.597-.224-1.35-.224-2.256v-4.176h2.128v4.08c0 .565.027 1.013.08 1.344.064.33.187.565.368.704.182.139.443.208.784.208.33 0 .64-.043.928-.128.288-.085.518-.17.688-.256v-5.952h2.128V40h-2.112v-.496a7.023 7.023 0 01-1.088.496c-.352.117-.773.176-1.264.176zm6.22-.176v-8.032h2.129v.944c.18-.139.405-.283.672-.432.266-.16.554-.304.864-.432.32-.139.624-.23.912-.272v2.064a5.08 5.08 0 00-.88.224 9.445 9.445 0 00-1.569.64V40h-2.127zm8.842.176c-.885 0-1.59-.15-2.112-.448-.512-.299-.88-.752-1.104-1.36-.224-.608-.336-1.37-.336-2.288 0-.992.139-1.803.416-2.432.288-.63.704-1.093 1.248-1.392.544-.31 1.216-.464 2.016-.464 1.184 0 2.075.299 2.672.896.608.597.912 1.541.912 2.832l-.096 1.184h-5.024c.01.597.134 1.045.368 1.344.235.299.64.448 1.216.448.33 0 .694-.005 1.088-.016l1.168-.064c.395-.021.73-.043 1.008-.064l.048 1.488c-.266.043-.602.09-1.008.144-.405.053-.826.096-1.264.128-.426.043-.832.064-1.216.064zm-1.408-4.832h2.992c0-.725-.117-1.232-.352-1.52-.224-.288-.592-.432-1.104-.432-.341 0-.624.064-.848.192-.224.128-.394.336-.512.624-.117.288-.176.667-.176 1.136zm9.431 4.832c-.352 0-.73-.021-1.136-.064a15.418 15.418 0 01-2-.288l.064-1.584c.278.032.587.07.928.112.352.043.694.08 1.024.112.342.021.619.032.832.032.32 0 .582-.027.784-.08.214-.053.374-.139.48-.256.107-.128.16-.31.16-.544 0-.181-.048-.32-.144-.416-.085-.096-.256-.176-.512-.24a8.494 8.494 0 00-1.088-.224c-.597-.085-1.093-.208-1.488-.368-.384-.16-.666-.395-.848-.704-.181-.32-.272-.752-.272-1.296 0-.661.144-1.179.432-1.552a2.262 2.262 0 011.152-.784 4.93 4.93 0 011.568-.24c.374 0 .758.021 1.152.064.395.032.768.075 1.12.128.352.053.646.107.88.16l-.064 1.616c-.266-.043-.576-.08-.928-.112a17.59 17.59 0 00-1.92-.128c-.245 0-.464.027-.656.08a.89.89 0 00-.448.224c-.096.107-.144.267-.144.48 0 .15.043.272.128.368.086.096.246.181.48.256a9.85 9.85 0 001.056.192c.662.096 1.19.23 1.584.4.395.17.678.416.848.736.182.32.272.752.272 1.296 0 .64-.128 1.152-.384 1.536-.256.384-.63.661-1.12.832-.49.17-1.088.256-1.792.256zm10.886 0c-.384 0-.736-.048-1.056-.144a2.34 2.34 0 01-.848-.416 2.707 2.707 0 01-.608-.784c-.16-.32-.282-.71-.368-1.168a9.205 9.205 0 01-.128-1.632c0-.917.112-1.69.336-2.32.235-.63.603-1.104 1.104-1.424.502-.33 1.168-.496 2-.496.16 0 .347.01.56.032.214.01.422.032.624.064.203.021.368.043.496.064v-3.264h2.144V40h-2.112l-.016-.464a6.159 6.159 0 01-.592.288 5.132 5.132 0 01-.752.24 2.895 2.895 0 01-.784.112zm.544-1.792c.192 0 .384-.021.576-.064.203-.043.39-.09.56-.144.182-.064.326-.123.432-.176v-4.304a2.669 2.669 0 00-.384-.048 7.13 7.13 0 00-.496-.048 3.765 3.765 0 00-.464-.032c-.416 0-.741.096-.976.288-.224.192-.384.475-.48.848-.096.363-.144.805-.144 1.328 0 .459.032.843.096 1.152.064.299.155.539.272.72.128.17.278.293.448.368.171.075.358.112.56.112zm8.719 1.792c-.885 0-1.589-.15-2.112-.448-.512-.299-.88-.752-1.104-1.36-.224-.608-.336-1.37-.336-2.288 0-.992.139-1.803.416-2.432.288-.63.704-1.093 1.248-1.392.544-.31 1.216-.464 2.016-.464 1.184 0 2.075.299 2.672.896.608.597.912 1.541.912 2.832l-.096 1.184h-5.024c.011.597.133 1.045.368 1.344.235.299.64.448 1.216.448.331 0 .693-.005 1.088-.016l1.168-.064c.395-.021.731-.043 1.008-.064l.048 1.488c-.267.043-.603.09-1.008.144-.405.053-.827.096-1.264.128-.427.043-.832.064-1.216.064zm-1.408-4.832h2.992c0-.725-.117-1.232-.352-1.52-.224-.288-.592-.432-1.104-.432-.341 0-.624.064-.848.192-.224.128-.395.336-.512.624-.117.288-.176.667-.176 1.136zM120.382 40V28.688h2.128V40h-2.128zm3.711-7.184l.56-3.904h2.224l-1.104 3.904h-1.68zm7.181 7.36c-.907 0-1.638-.15-2.192-.448-.544-.299-.939-.757-1.184-1.376-.246-.63-.368-1.44-.368-2.432 0-.96.128-1.739.384-2.336.256-.608.661-1.056 1.216-1.344.554-.299 1.269-.448 2.144-.448.885 0 1.6.15 2.144.448.554.288.96.736 1.216 1.344.266.597.4 1.376.4 2.336 0 .992-.123 1.803-.368 2.432-.246.619-.646 1.077-1.2 1.376-.544.299-1.275.448-2.192.448zm0-1.76c.448 0 .784-.08 1.008-.24.224-.17.373-.437.448-.8.085-.373.128-.859.128-1.456 0-.587-.048-1.05-.144-1.392-.096-.352-.256-.603-.48-.752-.224-.15-.544-.224-.96-.224-.406 0-.726.075-.96.224-.224.15-.384.4-.48.752-.096.341-.144.805-.144 1.392 0 .597.037 1.083.112 1.456.085.363.24.63.464.8.224.16.56.24 1.008.24zM136.489 40v-8.032h2.128v.512c.16-.107.363-.208.608-.304.246-.107.502-.197.768-.272.278-.075.544-.112.8-.112.491 0 .891.07 1.2.208.31.128.566.32.768.576.192-.117.432-.235.72-.352.288-.117.603-.219.944-.304a4.09 4.09 0 01.992-.128c.587 0 1.067.08 1.44.24.384.15.683.39.896.72.214.32.363.736.448 1.248.086.501.128 1.11.128 1.824V40h-2.128v-3.984c0-.555-.032-1.003-.096-1.344-.053-.352-.17-.608-.352-.768-.17-.16-.432-.24-.784-.24-.192 0-.394.021-.608.064a3.225 3.225 0 00-1.008.32c.054.224.091.512.112.864.032.352.048.72.048 1.104V40h-2.128v-3.952c0-.565-.032-1.024-.096-1.376-.053-.352-.17-.608-.352-.768-.181-.16-.442-.24-.784-.24a2.87 2.87 0 00-.592.064c-.192.032-.373.08-.544.144-.16.064-.293.123-.4.176V40h-2.128zm16.732.176c-.267 0-.592-.01-.976-.032a23.956 23.956 0 01-1.184-.096c-.395-.043-.747-.08-1.056-.112V28.688h2.144v3.536c.16-.064.357-.128.592-.192.234-.064.48-.117.736-.16.266-.053.512-.08.736-.08.746 0 1.338.155 1.776.464.448.299.768.747.96 1.344.192.597.288 1.35.288 2.256 0 1.067-.123 1.92-.368 2.56-.235.63-.646 1.083-1.232 1.36-.587.267-1.392.4-2.416.4zm.016-1.792c.522 0 .912-.09 1.168-.272.256-.192.426-.475.512-.848.096-.373.144-.832.144-1.376 0-.555-.043-.997-.128-1.328-.086-.341-.23-.587-.432-.736-.192-.16-.464-.24-.816-.24-.171 0-.352.021-.544.064a4.742 4.742 0 00-.56.128 4.381 4.381 0 00-.432.128v4.416c.16.01.346.027.56.048.213.01.389.016.528.016zM158.708 40v-8.032h2.128v.944c.181-.139.405-.283.672-.432.267-.16.555-.304.864-.432.32-.139.624-.23.912-.272v2.064a5.08 5.08 0 00-.88.224 9.445 9.445 0 00-1.568.64V40h-2.128zm8.842.176c-.885 0-1.589-.15-2.112-.448-.512-.299-.88-.752-1.104-1.36-.224-.608-.336-1.37-.336-2.288 0-.992.139-1.803.416-2.432.288-.63.704-1.093 1.248-1.392.544-.31 1.216-.464 2.016-.464 1.184 0 2.075.299 2.672.896.608.597.912 1.541.912 2.832l-.096 1.184h-5.024c.011.597.133 1.045.368 1.344.235.299.64.448 1.216.448.331 0 .693-.005 1.088-.016l1.168-.064c.395-.021.731-.043 1.008-.064l.048 1.488c-.267.043-.603.09-1.008.144-.405.053-.827.096-1.264.128-.427.043-.832.064-1.216.064zm-1.408-4.832h2.992c0-.725-.117-1.232-.352-1.52-.224-.288-.592-.432-1.104-.432-.341 0-.624.064-.848.192-.224.128-.395.336-.512.624-.117.288-.176.667-.176 1.136zm9.431 4.832c-.352 0-.731-.021-1.136-.064a15.434 15.434 0 01-2-.288l.064-1.584c.277.032.587.07.928.112.352.043.693.08 1.024.112.341.021.619.032.832.032.32 0 .581-.027.784-.08.213-.053.373-.139.48-.256.107-.128.16-.31.16-.544 0-.181-.048-.32-.144-.416-.085-.096-.256-.176-.512-.24a8.48 8.48 0 00-1.088-.224c-.597-.085-1.093-.208-1.488-.368-.384-.16-.667-.395-.848-.704-.181-.32-.272-.752-.272-1.296 0-.661.144-1.179.432-1.552a2.262 2.262 0 011.152-.784c.48-.16 1.003-.24 1.568-.24.373 0 .757.021 1.152.064.395.032.768.075 1.12.128.352.053.645.107.88.16l-.064 1.616c-.267-.043-.576-.08-.928-.112a17.59 17.59 0 00-1.92-.128c-.245 0-.464.027-.656.08a.892.892 0 00-.448.224c-.096.107-.144.267-.144.48 0 .15.043.272.128.368.085.096.245.181.48.256.245.064.597.128 1.056.192.661.096 1.189.23 1.584.4s.677.416.848.736c.181.32.272.752.272 1.296 0 .64-.128 1.152-.384 1.536-.256.384-.629.661-1.12.832-.491.17-1.088.256-1.792.256zm10.886 0c-.384 0-.736-.048-1.056-.144a2.332 2.332 0 01-.848-.416 2.698 2.698 0 01-.608-.784c-.16-.32-.283-.71-.368-1.168a9.243 9.243 0 01-.128-1.632c0-.917.112-1.69.336-2.32.235-.63.603-1.104 1.104-1.424.501-.33 1.168-.496 2-.496.16 0 .347.01.56.032.213.01.421.032.624.064.203.021.368.043.496.064v-3.264h2.144V40h-2.112l-.016-.464a6.278 6.278 0 01-.592.288 5.17 5.17 0 01-.752.24 2.9 2.9 0 01-.784.112zm.544-1.792c.192 0 .384-.021.576-.064.203-.043.389-.09.56-.144.181-.064.325-.123.432-.176v-4.304a2.669 2.669 0 00-.384-.048 7.13 7.13 0 00-.496-.048 3.778 3.778 0 00-.464-.032c-.416 0-.741.096-.976.288-.224.192-.384.475-.48.848-.096.363-.144.805-.144 1.328 0 .459.032.843.096 1.152.064.299.155.539.272.72.128.17.277.293.448.368.171.075.357.112.56.112zm8.719 1.792c-.886 0-1.59-.15-2.112-.448-.512-.299-.88-.752-1.104-1.36-.224-.608-.336-1.37-.336-2.288 0-.992.138-1.803.416-2.432.288-.63.704-1.093 1.248-1.392.544-.31 1.216-.464 2.016-.464 1.184 0 2.074.299 2.672.896.608.597.912 1.541.912 2.832l-.096 1.184h-5.024c.01.597.133 1.045.368 1.344.234.299.64.448 1.216.448.33 0 .693-.005 1.088-.016l1.168-.064c.394-.021.73-.043 1.008-.064l.048 1.488c-.267.043-.603.09-1.008.144-.406.053-.827.096-1.264.128-.427.043-.832.064-1.216.064zm-1.408-4.832h2.992c0-.725-.118-1.232-.352-1.52-.224-.288-.592-.432-1.104-.432-.342 0-.624.064-.848.192-.224.128-.395.336-.512.624-.118.288-.176.667-.176 1.136zm.592-4.576l-.928-1.2 3.12-1.584 1.216 1.616-3.408 1.168zM202.003 40l-1.904-8.032h2.288l1.344 6.224h.464l1.376-6.224h2.16L205.827 40h-3.824zm10.177.176c-.907 0-1.638-.15-2.192-.448-.544-.299-.939-.757-1.184-1.376-.246-.63-.368-1.44-.368-2.432 0-.96.128-1.739.384-2.336.256-.608.661-1.056 1.216-1.344.554-.299 1.269-.448 2.144-.448.885 0 1.6.15 2.144.448.554.288.96.736 1.216 1.344.266.597.4 1.376.4 2.336 0 .992-.123 1.803-.368 2.432-.246.619-.646 1.077-1.2 1.376-.544.299-1.275.448-2.192.448zm0-1.76c.448 0 .784-.08 1.008-.24.224-.17.373-.437.448-.8.085-.373.128-.859.128-1.456 0-.587-.048-1.05-.144-1.392-.096-.352-.256-.603-.48-.752-.224-.15-.544-.224-.96-.224-.406 0-.726.075-.96.224-.224.15-.384.4-.48.752-.096.341-.144.805-.144 1.392 0 .597.037 1.083.112 1.456.085.363.24.63.464.8.224.16.56.24 1.008.24zM217.396 40v-8.032h2.128V40h-2.128zm0-9.312v-1.824h2.144v1.824h-2.144zm3.97 9.312V28.688h2.128V40h-2.128zm7.2.176c-.886 0-1.59-.15-2.112-.448-.512-.299-.88-.752-1.104-1.36-.224-.608-.336-1.37-.336-2.288 0-.992.138-1.803.416-2.432.288-.63.704-1.093 1.248-1.392.544-.31 1.216-.464 2.016-.464 1.184 0 2.074.299 2.672.896.608.597.912 1.541.912 2.832l-.096 1.184h-5.024c.01.597.133 1.045.368 1.344.234.299.64.448 1.216.448.33 0 .693-.005 1.088-.016l1.168-.064c.394-.021.73-.043 1.008-.064l.048 1.488c-.267.043-.603.09-1.008.144-.406.053-.827.096-1.264.128-.427.043-.832.064-1.216.064zm-1.408-4.832h2.992c0-.725-.118-1.232-.352-1.52-.224-.288-.592-.432-1.104-.432-.342 0-.624.064-.848.192-.224.128-.395.336-.512.624-.118.288-.176.667-.176 1.136zm.592-4.576l-.928-1.2 3.12-1.584 1.216 1.616-3.408 1.168zm9.191 9.408c-.886 0-1.59-.15-2.112-.448-.512-.299-.88-.752-1.104-1.36-.224-.608-.336-1.37-.336-2.288 0-.992.138-1.803.416-2.432.288-.63.704-1.093 1.248-1.392.544-.31 1.216-.464 2.016-.464 1.184 0 2.074.299 2.672.896.608.597.912 1.541.912 2.832l-.096 1.184h-5.024c.01.597.133 1.045.368 1.344.234.299.64.448 1.216.448.33 0 .693-.005 1.088-.016l1.168-.064c.394-.021.73-.043 1.008-.064l.048 1.488c-.267.043-.603.09-1.008.144-.406.053-.827.096-1.264.128-.427.043-.832.064-1.216.064zm-1.408-4.832h2.992c0-.725-.118-1.232-.352-1.52-.224-.288-.592-.432-1.104-.432-.342 0-.624.064-.848.192-.224.128-.395.336-.512.624-.118.288-.176.667-.176 1.136zm9.431 4.832c-.352 0-.731-.021-1.136-.064a15.273 15.273 0 01-2-.288l.064-1.584c.277.032.586.07.928.112.352.043.693.08 1.024.112.341.021.618.032.832.032.32 0 .581-.027.784-.08.213-.053.373-.139.48-.256.106-.128.16-.31.16-.544 0-.181-.048-.32-.144-.416-.086-.096-.256-.176-.512-.24a8.517 8.517 0 00-1.088-.224c-.598-.085-1.094-.208-1.488-.368-.384-.16-.667-.395-.848-.704-.182-.32-.272-.752-.272-1.296 0-.661.144-1.179.432-1.552a2.262 2.262 0 011.152-.784c.48-.16 1.002-.24 1.568-.24.373 0 .757.021 1.152.064.394.032.768.075 1.12.128.352.053.645.107.88.16l-.064 1.616c-.267-.043-.576-.08-.928-.112a17.59 17.59 0 00-1.92-.128c-.246 0-.464.027-.656.08a.887.887 0 00-.448.224c-.096.107-.144.267-.144.48 0 .15.042.272.128.368.085.096.245.181.48.256.245.064.597.128 1.056.192.661.096 1.189.23 1.584.4.394.17.677.416.848.736.181.32.272.752.272 1.296 0 .64-.128 1.152-.384 1.536-.256.384-.63.661-1.12.832-.491.17-1.088.256-1.792.256z" fill="#C63F3E"/></svg>