<svg width="363" height="68" fill="none" xmlns="http://www.w3.org/2000/svg"><rect width="363" height="68" rx="18" fill="#9ED6DF"/><path d="M344.707 34.707a1 1 0 000-1.414l-6.364-6.364a1 1 0 10-1.414 1.414L342.586 34l-5.657 5.657a1 1 0 101.414 1.414l6.364-6.364zM316 34v1h28v-2h-28v1zM21.008 40V29.072h4.352c.725 0 1.35.09 1.872.272.523.181.928.475 1.216.88.299.395.448.928.448 1.6 0 .459-.048.848-.144 1.168-.085.31-.224.576-.416.8-.181.213-.421.41-.72.592.32.117.597.277.832.48.245.192.432.453.56.784.128.32.192.747.192 1.28 0 .587-.09 1.077-.272 1.472a2.27 2.27 0 01-.784.944c-.33.235-.72.405-1.168.512a7.03 7.03 0 01-1.472.144h-4.496zm2.208-1.632h2.128c.373 0 .683-.043.928-.128.256-.096.448-.261.576-.496.139-.235.208-.56.208-.976 0-.32-.053-.581-.16-.784a1.063 1.063 0 00-.416-.448 1.709 1.709 0 00-.576-.224 2.942 2.942 0 00-.608-.064h-2.08v3.12zm0-4.688h2.064c.363 0 .656-.053.88-.16.224-.117.39-.288.496-.512.107-.235.16-.528.16-.88 0-.501-.133-.864-.4-1.088-.256-.224-.661-.336-1.216-.336h-1.984v2.976zm9.557 6.496c-.832 0-1.462-.208-1.888-.624-.416-.427-.624-1.067-.624-1.92 0-.597.107-1.061.32-1.392.213-.341.528-.587.944-.736.427-.16.944-.256 1.552-.288l1.952-.176v-.48c0-.384-.096-.65-.288-.8-.192-.16-.475-.24-.848-.24-.299 0-.645.01-1.04.032-.384.021-.768.048-1.152.08a33.9 33.9 0 00-.976.096l-.064-1.504c.277-.064.608-.128.992-.192.395-.075.805-.133 1.232-.176.427-.043.821-.064 1.184-.064.682 0 1.253.085 1.712.256.459.17.805.453 1.04.848.235.384.352.907.352 1.568v3.664a.48.48 0 00.24.352c.139.075.299.128.48.16l-.048 1.472h-.512c-.16.01-.315.01-.464 0-.15 0-.283-.01-.4-.032a1.877 1.877 0 01-.64-.192 1.905 1.905 0 01-.416-.304c-.17.075-.4.16-.688.256a7.164 7.164 0 01-.944.24c-.33.064-.667.096-1.008.096zm.512-1.584c.203 0 .416-.021.64-.064.224-.043.432-.09.624-.144.203-.064.362-.123.48-.176v-1.84l-1.632.144c-.352.032-.608.139-.768.32-.15.17-.224.416-.224.736s.07.57.208.752c.15.181.373.272.672.272zM39.052 40v-8.032h2.128v.512a3.78 3.78 0 01.624-.304c.245-.107.501-.197.768-.272.277-.075.544-.112.8-.112.554 0 1.013.075 1.376.224.373.139.666.368.88.688.213.32.368.741.464 1.264.096.512.144 1.136.144 1.872V40h-2.144v-4.048c0-.555-.032-.997-.096-1.328-.064-.341-.187-.587-.368-.736-.181-.15-.448-.224-.8-.224a3.1 3.1 0 00-.608.064c-.203.032-.4.08-.592.144-.181.064-.33.128-.448.192V40h-2.128zm11.548.176c-.384 0-.736-.048-1.056-.144a2.335 2.335 0 01-.848-.416 2.7 2.7 0 01-.608-.784c-.16-.32-.283-.71-.368-1.168a9.215 9.215 0 01-.128-1.632c0-.917.112-1.69.336-2.32.234-.63.602-1.104 1.104-1.424.501-.33 1.168-.496 2-.496.16 0 .346.01.56.032.213.01.421.032.624.064.202.021.368.043.496.064v-3.264h2.144V40h-2.112l-.016-.464c-.15.085-.347.181-.592.288a5.166 5.166 0 01-.752.24 2.898 2.898 0 01-.784.112zm.544-1.792c.192 0 .384-.021.576-.064.202-.043.389-.09.56-.144a3.91 3.91 0 00.432-.176v-4.304a2.669 2.669 0 00-.384-.048 7.148 7.148 0 00-.496-.048 3.777 3.777 0 00-.464-.032c-.416 0-.742.096-.976.288-.224.192-.384.475-.48.848-.096.363-.144.805-.144 1.328 0 .459.032.843.096 1.152.064.299.154.539.272.72.128.17.277.293.448.368.17.075.357.112.56.112zm8.718 1.792c-.885 0-1.589-.15-2.112-.448-.512-.299-.88-.752-1.104-1.36-.224-.608-.336-1.37-.336-2.288 0-.992.139-1.803.416-2.432.288-.63.704-1.093 1.248-1.392.544-.31 1.216-.464 2.016-.464 1.184 0 2.075.299 2.672.896.608.597.912 1.541.912 2.832l-.096 1.184h-5.024c.011.597.134 1.045.368 1.344.235.299.64.448 1.216.448.331 0 .694-.005 1.088-.016l1.168-.064c.395-.021.731-.043 1.008-.064l.048 1.488c-.266.043-.602.09-1.008.144-.405.053-.826.096-1.264.128-.426.043-.832.064-1.216.064zm-1.408-4.832h2.992c0-.725-.117-1.232-.352-1.52-.224-.288-.592-.432-1.104-.432-.341 0-.624.064-.848.192-.224.128-.394.336-.512.624-.117.288-.176.667-.176 1.136zm12.116 4.832c-.832 0-1.462-.208-1.888-.624-.416-.427-.624-1.067-.624-1.92 0-.597.106-1.061.32-1.392.213-.341.528-.587.944-.736.426-.16.944-.256 1.552-.288l1.952-.176v-.48c0-.384-.096-.65-.288-.8-.192-.16-.475-.24-.848-.24-.299 0-.646.01-1.04.032-.384.021-.768.048-1.152.08a33.9 33.9 0 00-.976.096l-.064-1.504c.277-.064.608-.128.992-.192.394-.075.805-.133 1.232-.176.426-.043.821-.064 1.184-.064.682 0 1.253.085 1.712.256.458.17.805.453 1.04.848.234.384.352.907.352 1.568v3.664a.48.48 0 00.24.352c.138.075.298.128.48.16l-.048 1.472h-.512c-.16.01-.315.01-.464 0-.15 0-.283-.01-.4-.032a1.877 1.877 0 01-.64-.192 1.905 1.905 0 01-.416-.304c-.17.075-.4.16-.688.256a7.164 7.164 0 01-.944.24c-.33.064-.667.096-1.008.096zm.512-1.584c.202 0 .416-.021.64-.064.224-.043.432-.09.624-.144.202-.064.362-.123.48-.176v-1.84l-1.632.144c-.352.032-.608.139-.768.32-.15.17-.224.416-.224.736s.07.57.208.752c.15.181.373.272.672.272zM76.849 40v-8.032h2.128v.512a3.78 3.78 0 01.624-.304c.245-.107.501-.197.768-.272.277-.075.544-.112.8-.112.554 0 1.013.075 1.376.224.373.139.666.368.88.688.213.32.368.741.464 1.264.096.512.144 1.136.144 1.872V40h-2.144v-4.048c0-.555-.032-.997-.096-1.328-.064-.341-.187-.587-.368-.736-.182-.15-.448-.224-.8-.224a3.1 3.1 0 00-.608.064c-.203.032-.4.08-.592.144-.182.064-.33.128-.448.192V40h-2.128zm8.843 0v-8.032h2.129v.512c.17-.107.378-.208.624-.304.245-.107.5-.197.768-.272.277-.075.544-.112.8-.112.554 0 1.013.075 1.375.224.374.139.667.368.88.688.214.32.368.741.465 1.264.096.512.143 1.136.143 1.872V40h-2.144v-4.048c0-.555-.031-.997-.096-1.328-.063-.341-.186-.587-.367-.736-.182-.15-.449-.224-.8-.224a3.1 3.1 0 00-.608.064c-.203.032-.4.08-.593.144a3.12 3.12 0 00-.448.192V40h-2.127zm12.3.176c-.906 0-1.637-.15-2.192-.448-.544-.299-.938-.757-1.184-1.376-.245-.63-.368-1.44-.368-2.432 0-.96.128-1.739.384-2.336.256-.608.662-1.056 1.216-1.344.555-.299 1.27-.448 2.144-.448.886 0 1.6.15 2.144.448.555.288.96.736 1.216 1.344.267.597.4 1.376.4 2.336 0 .992-.122 1.803-.368 2.432-.245.619-.645 1.077-1.2 1.376-.544.299-1.274.448-2.192.448zm0-1.76c.448 0 .784-.08 1.008-.24.224-.17.374-.437.448-.8.086-.373.128-.859.128-1.456 0-.587-.048-1.05-.144-1.392-.096-.352-.256-.603-.48-.752-.224-.15-.544-.224-.96-.224-.405 0-.725.075-.96.224-.224.15-.384.4-.48.752-.096.341-.144.805-.144 1.392 0 .597.038 1.083.112 1.456.086.363.24.63.464.8.224.16.56.24 1.008.24zM103.208 40v-8.032h2.128v.512c.171-.107.379-.208.624-.304.245-.107.501-.197.768-.272.277-.075.544-.112.8-.112.555 0 1.013.075 1.376.224.373.139.667.368.88.688.213.32.368.741.464 1.264.096.512.144 1.136.144 1.872V40h-2.144v-4.048c0-.555-.032-.997-.096-1.328-.064-.341-.187-.587-.368-.736-.181-.15-.448-.224-.8-.224-.192 0-.395.021-.608.064-.203.032-.4.08-.592.144a3.12 3.12 0 00-.448.192V40h-2.128zm12.124.176c-.917 0-1.637-.139-2.16-.416-.512-.288-.875-.747-1.088-1.376-.203-.63-.304-1.456-.304-2.48 0-1.013.117-1.819.352-2.416.235-.608.613-1.04 1.136-1.296.533-.267 1.227-.4 2.08-.4.224 0 .485.016.784.048.299.032.597.075.896.128.309.043.571.085.784.128l-.08 1.712a11.083 11.083 0 00-.688-.048 19.16 19.16 0 00-.752-.048 6.642 6.642 0 00-.576-.032c-.459 0-.821.075-1.088.224-.256.139-.437.373-.544.704-.096.32-.144.752-.144 1.296 0 .587.048 1.056.144 1.408.096.352.267.603.512.752.256.15.629.224 1.12.224.149 0 .347-.005.592-.016l.752-.064c.267-.021.501-.037.704-.048l.064 1.712a14.2 14.2 0 01-.768.128c-.299.053-.603.096-.912.128a7.726 7.726 0 01-.816.048zm7.046 0c-.885 0-1.589-.15-2.112-.448-.512-.299-.88-.752-1.104-1.36-.224-.608-.336-1.37-.336-2.288 0-.992.139-1.803.416-2.432.288-.63.704-1.093 1.248-1.392.544-.31 1.216-.464 2.016-.464 1.184 0 2.075.299 2.672.896.608.597.912 1.541.912 2.832l-.096 1.184h-5.024c.011.597.133 1.045.368 1.344.235.299.64.448 1.216.448.331 0 .693-.005 1.088-.016l1.168-.064c.395-.021.731-.043 1.008-.064l.048 1.488c-.267.043-.603.09-1.008.144-.405.053-.827.096-1.264.128-.427.043-.832.064-1.216.064zm-1.408-4.832h2.992c0-.725-.117-1.232-.352-1.52-.224-.288-.592-.432-1.104-.432-.341 0-.624.064-.848.192-.224.128-.395.336-.512.624-.117.288-.176.667-.176 1.136zm12.723 4.832c-.384 0-.736-.048-1.056-.144a2.34 2.34 0 01-.848-.416 2.715 2.715 0 01-.608-.784c-.16-.32-.282-.71-.368-1.168a9.243 9.243 0 01-.128-1.632c0-.917.112-1.69.336-2.32.235-.63.603-1.104 1.104-1.424.502-.33 1.168-.496 2-.496.16 0 .347.01.56.032.214.01.422.032.624.064.203.021.368.043.496.064v-3.264h2.144V40h-2.112l-.016-.464a6.159 6.159 0 01-.592.288 5.132 5.132 0 01-.752.24 2.895 2.895 0 01-.784.112zm.544-1.792c.192 0 .384-.021.576-.064.203-.043.39-.09.56-.144.182-.064.326-.123.432-.176v-4.304a2.669 2.669 0 00-.384-.048 7.13 7.13 0 00-.496-.048 3.765 3.765 0 00-.464-.032c-.416 0-.741.096-.976.288-.224.192-.384.475-.48.848-.096.363-.144.805-.144 1.328 0 .459.032.843.096 1.152.064.299.155.539.272.72.128.17.278.293.448.368.171.075.358.112.56.112zm8.031 1.792c-.693 0-1.232-.144-1.616-.432-.373-.299-.64-.747-.8-1.344-.149-.597-.224-1.35-.224-2.256v-4.176h2.128v4.08c0 .565.027 1.013.08 1.344.064.33.187.565.368.704s.443.208.784.208c.331 0 .64-.043.928-.128.288-.085.517-.17.688-.256v-5.952h2.128V40h-2.112v-.496a7.022 7.022 0 01-1.088.496c-.352.117-.773.176-1.264.176zM152.294 40v-6.256h-.8v-1.776h.8v-.464c0-.757.069-1.355.208-1.792.149-.437.4-.747.752-.928.352-.181.826-.272 1.424-.272.17 0 .373.01.608.032.245.01.48.027.704.048.224.021.394.043.512.064l-.016 1.632h-.576c-.203-.01-.379-.016-.528-.016-.235 0-.427.037-.576.112a.66.66 0 00-.304.368c-.054.17-.08.416-.08.736v.48h1.92v1.776h-1.92V40h-2.128zm5.149 0v-8.032h2.128V40h-2.128zm0-9.312v-1.824h2.144v1.824h-2.144zm3.97 9.312V28.688h2.128V40h-2.128zm3.951 0v-8.032h2.128v.512c.16-.107.363-.208.608-.304.246-.107.502-.197.768-.272.278-.075.544-.112.8-.112.491 0 .891.07 1.2.208.31.128.566.32.768.576.192-.117.432-.235.72-.352.288-.117.603-.219.944-.304a4.09 4.09 0 01.992-.128c.587 0 1.067.08 1.44.24.384.15.683.39.896.72.214.32.363.736.448 1.248.086.501.128 1.11.128 1.824V40h-2.128v-3.984c0-.555-.032-1.003-.096-1.344-.053-.352-.17-.608-.352-.768-.17-.16-.432-.24-.784-.24-.192 0-.394.021-.608.064a3.225 3.225 0 00-1.008.32c.054.224.091.512.112.864.032.352.048.72.048 1.104V40h-2.128v-3.952c0-.565-.032-1.024-.096-1.376-.053-.352-.17-.608-.352-.768-.181-.16-.442-.24-.784-.24a2.87 2.87 0 00-.592.064c-.192.032-.373.08-.544.144-.16.064-.293.123-.4.176V40h-2.128z" fill="#C63F3E"/></svg>