<svg width="363" height="68" fill="none" xmlns="http://www.w3.org/2000/svg"><rect width="363" height="68" rx="18" fill="#EAA7C7"/><path d="M344.707 34.707a1 1 0 000-1.414l-6.364-6.364a1 1 0 10-1.414 1.414L342.586 34l-5.657 5.657a1 1 0 101.414 1.414l6.364-6.364zM316 34v1h28v-2h-28v1zM22.8 40l-2.608-10.928h2.32l1.872 8.8h.656l1.84-8.8h2.32L26.64 40H22.8zm9.874.176c-.693 0-1.232-.144-1.616-.432-.373-.299-.64-.747-.8-1.344-.149-.597-.224-1.35-.224-2.256v-4.176h2.128v4.08c0 .565.027 1.013.08 1.344.064.33.187.565.368.704.182.139.443.208.784.208.331 0 .64-.043.928-.128.288-.085.518-.17.688-.256v-5.952h2.128V40h-2.112v-.496a7.026 7.026 0 01-1.088.496c-.352.117-.773.176-1.264.176zM38.96 40V28.688h2.128V40H38.96zm7.487 3.664c-.853 0-1.568-.064-2.144-.192-.565-.128-.992-.363-1.28-.704-.288-.33-.432-.81-.432-1.44 0-.277.038-.528.112-.752.086-.213.214-.416.384-.608a5.52 5.52 0 01.672-.592 1.168 1.168 0 01-.368-.464 1.834 1.834 0 01-.128-.688c0-.085.038-.197.112-.336.075-.15.166-.304.272-.464.107-.16.208-.304.304-.432a2.207 2.207 0 01-.608-.416 2.254 2.254 0 01-.48-.768c-.117-.32-.176-.73-.176-1.232 0-.683.128-1.227.384-1.632.267-.405.65-.699 1.152-.88.502-.181 1.11-.272 1.824-.272.278 0 .576.021.896.064.32.043.576.085.768.128l2.608-.048v1.44l-1.216-.016c.096.128.182.293.256.496.086.192.128.432.128.72 0 .736-.128 1.307-.384 1.712-.245.405-.618.688-1.12.848-.501.15-1.136.224-1.904.224-.085 0-.202-.005-.352-.016-.15-.021-.272-.037-.368-.048-.042.107-.085.23-.128.368a1.017 1.017 0 00-.064.272c0 .117.022.208.064.272a.592.592 0 00.272.16c.139.032.336.053.592.064.267.01.619.016 1.056.016.758 0 1.36.07 1.808.208.459.139.784.384.976.736.192.352.288.848.288 1.488 0 .95-.336 1.648-1.008 2.096-.661.459-1.584.688-2.768.688zm-.112-1.584c.662 0 1.136-.08 1.424-.24.299-.15.448-.4.448-.752 0-.277-.053-.48-.16-.608-.096-.128-.261-.213-.496-.256a7.484 7.484 0 00-.96-.048c-.106 0-.234-.005-.384-.016-.15 0-.304-.005-.464-.016-.15 0-.288-.005-.416-.016a3.167 3.167 0 00-.256-.016c-.15.107-.272.208-.368.304-.085.096-.15.192-.192.288a1.347 1.347 0 00-.048.384c0 .245.059.437.176.576.118.15.31.256.576.32.278.064.65.096 1.12.096zm-.272-6.224c.49 0 .838-.096 1.04-.288.214-.203.32-.533.32-.992 0-.459-.106-.79-.32-.992-.202-.203-.55-.304-1.04-.304-.47 0-.81.101-1.024.304-.202.203-.304.533-.304.992 0 .459.102.79.304.992.214.192.555.288 1.024.288zm7.475 4.32c-.831 0-1.46-.208-1.887-.624-.417-.427-.625-1.067-.625-1.92 0-.597.107-1.061.32-1.392.214-.341.529-.587.945-.736.426-.16.944-.256 1.552-.288l1.951-.176v-.48c0-.384-.095-.65-.287-.8-.192-.16-.475-.24-.849-.24-.298 0-.645.01-1.04.032-.384.021-.768.048-1.151.08-.374.032-.7.064-.977.096l-.064-1.504c.278-.064.608-.128.992-.192.395-.075.806-.133 1.233-.176.426-.043.82-.064 1.183-.064.683 0 1.254.085 1.712.256.46.17.806.453 1.04.848.235.384.352.907.352 1.568v3.664a.48.48 0 00.24.352c.14.075.3.128.48.16l-.047 1.472h-.512c-.16.01-.315.01-.464 0-.15 0-.283-.01-.4-.032a1.878 1.878 0 01-.64-.192 1.908 1.908 0 01-.416-.304c-.171.075-.4.16-.689.256a7.164 7.164 0 01-.944.24c-.33.064-.666.096-1.008.096zm.513-1.584c.202 0 .416-.021.64-.064.223-.043.431-.09.623-.144.203-.064.363-.123.48-.176v-1.84l-1.631.144c-.352.032-.608.139-.768.32-.15.17-.225.416-.225.736s.07.57.209.752c.149.181.373.272.672.272zM59.818 40v-8.032h2.128v.944c.18-.139.405-.283.672-.432.266-.16.554-.304.863-.432.32-.139.625-.23.913-.272v2.064a5.08 5.08 0 00-.88.224 9.445 9.445 0 00-1.569.64V40h-2.127zm5.687 0v-8.032h2.128V40h-2.128zm0-9.312v-1.824h2.144v1.824h-2.144zm6.802 9.488c-.352 0-.73-.021-1.136-.064a15.418 15.418 0 01-2-.288l.064-1.584c.278.032.587.07.928.112.352.043.694.08 1.024.112.342.021.619.032.832.032.32 0 .582-.027.784-.08.214-.053.374-.139.48-.256.107-.128.16-.31.16-.544 0-.181-.048-.32-.144-.416-.085-.096-.256-.176-.512-.24a8.494 8.494 0 00-1.088-.224c-.597-.085-1.093-.208-1.488-.368-.384-.16-.666-.395-.848-.704-.181-.32-.272-.752-.272-1.296 0-.661.144-1.179.432-1.552a2.262 2.262 0 011.152-.784 4.93 4.93 0 011.568-.24c.374 0 .758.021 1.152.064.395.032.768.075 1.12.128.352.053.646.107.88.16l-.064 1.616c-.266-.043-.576-.08-.928-.112a17.59 17.59 0 00-1.92-.128c-.245 0-.464.027-.656.08a.89.89 0 00-.448.224c-.096.107-.144.267-.144.48 0 .15.043.272.128.368.086.096.246.181.48.256a9.85 9.85 0 001.056.192c.662.096 1.19.23 1.584.4.395.17.678.416.848.736.182.32.272.752.272 1.296 0 .64-.128 1.152-.384 1.536-.256.384-.63.661-1.12.832-.49.17-1.088.256-1.792.256zm6.794 0c-.832 0-1.461-.208-1.888-.624-.416-.427-.624-1.067-.624-1.92 0-.597.107-1.061.32-1.392.213-.341.528-.587.944-.736.427-.16.944-.256 1.552-.288l1.952-.176v-.48c0-.384-.096-.65-.288-.8-.192-.16-.475-.24-.848-.24-.299 0-.645.01-1.04.032-.384.021-.768.048-1.152.08-.373.032-.699.064-.976.096l-.064-1.504c.277-.064.608-.128.992-.192.395-.075.805-.133 1.232-.176.427-.043.821-.064 1.184-.064.683 0 1.253.085 1.712.256.459.17.805.453 1.04.848.235.384.352.907.352 1.568v3.664a.48.48 0 00.24.352c.139.075.299.128.48.16l-.048 1.472h-.512c-.16.01-.315.01-.464 0-.15 0-.283-.01-.4-.032a1.878 1.878 0 01-.64-.192 1.908 1.908 0 01-.416-.304c-.17.075-.4.16-.688.256a7.164 7.164 0 01-.944.24c-.33.064-.667.096-1.008.096zm.512-1.584c.203 0 .416-.021.64-.064.224-.043.432-.09.624-.144.203-.064.363-.123.48-.176v-1.84l-1.632.144c-.352.032-.608.139-.768.32-.15.17-.224.416-.224.736s.07.57.208.752c.15.181.373.272.672.272zm8.49 1.6c-.587 0-1.062-.085-1.425-.256-.362-.17-.624-.464-.784-.88-.15-.427-.224-1.019-.224-1.776v-3.536h-.944v-1.776h.944V29.84h2.128v2.128h2.048v1.776h-2.048v2.976c0 .416.016.741.048.976.043.235.128.4.256.496.128.096.326.144.592.144.075 0 .187-.005.336-.016l.448-.032c.15-.01.272-.021.368-.032l.064 1.712a14.37 14.37 0 01-1.264.176 3.762 3.762 0 01-.544.048zM91.035 40v-8.032h2.128V40h-2.128zm0-9.312v-1.824h2.144v1.824h-2.144zm7.362 9.488c-.906 0-1.637-.15-2.191-.448-.544-.299-.94-.757-1.184-1.376-.246-.63-.368-1.44-.368-2.432 0-.96.127-1.739.383-2.336.257-.608.662-1.056 1.216-1.344.555-.299 1.27-.448 2.144-.448.886 0 1.6.15 2.145.448.554.288.96.736 1.216 1.344.266.597.4 1.376.4 2.336 0 .992-.123 1.803-.368 2.432-.246.619-.646 1.077-1.2 1.376-.544.299-1.275.448-2.192.448zm0-1.76c.449 0 .785-.08 1.008-.24.224-.17.374-.437.448-.8.086-.373.129-.859.129-1.456 0-.587-.049-1.05-.145-1.392-.095-.352-.255-.603-.48-.752-.224-.15-.544-.224-.96-.224-.405 0-.725.075-.96.224-.224.15-.383.4-.48.752-.096.341-.144.805-.144 1.392 0 .597.038 1.083.113 1.456.085.363.24.63.463.8.225.16.56.24 1.008.24zM103.614 40v-8.032h2.128v.512c.171-.107.379-.208.624-.304.246-.107.502-.197.768-.272.278-.075.544-.112.8-.112.555 0 1.014.075 1.376.224.374.139.667.368.88.688.214.32.368.741.464 1.264.096.512.144 1.136.144 1.872V40h-2.144v-4.048c0-.555-.032-.997-.096-1.328-.064-.341-.186-.587-.368-.736-.181-.15-.448-.224-.8-.224-.192 0-.394.021-.608.064-.202.032-.4.08-.592.144a3.17 3.17 0 00-.448.192V40h-2.128zm15.033.176c-.384 0-.736-.048-1.056-.144a2.332 2.332 0 01-.848-.416 2.681 2.681 0 01-.608-.784c-.16-.32-.283-.71-.368-1.168a9.149 9.149 0 01-.128-1.632c0-.917.112-1.69.336-2.32.234-.63.602-1.104 1.104-1.424.501-.33 1.168-.496 2-.496.16 0 .346.01.56.032.213.01.421.032.624.064.202.021.368.043.496.064v-3.264h2.144V40h-2.112l-.016-.464c-.15.085-.347.181-.592.288a5.21 5.21 0 01-.752.24 2.9 2.9 0 01-.784.112zm.544-1.792c.192 0 .384-.021.575-.064.203-.043.39-.09.561-.144.181-.064.325-.123.432-.176v-4.304a2.669 2.669 0 00-.384-.048 7.19 7.19 0 00-.496-.048 3.791 3.791 0 00-.464-.032c-.416 0-.742.096-.976.288-.224.192-.384.475-.48.848-.096.363-.144.805-.144 1.328 0 .459.032.843.096 1.152.064.299.154.539.272.72.128.17.277.293.448.368.17.075.357.112.56.112zm8.718 1.792c-.885 0-1.589-.15-2.112-.448-.512-.299-.88-.752-1.104-1.36-.224-.608-.336-1.37-.336-2.288 0-.992.139-1.803.416-2.432.288-.63.704-1.093 1.248-1.392.544-.31 1.216-.464 2.016-.464 1.184 0 2.075.299 2.672.896.608.597.912 1.541.912 2.832l-.096 1.184h-5.024c.011.597.134 1.045.368 1.344.235.299.64.448 1.216.448.331 0 .694-.005 1.088-.016l1.168-.064c.395-.021.731-.043 1.008-.064l.048 1.488c-.266.043-.602.09-1.008.144-.405.053-.826.096-1.264.128-.426.043-.832.064-1.216.064zm-1.408-4.832h2.992c0-.725-.117-1.232-.352-1.52-.224-.288-.592-.432-1.104-.432-.341 0-.624.064-.848.192-.224.128-.394.336-.512.624-.117.288-.176.667-.176 1.136zm12.916 4.832c-.352 0-.731-.021-1.136-.064a15.273 15.273 0 01-2-.288l.064-1.584c.277.032.586.07.928.112.352.043.693.08 1.024.112.341.021.618.032.832.032.32 0 .581-.027.784-.08.213-.053.373-.139.48-.256.106-.128.16-.31.16-.544 0-.181-.048-.32-.144-.416-.086-.096-.256-.176-.512-.24a8.517 8.517 0 00-1.088-.224c-.598-.085-1.094-.208-1.488-.368-.384-.16-.667-.395-.848-.704-.182-.32-.272-.752-.272-1.296 0-.661.144-1.179.432-1.552a2.262 2.262 0 011.152-.784c.48-.16 1.002-.24 1.568-.24.373 0 .757.021 1.152.064.394.032.768.075 1.12.128.352.053.645.107.88.16l-.064 1.616c-.267-.043-.576-.08-.928-.112a17.59 17.59 0 00-1.92-.128c-.246 0-.464.027-.656.08a.887.887 0 00-.448.224c-.096.107-.144.267-.144.48 0 .15.042.272.128.368.085.096.245.181.48.256.245.064.597.128 1.056.192.661.096 1.189.23 1.584.4.394.17.677.416.848.736.181.32.272.752.272 1.296 0 .64-.128 1.152-.384 1.536-.256.384-.63.661-1.12.832-.491.17-1.088.256-1.792.256zm6.793 0c-.832 0-1.461-.208-1.888-.624-.416-.427-.624-1.067-.624-1.92 0-.597.107-1.061.32-1.392.214-.341.528-.587.944-.736.427-.16.944-.256 1.552-.288l1.952-.176v-.48c0-.384-.096-.65-.288-.8-.192-.16-.474-.24-.848-.24-.298 0-.645.01-1.04.032-.384.021-.768.048-1.152.08-.373.032-.698.064-.976.096l-.064-1.504c.278-.064.608-.128.992-.192a14.32 14.32 0 011.232-.176c.427-.043.822-.064 1.184-.064.683 0 1.254.085 1.712.256.459.17.806.453 1.04.848.235.384.352.907.352 1.568v3.664c.022.15.102.267.24.352.139.075.299.128.48.16l-.048 1.472h-.512c-.16.01-.314.01-.464 0-.149 0-.282-.01-.4-.032a1.885 1.885 0 01-.64-.192 1.932 1.932 0 01-.416-.304c-.17.075-.4.16-.688.256a7.136 7.136 0 01-.944.24c-.33.064-.666.096-1.008.096zm.512-1.584c.203 0 .416-.021.64-.064.224-.043.432-.09.624-.144a4.39 4.39 0 00.48-.176v-1.84l-1.632.144c-.352.032-.608.139-.768.32-.149.17-.224.416-.224.736s.07.57.208.752c.15.181.374.272.672.272zm12.068 1.6c-.587 0-1.062-.085-1.424-.256-.363-.17-.624-.464-.784-.88-.15-.427-.224-1.019-.224-1.776v-3.536h-.944v-1.776h.944V29.84h2.128v2.128h2.048v1.776h-2.048v2.976c0 .416.016.741.048.976.042.235.128.4.256.496.128.096.325.144.592.144.074 0 .186-.005.336-.016l.448-.032c.149-.01.272-.021.368-.032l.064 1.712a14.37 14.37 0 01-1.264.176 3.772 3.772 0 01-.544.048zm2.934-.192V28.688h2.128v3.568c.181-.064.394-.128.64-.192.256-.075.517-.139.784-.192.277-.053.528-.08.752-.08.565 0 1.029.075 1.392.224.373.139.666.368.88.688.213.31.362.72.448 1.232.096.512.144 1.13.144 1.856V40h-2.144v-4.048c0-.555-.032-.997-.096-1.328-.064-.341-.187-.587-.368-.736-.171-.15-.438-.224-.8-.224-.192 0-.39.016-.592.048a5.288 5.288 0 00-1.04.272V40h-2.128zm12.092.176c-.886 0-1.59-.15-2.112-.448-.512-.299-.88-.752-1.104-1.36-.224-.608-.336-1.37-.336-2.288 0-.992.138-1.803.416-2.432.288-.63.704-1.093 1.248-1.392.544-.31 1.216-.464 2.016-.464 1.184 0 2.074.299 2.672.896.608.597.912 1.541.912 2.832l-.096 1.184h-5.024c.01.597.133 1.045.368 1.344.234.299.64.448 1.216.448.33 0 .693-.005 1.088-.016l1.168-.064c.394-.021.73-.043 1.008-.064l.048 1.488c-.267.043-.603.09-1.008.144-.406.053-.827.096-1.264.128-.427.043-.832.064-1.216.064zm-1.408-4.832h2.992c0-.725-.118-1.232-.352-1.52-.224-.288-.592-.432-1.104-.432-.342 0-.624.064-.848.192-.224.128-.395.336-.512.624-.118.288-.176.667-.176 1.136zm.592-4.576l-.928-1.2 3.12-1.584 1.216 1.616L173 30.768zm9.399 9.408c-.907 0-1.638-.15-2.192-.448-.544-.299-.939-.757-1.184-1.376-.246-.63-.368-1.44-.368-2.432 0-.96.128-1.739.384-2.336.256-.608.661-1.056 1.216-1.344.554-.299 1.269-.448 2.144-.448.885 0 1.6.15 2.144.448.554.288.96.736 1.216 1.344.266.597.4 1.376.4 2.336 0 .992-.123 1.803-.368 2.432-.246.619-.646 1.077-1.2 1.376-.544.299-1.275.448-2.192.448zm0-1.76c.448 0 .784-.08 1.008-.24.224-.17.373-.437.448-.8.085-.373.128-.859.128-1.456 0-.587-.048-1.05-.144-1.392-.096-.352-.256-.603-.48-.752-.224-.15-.544-.224-.96-.224-.406 0-.726.075-.96.224-.224.15-.384.4-.48.752-.096.341-.144.805-.144 1.392 0 .597.037 1.083.112 1.456.085.363.24.63.464.8.224.16.56.24 1.008.24zM187.614 40v-8.032h2.128v.944c.182-.139.406-.283.672-.432.267-.16.555-.304.864-.432.32-.139.624-.23.912-.272v2.064c-.277.043-.57.117-.88.224a9.55 9.55 0 00-1.568.64V40h-2.128zm5.688 0v-8.032h2.128V40h-2.128zm0-9.312v-1.824h2.144v1.824h-2.144zm7.154 9.488c-.885 0-1.589-.15-2.112-.448-.512-.299-.88-.752-1.104-1.36-.224-.608-.336-1.37-.336-2.288 0-.992.139-1.803.416-2.432.288-.63.704-1.093 1.248-1.392.544-.31 1.216-.464 2.016-.464 1.184 0 2.075.299 2.672.896.608.597.912 1.541.912 2.832l-.096 1.184h-5.024c.011.597.133 1.045.368 1.344.235.299.64.448 1.216.448.331 0 .693-.005 1.088-.016l1.168-.064c.395-.021.731-.043 1.008-.064l.048 1.488c-.267.043-.603.09-1.008.144-.405.053-.827.096-1.264.128-.427.043-.832.064-1.216.064zm-1.408-4.832h2.992c0-.725-.117-1.232-.352-1.52-.224-.288-.592-.432-1.104-.432-.341 0-.624.064-.848.192-.224.128-.395.336-.512.624-.117.288-.176.667-.176 1.136z" fill="#C63F3E"/></svg>