<svg width="363" height="68" fill="none" xmlns="http://www.w3.org/2000/svg"><rect width="363" height="68" rx="18" fill="#9ED6DF"/><path d="M344.707 34.707a1 1 0 000-1.414l-6.364-6.364a1 1 0 10-1.414 1.414L342.586 34l-5.657 5.657a1 1 0 101.414 1.414l6.364-6.364zM316 34v1h28v-2h-28v1zM21.008 40V29.072h2.208v4.56h4.24v-4.56h2.208V40h-2.208v-4.512h-4.24V40h-2.208zm10.544 0v-8.032h2.128V40h-2.128zm0-9.312v-1.824h2.144v1.824h-2.144zm6.61 9.488c-.384 0-.736-.048-1.056-.144a2.335 2.335 0 01-.848-.416 2.7 2.7 0 01-.608-.784c-.16-.32-.282-.71-.368-1.168a9.215 9.215 0 01-.128-1.632c0-.917.112-1.69.336-2.32.235-.63.603-1.104 1.104-1.424.502-.33 1.168-.496 2-.496.16 0 .347.01.56.032.213.01.421.032.624.064.203.021.368.043.496.064v-3.264h2.144V40h-2.112l-.016-.464c-.15.085-.346.181-.592.288a5.166 5.166 0 01-.752.24 2.898 2.898 0 01-.784.112zm.544-1.792c.192 0 .384-.021.576-.064.203-.043.39-.09.56-.144a3.91 3.91 0 00.432-.176v-4.304a2.669 2.669 0 00-.384-.048 7.148 7.148 0 00-.496-.048 3.777 3.777 0 00-.464-.032c-.416 0-.741.096-.976.288-.224.192-.384.475-.48.848-.096.363-.144.805-.144 1.328 0 .459.032.843.096 1.152.064.299.155.539.272.72.128.17.277.293.448.368.17.075.358.112.56.112zm8.175 1.792c-.384 0-.736-.048-1.056-.144a2.334 2.334 0 01-.848-.416 2.696 2.696 0 01-.608-.784c-.16-.32-.283-.71-.368-1.168a9.205 9.205 0 01-.128-1.632c0-.917.112-1.69.336-2.32.234-.63.602-1.104 1.104-1.424.501-.33 1.168-.496 2-.496.16 0 .346.01.56.032.213.01.421.032.624.064.203.021.368.043.496.064v-3.264h2.144V40h-2.112l-.016-.464a6.29 6.29 0 01-.592.288 5.174 5.174 0 01-.752.24 2.899 2.899 0 01-.784.112zm.544-1.792c.192 0 .384-.021.576-.064.203-.043.39-.09.56-.144.181-.064.325-.123.432-.176v-4.304a2.669 2.669 0 00-.384-.048 7.154 7.154 0 00-.496-.048 3.78 3.78 0 00-.464-.032c-.416 0-.742.096-.976.288-.224.192-.384.475-.48.848-.096.363-.144.805-.144 1.328 0 .459.032.843.096 1.152.064.299.154.539.272.72.128.17.277.293.448.368.17.075.357.112.56.112zm8.719 1.792c-.886 0-1.59-.15-2.112-.448-.512-.299-.88-.752-1.104-1.36-.224-.608-.336-1.37-.336-2.288 0-.992.138-1.803.416-2.432.288-.63.704-1.093 1.248-1.392.544-.31 1.216-.464 2.016-.464 1.184 0 2.074.299 2.672.896.608.597.912 1.541.912 2.832l-.096 1.184h-5.024c.01.597.133 1.045.368 1.344.234.299.64.448 1.216.448.33 0 .693-.005 1.088-.016l1.168-.064c.394-.021.73-.043 1.008-.064l.048 1.488c-.267.043-.603.09-1.008.144-.406.053-.827.096-1.264.128-.427.043-.832.064-1.216.064zm-1.408-4.832h2.992c0-.725-.118-1.232-.352-1.52-.224-.288-.592-.432-1.104-.432-.342 0-.624.064-.848.192-.224.128-.395.336-.512.624-.118.288-.176.667-.176 1.136zM61.27 40v-8.032h2.128v.512c.17-.107.378-.208.624-.304.245-.107.501-.197.768-.272.277-.075.544-.112.8-.112.554 0 1.013.075 1.376.224.373.139.666.368.88.688.213.32.368.741.464 1.264.096.512.144 1.136.144 1.872V40H66.31v-4.048c0-.555-.032-.997-.096-1.328-.064-.341-.187-.587-.368-.736-.182-.15-.448-.224-.8-.224-.192 0-.395.021-.608.064-.203.032-.4.08-.592.144-.182.064-.331.128-.448.192V40H61.27zm12.648 0v-6.256h-.8v-1.776h.8v-.464c0-.757.07-1.355.208-1.792.15-.437.4-.747.752-.928.352-.181.826-.272 1.424-.272.17 0 .373.01.608.032.245.01.48.027.704.048.224.021.394.043.512.064l-.016 1.632h-.576c-.203-.01-.379-.016-.528-.016-.235 0-.427.037-.576.112a.66.66 0 00-.304.368c-.054.17-.08.416-.08.736v.48h1.92v1.776h-1.92V40h-2.128zm5.148 0v-8.032h2.129V40h-2.129zm0-9.312v-1.824h2.145v1.824h-2.145zm7.443 12.976c-.854 0-1.568-.064-2.144-.192-.566-.128-.992-.363-1.28-.704-.288-.33-.432-.81-.432-1.44 0-.277.037-.528.112-.752.085-.213.213-.416.384-.608a5.52 5.52 0 01.672-.592 1.168 1.168 0 01-.368-.464 1.834 1.834 0 01-.128-.688c0-.085.037-.197.112-.336.074-.15.165-.304.272-.464.106-.16.208-.304.304-.432a2.207 2.207 0 01-.608-.416 2.254 2.254 0 01-.48-.768c-.118-.32-.176-.73-.176-1.232 0-.683.128-1.227.384-1.632.266-.405.65-.699 1.152-.88.501-.181 1.11-.272 1.824-.272.277 0 .576.021.896.064.32.043.576.085.768.128l2.608-.048v1.44l-1.216-.016c.096.128.181.293.256.496.085.192.128.432.128.72 0 .736-.128 1.307-.384 1.712-.246.405-.619.688-1.12.848-.502.15-1.136.224-1.904.224-.086 0-.203-.005-.352-.016-.15-.021-.272-.037-.368-.048-.043.107-.086.23-.128.368a1.017 1.017 0 00-.064.272c0 .117.021.208.064.272a.592.592 0 00.272.16c.138.032.336.053.592.064.266.01.618.016 1.056.016.757 0 1.36.07 1.808.208.458.139.784.384.976.736.192.352.288.848.288 1.488 0 .95-.336 1.648-1.008 2.096-.662.459-1.584.688-2.768.688zm-.112-1.584c.661 0 1.136-.08 1.424-.24.298-.15.448-.4.448-.752 0-.277-.054-.48-.16-.608-.096-.128-.262-.213-.496-.256a7.484 7.484 0 00-.96-.048c-.107 0-.235-.005-.384-.016-.15 0-.304-.005-.464-.016-.15 0-.288-.005-.416-.016a3.167 3.167 0 00-.256-.016c-.15.107-.272.208-.368.304-.086.096-.15.192-.192.288a1.347 1.347 0 00-.048.384c0 .245.058.437.176.576.117.15.31.256.576.32.277.064.65.096 1.12.096zm-.272-6.224c.49 0 .837-.096 1.04-.288.213-.203.32-.533.32-.992 0-.459-.107-.79-.32-.992-.203-.203-.55-.304-1.04-.304-.47 0-.81.101-1.024.304-.203.203-.304.533-.304.992 0 .459.101.79.304.992.213.192.554.288 1.024.288zm7.939 4.32c-.693 0-1.232-.144-1.616-.432-.373-.299-.64-.747-.8-1.344-.15-.597-.224-1.35-.224-2.256v-4.176h2.128v4.08c0 .565.027 1.013.08 1.344.064.33.187.565.368.704s.443.208.784.208c.33 0 .64-.043.928-.128.288-.085.517-.17.688-.256v-5.952h2.128V40h-2.112v-.496a7.022 7.022 0 01-1.088.496c-.352.117-.773.176-1.264.176zm6.221-.176v-8.032h2.128v.944c.182-.139.406-.283.672-.432.267-.16.555-.304.864-.432.32-.139.624-.23.912-.272v2.064c-.277.043-.57.117-.88.224a9.55 9.55 0 00-1.568.64V40h-2.128zm8.842.176c-.885 0-1.589-.15-2.112-.448-.512-.299-.88-.752-1.104-1.36-.224-.608-.336-1.37-.336-2.288 0-.992.139-1.803.416-2.432.288-.63.704-1.093 1.248-1.392.544-.31 1.216-.464 2.016-.464 1.184 0 2.075.299 2.672.896.608.597.912 1.541.912 2.832l-.096 1.184h-5.024c.011.597.133 1.045.368 1.344.235.299.64.448 1.216.448.331 0 .693-.005 1.088-.016l1.168-.064c.395-.021.731-.043 1.008-.064l.048 1.488c-.267.043-.603.09-1.008.144-.405.053-.827.096-1.264.128-.427.043-.832.064-1.216.064zm-1.408-4.832h2.992c0-.725-.117-1.232-.352-1.52-.224-.288-.592-.432-1.104-.432-.341 0-.624.064-.848.192-.224.128-.395.336-.512.624-.117.288-.176.667-.176 1.136zm9.431 4.832c-.352 0-.731-.021-1.136-.064a15.434 15.434 0 01-2-.288l.064-1.584c.277.032.587.07.928.112.352.043.693.08 1.024.112.341.021.619.032.832.032.32 0 .581-.027.784-.08.213-.053.373-.139.48-.256.107-.128.16-.31.16-.544 0-.181-.048-.32-.144-.416-.085-.096-.256-.176-.512-.24a8.48 8.48 0 00-1.088-.224c-.597-.085-1.093-.208-1.488-.368-.384-.16-.667-.395-.848-.704-.181-.32-.272-.752-.272-1.296 0-.661.144-1.179.432-1.552a2.262 2.262 0 011.152-.784c.48-.16 1.003-.24 1.568-.24.373 0 .757.021 1.152.064.395.032.768.075 1.12.128.352.053.645.107.88.16l-.064 1.616c-.267-.043-.576-.08-.928-.112a17.59 17.59 0 00-1.92-.128c-.245 0-.464.027-.656.08a.892.892 0 00-.448.224c-.096.107-.144.267-.144.48 0 .15.043.272.128.368.085.096.245.181.48.256.245.064.597.128 1.056.192.661.096 1.189.23 1.584.4s.677.416.848.736c.181.32.272.752.272 1.296 0 .64-.128 1.152-.384 1.536-.256.384-.629.661-1.12.832-.491.17-1.088.256-1.792.256z" fill="#C63F3E"/></svg>