<svg width="363" height="68" fill="none" xmlns="http://www.w3.org/2000/svg"><rect width="363" height="68" rx="18" fill="#808BC5"/><path d="M344.707 34.707a1 1 0 000-1.414l-6.364-6.364a1 1 0 10-1.414 1.414L342.586 34l-5.657 5.657a1 1 0 101.414 1.414l6.364-6.364zM316 34v1h28v-2h-28v1zM25.248 40.16c-.917 0-1.675-.117-2.272-.352-.597-.245-1.067-.603-1.408-1.072-.33-.48-.565-1.067-.704-1.76-.139-.704-.208-1.515-.208-2.432 0-.97.075-1.808.224-2.512.16-.715.416-1.301.768-1.76.363-.47.832-.816 1.408-1.04.587-.235 1.307-.352 2.16-.352.437 0 .89.027 1.36.08.48.043.933.101 1.36.176.437.075.8.15 1.088.224l-.032 1.728a14.602 14.602 0 00-1.088-.144 23.95 23.95 0 00-1.28-.096 16.368 16.368 0 00-1.184-.048c-.533 0-.97.07-1.312.208-.33.139-.587.363-.768.672-.17.299-.288.688-.352 1.168-.064.47-.096 1.035-.096 1.696 0 .843.059 1.547.176 2.112.128.555.368.965.72 1.232.363.267.88.4 1.552.4a9.798 9.798 0 001.12-.064c.192-.021.352-.043.48-.064v-2.384h-1.296v-1.68h3.392v5.648c-.235.032-.517.075-.848.128-.33.043-.677.085-1.04.128-.352.043-.699.08-1.04.112-.33.032-.624.048-.88.048zm7.603.016c-.832 0-1.461-.208-1.888-.624-.416-.427-.624-1.067-.624-1.92 0-.597.107-1.061.32-1.392.213-.341.528-.587.944-.736.427-.16.944-.256 1.552-.288l1.952-.176v-.48c0-.384-.096-.65-.288-.8-.192-.16-.475-.24-.848-.24-.299 0-.645.01-1.04.032-.384.021-.768.048-1.152.08-.373.032-.699.064-.976.096l-.064-1.504c.277-.064.608-.128.992-.192.395-.075.805-.133 1.232-.176.427-.043.821-.064 1.184-.064.683 0 1.253.085 1.712.256.459.17.805.453 1.04.848.235.384.352.907.352 1.568v3.664a.48.48 0 00.24.352c.139.075.299.128.48.16l-.048 1.472h-.512c-.16.01-.315.01-.464 0-.15 0-.283-.01-.4-.032a1.878 1.878 0 01-.64-.192 1.908 1.908 0 01-.416-.304c-.17.075-.4.16-.688.256a7.164 7.164 0 01-.944.24c-.33.064-.667.096-1.008.096zm.512-1.584c.203 0 .416-.021.64-.064.224-.043.432-.09.624-.144.203-.064.363-.123.48-.176v-1.84l-1.632.144c-.352.032-.608.139-.768.32-.15.17-.224.416-.224.736s.07.57.208.752c.15.181.373.272.672.272zM39.194 40V28.688h2.128V40h-2.128zm7.2.176c-.886 0-1.59-.15-2.112-.448-.512-.299-.88-.752-1.104-1.36-.224-.608-.336-1.37-.336-2.288 0-.992.138-1.803.416-2.432.288-.63.704-1.093 1.248-1.392.544-.31 1.216-.464 2.016-.464 1.184 0 2.074.299 2.672.896.608.597.912 1.541.912 2.832l-.096 1.184h-5.024c.01.597.133 1.045.368 1.344.234.299.64.448 1.216.448.33 0 .693-.005 1.088-.016l1.168-.064c.394-.021.73-.043 1.008-.064l.048 1.488c-.267.043-.603.09-1.008.144-.406.053-.827.096-1.264.128-.427.043-.832.064-1.216.064zm-1.408-4.832h2.992c0-.725-.118-1.232-.352-1.52-.224-.288-.592-.432-1.104-.432-.342 0-.624.064-.848.192-.224.128-.395.336-.512.624-.118.288-.176.667-.176 1.136zM51.52 40v-8.032h2.128v.944c.181-.139.405-.283.672-.432.266-.16.554-.304.864-.432.32-.139.624-.23.912-.272v2.064c-.278.043-.571.117-.88.224a9.455 9.455 0 00-1.568.64V40H51.52zm5.687 0v-8.032h2.128V40h-2.128zm0-9.312v-1.824h2.144v1.824h-2.144zm7.154 9.488c-.885 0-1.589-.15-2.112-.448-.512-.299-.88-.752-1.104-1.36-.224-.608-.336-1.37-.336-2.288 0-.992.139-1.803.416-2.432.288-.63.704-1.093 1.248-1.392.544-.31 1.216-.464 2.016-.464 1.184 0 2.075.299 2.672.896.608.597.912 1.541.912 2.832l-.096 1.184h-5.024c.011.597.134 1.045.368 1.344.235.299.64.448 1.216.448.331 0 .694-.005 1.088-.016l1.168-.064c.395-.021.731-.043 1.008-.064l.048 1.488c-.266.043-.602.09-1.008.144-.405.053-.826.096-1.264.128-.426.043-.832.064-1.216.064zm-1.408-4.832h2.992c0-.725-.117-1.232-.352-1.52-.224-.288-.592-.432-1.104-.432-.341 0-.624.064-.848.192-.224.128-.394.336-.512.624-.117.288-.176.667-.176 1.136zM73.294 40v-6.256h-.8v-1.776h.8v-.464c0-.757.07-1.355.208-1.792.15-.437.4-.747.752-.928.352-.181.826-.272 1.424-.272.17 0 .373.01.608.032.245.01.48.027.704.048.224.021.394.043.512.064l-.016 1.632h-.576c-.203-.01-.379-.016-.528-.016-.235 0-.427.037-.576.112a.66.66 0 00-.304.368c-.054.17-.08.416-.08.736v.48h1.92v1.776h-1.92V40h-2.128zm5.148 0v-8.032h2.129V40h-2.129zm0-9.312v-1.824h2.145v1.824h-2.145zM82.412 40V28.688h2.129V40h-2.128zm3.952 0v-8.032h2.128v.512c.16-.107.363-.208.608-.304.246-.107.502-.197.768-.272.278-.075.544-.112.8-.112.491 0 .891.07 1.2.208.31.128.566.32.768.576.192-.117.432-.235.72-.352.288-.117.603-.219.944-.304.342-.085.672-.128.992-.128.587 0 1.067.08 1.44.24.384.15.683.39.896.72.214.32.363.736.448 1.248.086.501.128 1.11.128 1.824V40h-2.128v-3.984c0-.555-.032-1.003-.096-1.344-.053-.352-.17-.608-.352-.768-.17-.16-.432-.24-.784-.24a3.1 3.1 0 00-.608.064 3.203 3.203 0 00-1.008.32c.054.224.091.512.112.864.032.352.048.72.048 1.104V40H91.26v-3.952c0-.565-.032-1.024-.096-1.376-.053-.352-.17-.608-.352-.768-.181-.16-.442-.24-.784-.24-.192 0-.389.021-.592.064-.192.032-.373.08-.544.144-.16.064-.293.123-.4.176V40h-2.128zm16.428.176c-.352 0-.731-.021-1.136-.064a15.357 15.357 0 01-2-.288l.064-1.584c.277.032.586.07.928.112.352.043.693.08 1.024.112.341.021.618.032.832.032.32 0 .581-.027.784-.08.213-.053.373-.139.48-.256.106-.128.16-.31.16-.544 0-.181-.048-.32-.144-.416-.086-.096-.256-.176-.512-.24a8.517 8.517 0 00-1.088-.224c-.598-.085-1.094-.208-1.488-.368-.384-.16-.667-.395-.848-.704-.182-.32-.272-.752-.272-1.296 0-.661.144-1.179.432-1.552a2.262 2.262 0 011.152-.784c.48-.16 1.002-.24 1.568-.24.373 0 .757.021 1.152.064.394.032.768.075 1.12.128.352.053.645.107.88.16l-.064 1.616c-.267-.043-.576-.08-.928-.112a17.59 17.59 0 00-1.92-.128c-.246 0-.464.027-.656.08a.887.887 0 00-.448.224c-.096.107-.144.267-.144.48 0 .15.042.272.128.368.085.096.245.181.48.256.245.064.597.128 1.056.192.661.096 1.189.23 1.584.4.394.17.677.416.848.736.181.32.272.752.272 1.296 0 .64-.128 1.152-.384 1.536-.256.384-.63.661-1.12.832-.491.17-1.088.256-1.792.256z" fill="#C63F3E"/></svg>