<svg width="363" height="68" fill="none" xmlns="http://www.w3.org/2000/svg"><rect width="363" height="68" rx="18" fill="#EAC119"/><path d="M344.707 34.707a1 1 0 000-1.414l-6.364-6.364a1 1 0 10-1.414 1.414L342.586 34l-5.657 5.657a1 1 0 101.414 1.414l6.364-6.364zM316 34v1h28v-2h-28v1zM21.008 40V29.072h7.056v1.856h-4.848v3.296h3.968v1.856h-3.968V40h-2.208zm11.042.176c-.885 0-1.59-.15-2.112-.448-.512-.299-.88-.752-1.104-1.36-.224-.608-.336-1.37-.336-2.288 0-.992.139-1.803.416-2.432.288-.63.704-1.093 1.248-1.392.544-.31 1.216-.464 2.016-.464 1.184 0 2.075.299 2.672.896.608.597.912 1.541.912 2.832l-.096 1.184h-5.024c.01.597.133 1.045.368 1.344.234.299.64.448 1.216.448.33 0 .693-.005 1.088-.016l1.168-.064c.395-.021.73-.043 1.008-.064l.048 1.488c-.267.043-.603.09-1.008.144-.406.053-.827.096-1.264.128-.427.043-.832.064-1.216.064zm-1.408-4.832h2.992c0-.725-.117-1.232-.352-1.52-.224-.288-.592-.432-1.104-.432-.341 0-.624.064-.848.192-.224.128-.395.336-.512.624-.117.288-.176.667-.176 1.136zM37.177 40v-8.032h2.128v.512c.16-.107.362-.208.608-.304.245-.107.501-.197.768-.272.277-.075.544-.112.8-.112.49 0 .89.07 1.2.208.31.128.565.32.768.576.192-.117.432-.235.72-.352.288-.117.603-.219.944-.304.341-.085.672-.128.992-.128.587 0 1.067.08 1.44.24.384.15.682.39.896.72.213.32.362.736.448 1.248.085.501.128 1.11.128 1.824V40h-2.128v-3.984c0-.555-.032-1.003-.096-1.344-.053-.352-.17-.608-.352-.768-.17-.16-.432-.24-.784-.24a3.1 3.1 0 00-.608.064 3.203 3.203 0 00-1.008.32c.053.224.09.512.112.864.032.352.048.72.048 1.104V40h-2.128v-3.952c0-.565-.032-1.024-.096-1.376-.053-.352-.17-.608-.352-.768-.181-.16-.443-.24-.784-.24-.192 0-.39.021-.592.064-.192.032-.373.08-.544.144-.16.064-.294.123-.4.176V40h-2.128zm13.531 0v-8.032h2.128v.512c.16-.107.363-.208.608-.304.245-.107.502-.197.768-.272.277-.075.544-.112.8-.112.49 0 .89.07 1.2.208.31.128.566.32.768.576.192-.117.432-.235.72-.352.288-.117.603-.219.944-.304.342-.085.672-.128.992-.128.587 0 1.067.08 1.44.24.384.15.683.39.896.72.213.32.363.736.448 1.248.085.501.128 1.11.128 1.824V40H60.42v-3.984c0-.555-.032-1.003-.096-1.344-.053-.352-.17-.608-.352-.768-.17-.16-.432-.24-.784-.24-.192 0-.395.021-.608.064a3.207 3.207 0 00-1.008.32c.053.224.09.512.112.864.032.352.048.72.048 1.104V40h-2.128v-3.952c0-.565-.032-1.024-.096-1.376-.053-.352-.17-.608-.352-.768-.181-.16-.442-.24-.784-.24-.192 0-.39.021-.592.064-.192.032-.373.08-.544.144a5.41 5.41 0 00-.4.176V40h-2.128zm16.78.176c-.886 0-1.59-.15-2.113-.448-.512-.299-.88-.752-1.104-1.36-.224-.608-.336-1.37-.336-2.288 0-.992.139-1.803.416-2.432.288-.63.704-1.093 1.248-1.392.544-.31 1.216-.464 2.016-.464 1.184 0 2.075.299 2.672.896.608.597.912 1.541.912 2.832l-.096 1.184H66.08c.011.597.134 1.045.368 1.344.235.299.64.448 1.216.448.331 0 .694-.005 1.088-.016l1.168-.064c.395-.021.731-.043 1.008-.064l.048 1.488c-.266.043-.602.09-1.008.144-.405.053-.826.096-1.264.128-.426.043-.832.064-1.216.064zm-1.409-4.832h2.992c0-.725-.117-1.232-.352-1.52-.224-.288-.592-.432-1.104-.432-.341 0-.624.064-.848.192-.224.128-.394.336-.512.624-.117.288-.176.667-.176 1.136zm9.431 4.832c-.352 0-.73-.021-1.136-.064a15.418 15.418 0 01-2-.288l.064-1.584c.278.032.587.07.928.112.352.043.694.08 1.024.112.342.021.619.032.832.032.32 0 .582-.027.784-.08.214-.053.374-.139.48-.256.107-.128.16-.31.16-.544 0-.181-.048-.32-.144-.416-.085-.096-.256-.176-.512-.24a8.494 8.494 0 00-1.088-.224c-.597-.085-1.093-.208-1.488-.368-.384-.16-.666-.395-.848-.704-.181-.32-.272-.752-.272-1.296 0-.661.144-1.179.432-1.552a2.262 2.262 0 011.152-.784 4.93 4.93 0 011.568-.24c.374 0 .758.021 1.152.064.395.032.768.075 1.12.128.352.053.646.107.88.16l-.064 1.616c-.266-.043-.576-.08-.928-.112a17.59 17.59 0 00-1.92-.128c-.245 0-.464.027-.656.08a.89.89 0 00-.448.224c-.096.107-.144.267-.144.48 0 .15.043.272.128.368.086.096.246.181.48.256a9.85 9.85 0 001.056.192c.662.096 1.19.23 1.584.4.395.17.678.416.848.736.182.32.272.752.272 1.296 0 .64-.128 1.152-.384 1.536-.256.384-.629.661-1.12.832-.49.17-1.088.256-1.792.256zm10.886 0c-.383 0-.736-.048-1.055-.144a2.334 2.334 0 01-.848-.416 2.698 2.698 0 01-.608-.784c-.16-.32-.283-.71-.369-1.168a9.215 9.215 0 01-.128-1.632c0-.917.112-1.69.337-2.32.234-.63.602-1.104 1.104-1.424.5-.33 1.168-.496 2-.496.16 0 .346.01.56.032.213.01.42.032.624.064.202.021.367.043.495.064v-3.264h2.145V40H88.54l-.016-.464c-.149.085-.346.181-.591.288a5.17 5.17 0 01-.753.24 2.899 2.899 0 01-.784.112zm.544-1.792c.192 0 .385-.021.576-.064.203-.043.39-.09.56-.144.182-.064.326-.123.433-.176v-4.304a2.669 2.669 0 00-.385-.048 7.148 7.148 0 00-.495-.048 3.778 3.778 0 00-.465-.032c-.415 0-.74.096-.975.288-.224.192-.384.475-.48.848-.097.363-.145.805-.145 1.328 0 .459.033.843.097 1.152.064.299.154.539.272.72.127.17.277.293.447.368.171.075.358.112.56.112zm8.72 1.792c-.886 0-1.59-.15-2.113-.448-.512-.299-.88-.752-1.104-1.36-.224-.608-.336-1.37-.336-2.288 0-.992.139-1.803.416-2.432.288-.63.704-1.093 1.248-1.392.544-.31 1.216-.464 2.016-.464 1.184 0 2.075.299 2.672.896.608.597.912 1.541.912 2.832l-.096 1.184h-5.024c.01.597.134 1.045.368 1.344.235.299.64.448 1.216.448.33 0 .694-.005 1.088-.016l1.168-.064c.395-.021.73-.043 1.008-.064l.048 1.488c-.266.043-.602.09-1.008.144-.405.053-.826.096-1.264.128-.426.043-.832.064-1.216.064zm-1.409-4.832h2.992c0-.725-.117-1.232-.352-1.52-.224-.288-.592-.432-1.104-.432-.341 0-.624.064-.848.192-.224.128-.394.336-.512.624-.117.288-.176.667-.176 1.136zm12.916 4.832c-.352 0-.731-.021-1.136-.064a15.273 15.273 0 01-2-.288l.064-1.584c.277.032.586.07.928.112.352.043.693.08 1.024.112.341.021.618.032.832.032.32 0 .581-.027.784-.08.213-.053.373-.139.48-.256.106-.128.16-.31.16-.544 0-.181-.048-.32-.144-.416-.086-.096-.256-.176-.512-.24a8.517 8.517 0 00-1.088-.224c-.598-.085-1.094-.208-1.488-.368-.384-.16-.667-.395-.848-.704-.182-.32-.272-.752-.272-1.296 0-.661.144-1.179.432-1.552a2.262 2.262 0 011.152-.784c.48-.16 1.002-.24 1.568-.24.373 0 .757.021 1.152.064.394.032.768.075 1.12.128.352.053.645.107.88.16l-.064 1.616c-.267-.043-.576-.08-.928-.112a17.59 17.59 0 00-1.92-.128c-.246 0-.464.027-.656.08a.887.887 0 00-.448.224c-.096.107-.144.267-.144.48 0 .15.042.272.128.368.085.096.245.181.48.256.245.064.597.128 1.056.192.661.096 1.189.23 1.584.4.394.17.677.416.848.736.181.32.272.752.272 1.296 0 .64-.128 1.152-.384 1.536-.256.384-.63.661-1.12.832-.491.17-1.088.256-1.792.256zm7.977 0c-.917 0-1.637-.139-2.16-.416-.512-.288-.874-.747-1.088-1.376-.202-.63-.304-1.456-.304-2.48 0-1.013.118-1.819.352-2.416.235-.608.614-1.04 1.136-1.296.534-.267 1.227-.4 2.08-.4.224 0 .486.016.784.048.299.032.598.075.896.128.31.043.571.085.784.128l-.08 1.712a11.028 11.028 0 00-.688-.048 19.038 19.038 0 00-.752-.048 6.601 6.601 0 00-.576-.032c-.458 0-.821.075-1.088.224-.256.139-.437.373-.544.704-.096.32-.144.752-.144 1.296 0 .587.048 1.056.144 1.408.096.352.267.603.512.752.256.15.63.224 1.12.224.15 0 .347-.005.592-.016l.752-.064c.267-.021.502-.037.704-.048l.064 1.712a14.2 14.2 0 01-.768.128c-.298.053-.602.096-.912.128-.298.032-.57.048-.816.048zm3.877-.176v-8.032h2.128V40h-2.128zm0-9.312v-1.824h2.144v1.824h-2.144zm7.154 9.488c-.885 0-1.589-.15-2.112-.448-.512-.299-.88-.752-1.104-1.36-.224-.608-.336-1.37-.336-2.288 0-.992.139-1.803.416-2.432.288-.63.704-1.093 1.248-1.392.544-.31 1.216-.464 2.016-.464 1.184 0 2.075.299 2.672.896.608.597.912 1.541.912 2.832l-.096 1.184h-5.024c.011.597.133 1.045.368 1.344.235.299.64.448 1.216.448.331 0 .693-.005 1.088-.016l1.168-.064c.395-.021.731-.043 1.008-.064l.048 1.488c-.267.043-.603.09-1.008.144-.405.053-.827.096-1.264.128-.427.043-.832.064-1.216.064zm-1.408-4.832h2.992c0-.725-.117-1.232-.352-1.52-.224-.288-.592-.432-1.104-.432-.341 0-.624.064-.848.192-.224.128-.395.336-.512.624-.117.288-.176.667-.176 1.136zM131.302 40v-8.032h2.128v.512c.171-.107.379-.208.624-.304.245-.107.501-.197.768-.272.277-.075.544-.112.8-.112.555 0 1.013.075 1.376.224.373.139.667.368.88.688.213.32.368.741.464 1.264.096.512.144 1.136.144 1.872V40h-2.144v-4.048c0-.555-.032-.997-.096-1.328-.064-.341-.187-.587-.368-.736-.181-.15-.448-.224-.8-.224-.192 0-.395.021-.608.064-.203.032-.4.08-.592.144a3.12 3.12 0 00-.448.192V40h-2.128zm12.124.176c-.918 0-1.638-.139-2.16-.416-.512-.288-.875-.747-1.088-1.376-.203-.63-.304-1.456-.304-2.48 0-1.013.117-1.819.352-2.416.234-.608.613-1.04 1.136-1.296.533-.267 1.226-.4 2.08-.4.224 0 .485.016.784.048.298.032.597.075.896.128.309.043.57.085.784.128l-.08 1.712a11.083 11.083 0 00-.688-.048 19.16 19.16 0 00-.752-.048 6.642 6.642 0 00-.576-.032c-.459 0-.822.075-1.088.224-.256.139-.438.373-.544.704-.096.32-.144.752-.144 1.296 0 .587.048 1.056.144 1.408.096.352.266.603.512.752.256.15.629.224 1.12.224.149 0 .346-.005.592-.016l.752-.064c.266-.021.501-.037.704-.048l.064 1.712c-.214.043-.47.085-.768.128-.299.053-.603.096-.912.128a7.726 7.726 0 01-.816.048zm7.046 0c-.886 0-1.59-.15-2.112-.448-.512-.299-.88-.752-1.104-1.36-.224-.608-.336-1.37-.336-2.288 0-.992.138-1.803.416-2.432.288-.63.704-1.093 1.248-1.392.544-.31 1.216-.464 2.016-.464 1.184 0 2.074.299 2.672.896.608.597.912 1.541.912 2.832l-.096 1.184h-5.024c.01.597.133 1.045.368 1.344.234.299.64.448 1.216.448.33 0 .693-.005 1.088-.016l1.168-.064c.394-.021.73-.043 1.008-.064l.048 1.488c-.267.043-.603.09-1.008.144-.406.053-.827.096-1.264.128-.427.043-.832.064-1.216.064zm-1.408-4.832h2.992c0-.725-.118-1.232-.352-1.52-.224-.288-.592-.432-1.104-.432-.342 0-.624.064-.848.192-.224.128-.395.336-.512.624-.118.288-.176.667-.176 1.136zm9.431 4.832c-.352 0-.731-.021-1.136-.064a15.273 15.273 0 01-2-.288l.064-1.584c.277.032.586.07.928.112.352.043.693.08 1.024.112.341.021.618.032.832.032.32 0 .581-.027.784-.08.213-.053.373-.139.48-.256.106-.128.16-.31.16-.544 0-.181-.048-.32-.144-.416-.086-.096-.256-.176-.512-.24a8.517 8.517 0 00-1.088-.224c-.598-.085-1.094-.208-1.488-.368-.384-.16-.667-.395-.848-.704-.182-.32-.272-.752-.272-1.296 0-.661.144-1.179.432-1.552a2.262 2.262 0 011.152-.784c.48-.16 1.002-.24 1.568-.24.373 0 .757.021 1.152.064.394.032.768.075 1.12.128.352.053.645.107.88.16l-.064 1.616c-.267-.043-.576-.08-.928-.112a17.59 17.59 0 00-1.92-.128c-.246 0-.464.027-.656.08a.887.887 0 00-.448.224c-.096.107-.144.267-.144.48 0 .15.042.272.128.368.085.096.245.181.48.256.245.064.597.128 1.056.192.661.096 1.189.23 1.584.4.394.17.677.416.848.736.181.32.272.752.272 1.296 0 .64-.128 1.152-.384 1.536-.256.384-.63.661-1.12.832-.491.17-1.088.256-1.792.256zm10.886 0c-.384 0-.736-.048-1.056-.144a2.332 2.332 0 01-.848-.416 2.698 2.698 0 01-.608-.784c-.16-.32-.283-.71-.368-1.168a9.243 9.243 0 01-.128-1.632c0-.917.112-1.69.336-2.32.235-.63.603-1.104 1.104-1.424.501-.33 1.168-.496 2-.496.16 0 .347.01.56.032.213.01.421.032.624.064.203.021.368.043.496.064v-3.264h2.144V40h-2.112l-.016-.464a6.278 6.278 0 01-.592.288 5.17 5.17 0 01-.752.24 2.9 2.9 0 01-.784.112zm.544-1.792c.192 0 .384-.021.576-.064.203-.043.389-.09.56-.144.181-.064.325-.123.432-.176v-4.304a2.669 2.669 0 00-.384-.048 7.13 7.13 0 00-.496-.048 3.778 3.778 0 00-.464-.032c-.416 0-.741.096-.976.288-.224.192-.384.475-.48.848-.096.363-.144.805-.144 1.328 0 .459.032.843.096 1.152.064.299.155.539.272.72.128.17.277.293.448.368.171.075.357.112.56.112zm5.231-5.568l.56-3.904h2.224l-1.104 3.904h-1.68zM178.02 40l2.784-10.928h3.856L187.428 40h-2.208l-.608-2.208h-3.824L180.212 40h-2.192zm3.12-3.984h3.152l-1.232-5.152h-.672l-1.248 5.152zM188.505 40v-8.032h2.128v.512c.171-.107.379-.208.624-.304.245-.107.501-.197.768-.272.277-.075.544-.112.8-.112.555 0 1.013.075 1.376.224.373.139.667.368.88.688.213.32.368.741.464 1.264.096.512.144 1.136.144 1.872V40h-2.144v-4.048c0-.555-.032-.997-.096-1.328-.064-.341-.187-.587-.368-.736-.181-.15-.448-.224-.8-.224-.192 0-.395.021-.608.064-.203.032-.4.08-.592.144a3.12 3.12 0 00-.448.192V40h-2.128zm8.844 0v-8.032h2.128v.512c.17-.107.378-.208.624-.304.245-.107.501-.197.768-.272.277-.075.544-.112.8-.112.554 0 1.013.075 1.376.224.373.139.666.368.88.688.213.32.368.741.464 1.264.096.512.144 1.136.144 1.872V40h-2.144v-4.048c0-.555-.032-.997-.096-1.328-.064-.341-.187-.587-.368-.736-.182-.15-.448-.224-.8-.224-.192 0-.395.021-.608.064-.203.032-.4.08-.592.144a3.072 3.072 0 00-.448.192V40h-2.128zm10.94.176c-.832 0-1.462-.208-1.888-.624-.416-.427-.624-1.067-.624-1.92 0-.597.106-1.061.32-1.392.213-.341.528-.587.944-.736.426-.16.944-.256 1.552-.288l1.952-.176v-.48c0-.384-.096-.65-.288-.8-.192-.16-.475-.24-.848-.24-.299 0-.646.01-1.04.032-.384.021-.768.048-1.152.08-.374.032-.699.064-.976.096l-.064-1.504c.277-.064.608-.128.992-.192.394-.075.805-.133 1.232-.176.426-.043.821-.064 1.184-.064.682 0 1.253.085 1.712.256.458.17.805.453 1.04.848.234.384.352.907.352 1.568v3.664c.021.15.101.267.24.352.138.075.298.128.48.16l-.048 1.472h-.512c-.16.01-.315.01-.464 0-.15 0-.283-.01-.4-.032a1.871 1.871 0 01-.64-.192 1.884 1.884 0 01-.416-.304 8.5 8.5 0 01-.688.256 7.176 7.176 0 01-.944.24 5.298 5.298 0 01-1.008.096zm.512-1.584c.202 0 .416-.021.64-.064.224-.043.432-.09.624-.144.202-.064.362-.123.48-.176v-1.84l-1.632.144c-.352.032-.608.139-.768.32-.15.17-.224.416-.224.736s.069.57.208.752c.149.181.373.272.672.272zm13.315 1.584c-.853 0-1.557-.107-2.112-.32a2.875 2.875 0 01-1.296-1.024c-.32-.459-.544-1.04-.672-1.744-.117-.715-.176-1.563-.176-2.544 0-.992.059-1.84.176-2.544.128-.715.352-1.301.672-1.76.32-.459.757-.8 1.312-1.024.565-.224 1.285-.336 2.16-.336a10 10 0 011.104.064c.384.043.752.096 1.104.16.363.053.672.112.928.176l-.064 1.76a8.477 8.477 0 00-.8-.112 14.497 14.497 0 00-1.904-.128c-.512 0-.928.064-1.248.192-.32.128-.571.341-.752.64-.171.299-.288.688-.352 1.168-.064.47-.096 1.05-.096 1.744 0 .683.032 1.264.096 1.744.064.47.181.853.352 1.152.171.288.416.501.736.64.331.128.757.192 1.28.192.427 0 .896-.021 1.408-.064.523-.053.955-.101 1.296-.144l.048 1.744c-.256.053-.56.112-.912.176-.352.053-.725.096-1.12.128-.395.043-.784.064-1.168.064zm6.673 0c-.832 0-1.462-.208-1.888-.624-.416-.427-.624-1.067-.624-1.92 0-.597.106-1.061.32-1.392.213-.341.528-.587.944-.736.426-.16.944-.256 1.552-.288l1.952-.176v-.48c0-.384-.096-.65-.288-.8-.192-.16-.475-.24-.848-.24-.299 0-.646.01-1.04.032-.384.021-.768.048-1.152.08-.374.032-.699.064-.976.096l-.064-1.504c.277-.064.608-.128.992-.192.394-.075.805-.133 1.232-.176.426-.043.821-.064 1.184-.064.682 0 1.253.085 1.712.256.458.17.805.453 1.04.848.234.384.352.907.352 1.568v3.664c.021.15.101.267.24.352.138.075.298.128.48.16l-.048 1.472h-.512c-.16.01-.315.01-.464 0-.15 0-.283-.01-.4-.032a1.871 1.871 0 01-.64-.192 1.884 1.884 0 01-.416-.304 8.5 8.5 0 01-.688.256 7.176 7.176 0 01-.944.24 5.298 5.298 0 01-1.008.096zm.512-1.584c.202 0 .416-.021.64-.064.224-.043.432-.09.624-.144.202-.064.362-.123.48-.176v-1.84l-1.632.144c-.352.032-.608.139-.768.32-.15.17-.224.416-.224.736s.069.57.208.752c.149.181.373.272.672.272zm8.967 1.584c-.267 0-.592-.01-.976-.032a23.956 23.956 0 01-1.184-.096c-.395-.043-.747-.08-1.056-.112V28.688h2.144v3.536c.16-.064.357-.128.592-.192.234-.064.48-.117.736-.16.266-.053.512-.08.736-.08.746 0 1.338.155 1.776.464.448.299.768.747.96 1.344.192.597.288 1.35.288 2.256 0 1.067-.123 1.92-.368 2.56-.235.63-.646 1.083-1.232 1.36-.587.267-1.392.4-2.416.4zm.016-1.792c.522 0 .912-.09 1.168-.272.256-.192.426-.475.512-.848.096-.373.144-.832.144-1.376 0-.555-.043-.997-.128-1.328-.086-.341-.23-.587-.432-.736-.192-.16-.464-.24-.816-.24-.171 0-.352.021-.544.064a4.742 4.742 0 00-.56.128 4.381 4.381 0 00-.432.128v4.416c.16.01.346.027.56.048.213.01.389.016.528.016zm7.567 1.792c-.832 0-1.461-.208-1.888-.624-.416-.427-.624-1.067-.624-1.92 0-.597.107-1.061.32-1.392.213-.341.528-.587.944-.736.427-.16.944-.256 1.552-.288l1.952-.176v-.48c0-.384-.096-.65-.288-.8-.192-.16-.475-.24-.848-.24-.299 0-.645.01-1.04.032-.384.021-.768.048-1.152.08-.373.032-.699.064-.976.096l-.064-1.504c.277-.064.608-.128.992-.192.395-.075.805-.133 1.232-.176.427-.043.821-.064 1.184-.064.683 0 1.253.085 1.712.256.459.17.805.453 1.04.848.235.384.352.907.352 1.568v3.664c.021.15.101.267.24.352.139.075.299.128.48.16l-.048 1.472h-.512c-.16.01-.315.01-.464 0-.149 0-.283-.01-.4-.032a1.878 1.878 0 01-.64-.192 1.908 1.908 0 01-.416-.304 8.5 8.5 0 01-.688.256 7.176 7.176 0 01-.944.24 5.298 5.298 0 01-1.008.096zm.512-1.584c.203 0 .416-.021.64-.064.224-.043.432-.09.624-.144a4.39 4.39 0 00.48-.176v-1.84l-1.632.144c-.352.032-.608.139-.768.32-.149.17-.224.416-.224.736s.069.57.208.752c.149.181.373.272.672.272zM252.13 40v-8.032h2.128v.512c.171-.107.379-.208.624-.304.245-.107.501-.197.768-.272.277-.075.544-.112.8-.112.555 0 1.013.075 1.376.224.373.139.667.368.88.688.213.32.368.741.464 1.264.096.512.144 1.136.144 1.872V40h-2.144v-4.048c0-.555-.032-.997-.096-1.328-.064-.341-.187-.587-.368-.736-.181-.15-.448-.224-.8-.224-.192 0-.395.021-.608.064-.203.032-.4.08-.592.144a3.12 3.12 0 00-.448.192V40h-2.128zm12.092.176c-.886 0-1.59-.15-2.112-.448-.512-.299-.88-.752-1.104-1.36-.224-.608-.336-1.37-.336-2.288 0-.992.138-1.803.416-2.432.288-.63.704-1.093 1.248-1.392.544-.31 1.216-.464 2.016-.464 1.184 0 2.074.299 2.672.896.608.597.912 1.541.912 2.832l-.096 1.184h-5.024c.01.597.133 1.045.368 1.344.234.299.64.448 1.216.448.33 0 .693-.005 1.088-.016l1.168-.064c.394-.021.73-.043 1.008-.064l.048 1.488c-.267.043-.603.09-1.008.144-.406.053-.827.096-1.264.128-.427.043-.832.064-1.216.064zm-1.408-4.832h2.992c0-.725-.118-1.232-.352-1.52-.224-.288-.592-.432-1.104-.432-.342 0-.624.064-.848.192-.224.128-.395.336-.512.624-.118.288-.176.667-.176 1.136zM269.413 40V28.688h2.128V40h-2.128z" fill="#C63F3E"/></svg>