<svg width="363" height="68" fill="none" xmlns="http://www.w3.org/2000/svg"><rect width="363" height="68" rx="18" fill="#9ED6DF"/><path d="M344.707 34.707a1 1 0 000-1.414l-6.364-6.364a1 1 0 10-1.414 1.414L342.586 34l-5.657 5.657a1 1 0 101.414 1.414l6.364-6.364zM316 34v1h28v-2h-28v1zM25.312 40.176c-1.163 0-2.085-.203-2.768-.608-.672-.416-1.157-1.04-1.456-1.872-.288-.832-.432-1.872-.432-3.12 0-1.259.144-2.31.432-3.152.299-.843.784-1.477 1.456-1.904.683-.427 1.605-.64 2.768-.64 1.163 0 2.08.213 2.752.64.683.427 1.168 1.061 1.456 1.904.299.843.448 1.893.448 3.152 0 1.27-.15 2.32-.448 3.152-.288.832-.773 1.45-1.456 1.856-.672.395-1.59.592-2.752.592zm0-1.856c.672 0 1.179-.133 1.52-.4.352-.277.587-.693.704-1.248.117-.565.176-1.264.176-2.096 0-.832-.064-1.53-.192-2.096-.117-.576-.347-1.008-.688-1.296-.341-.299-.848-.448-1.52-.448-.661 0-1.168.15-1.52.448-.341.288-.576.72-.704 1.296-.128.565-.192 1.264-.192 2.096 0 .821.059 1.51.176 2.064.128.555.363.976.704 1.264.352.277.864.416 1.536.416zm9.009 1.872c-.587 0-1.061-.085-1.424-.256-.363-.17-.624-.464-.784-.88-.15-.427-.224-1.019-.224-1.776v-3.536h-.944v-1.776h.944V29.84h2.128v2.128h2.048v1.776h-2.048v2.976c0 .416.016.741.048.976.043.235.128.4.256.496.128.096.325.144.592.144.075 0 .187-.005.336-.016l.448-.032c.15-.01.272-.021.368-.032l.064 1.712a14.37 14.37 0 01-1.264.176 3.76 3.76 0 01-.544.048zM37.255 40V28.688h2.128v3.568c.181-.064.395-.128.64-.192.256-.075.517-.139.784-.192a4.02 4.02 0 01.752-.08c.565 0 1.03.075 1.392.224.373.139.667.368.88.688.213.31.363.72.448 1.232.096.512.144 1.13.144 1.856V40h-2.144v-4.048c0-.555-.032-.997-.096-1.328-.064-.341-.187-.587-.368-.736-.17-.15-.437-.224-.8-.224-.192 0-.39.016-.592.048a5.302 5.302 0 00-1.04.272V40h-2.128zm12.092.176c-.886 0-1.59-.15-2.112-.448-.512-.299-.88-.752-1.104-1.36-.224-.608-.336-1.37-.336-2.288 0-.992.138-1.803.416-2.432.288-.63.704-1.093 1.248-1.392.544-.31 1.216-.464 2.016-.464 1.184 0 2.074.299 2.672.896.608.597.912 1.541.912 2.832l-.096 1.184h-5.024c.01.597.133 1.045.368 1.344.234.299.64.448 1.216.448.33 0 .693-.005 1.088-.016l1.168-.064c.394-.021.73-.043 1.008-.064l.048 1.488c-.267.043-.603.09-1.008.144-.406.053-.827.096-1.264.128-.427.043-.832.064-1.216.064zm-1.408-4.832h2.992c0-.725-.118-1.232-.352-1.52-.224-.288-.592-.432-1.104-.432-.342 0-.624.064-.848.192-.224.128-.395.336-.512.624-.118.288-.176.667-.176 1.136zM54.474 40v-8.032h2.128v.944c.181-.139.405-.283.672-.432.266-.16.554-.304.864-.432.32-.139.624-.23.912-.272v2.064c-.278.043-.57.117-.88.224a9.434 9.434 0 00-1.568.64V40h-2.128zm8.583.176c-.352 0-.73-.021-1.136-.064a15.418 15.418 0 01-2-.288l.064-1.584c.278.032.587.07.928.112.352.043.694.08 1.024.112.342.021.619.032.832.032.32 0 .582-.027.784-.08.214-.053.374-.139.48-.256.107-.128.16-.31.16-.544 0-.181-.048-.32-.144-.416-.085-.096-.256-.176-.512-.24a8.494 8.494 0 00-1.088-.224c-.597-.085-1.093-.208-1.488-.368-.384-.16-.666-.395-.848-.704-.181-.32-.272-.752-.272-1.296 0-.661.144-1.179.432-1.552a2.262 2.262 0 011.152-.784 4.93 4.93 0 011.568-.24c.374 0 .758.021 1.152.064.395.032.768.075 1.12.128.352.053.646.107.88.16l-.064 1.616c-.266-.043-.576-.08-.928-.112a17.59 17.59 0 00-1.92-.128c-.245 0-.464.027-.656.08a.89.89 0 00-.448.224c-.096.107-.144.267-.144.48 0 .15.043.272.128.368.086.096.246.181.48.256a9.85 9.85 0 001.056.192c.662.096 1.19.23 1.584.4.395.17.678.416.848.736.182.32.272.752.272 1.296 0 .64-.128 1.152-.384 1.536-.256.384-.63.661-1.12.832-.49.17-1.088.256-1.792.256zm8.182 3.2V31.968h2.112l.016.512c.15-.096.336-.197.56-.304.235-.107.486-.197.752-.272.267-.075.528-.112.784-.112.715 0 1.291.155 1.728.464.448.299.774.757.976 1.376.214.608.32 1.381.32 2.32 0 1.003-.117 1.813-.352 2.432-.234.619-.613 1.072-1.136 1.36-.512.288-1.189.432-2.032.432-.266 0-.554-.021-.864-.064a8.344 8.344 0 01-.736-.128v3.392H71.24zm3.392-4.976c.427 0 .763-.09 1.008-.272.246-.181.416-.453.512-.816.107-.373.16-.843.16-1.408 0-.875-.122-1.477-.368-1.808-.234-.341-.576-.512-1.024-.512-.17 0-.352.021-.544.064a4.832 4.832 0 00-.56.16c-.181.064-.33.128-.448.192v4.288c.128.01.31.032.544.064.246.032.486.048.72.048zm5.311 1.6v-8.032h2.129v.944c.18-.139.405-.283.672-.432.266-.16.554-.304.864-.432.32-.139.624-.23.912-.272v2.064a5.08 5.08 0 00-.88.224 9.445 9.445 0 00-1.569.64V40h-2.127zm9.05.176c-.906 0-1.637-.15-2.192-.448-.544-.299-.938-.757-1.184-1.376-.245-.63-.368-1.44-.368-2.432 0-.96.128-1.739.384-2.336.256-.608.662-1.056 1.216-1.344.555-.299 1.27-.448 2.144-.448.886 0 1.6.15 2.144.448.555.288.96.736 1.216 1.344.267.597.4 1.376.4 2.336 0 .992-.122 1.803-.368 2.432-.245.619-.645 1.077-1.2 1.376-.544.299-1.274.448-2.192.448zm0-1.76c.448 0 .784-.08 1.008-.24.224-.17.374-.437.448-.8.086-.373.128-.859.128-1.456 0-.587-.048-1.05-.144-1.392-.096-.352-.256-.603-.48-.752-.224-.15-.544-.224-.96-.224-.405 0-.725.075-.96.224-.224.15-.384.4-.48.752-.096.341-.144.805-.144 1.392 0 .597.038 1.083.112 1.456.086.363.24.63.464.8.224.16.56.24 1.008.24zm4.24 5.136l-.752-1.632a8.83 8.83 0 00.896-.544c.235-.15.41-.31.528-.48.118-.16.198-.352.24-.576.043-.224.064-.512.064-.864v-7.488h2.144v7.456c0 .608-.048 1.115-.144 1.52a2.406 2.406 0 01-.48 1.056c-.224.299-.538.565-.944.8-.405.235-.922.485-1.552.752zm.976-12.88v-1.808h2.144v1.808h-2.144zm7.154 9.504c-.885 0-1.589-.15-2.112-.448-.512-.299-.88-.752-1.104-1.36-.224-.608-.336-1.37-.336-2.288 0-.992.139-1.803.416-2.432.288-.63.704-1.093 1.248-1.392.544-.31 1.216-.464 2.016-.464 1.184 0 2.075.299 2.672.896.608.597.912 1.541.912 2.832l-.096 1.184h-5.024c.011.597.134 1.045.368 1.344.235.299.64.448 1.216.448.331 0 .694-.005 1.088-.016l1.168-.064c.395-.021.731-.043 1.008-.064l.048 1.488c-.266.043-.602.09-1.008.144-.405.053-.826.096-1.264.128-.426.043-.832.064-1.216.064zm-1.408-4.832h2.992c0-.725-.117-1.232-.352-1.52-.224-.288-.592-.432-1.104-.432-.341 0-.624.064-.848.192-.224.128-.394.336-.512.624-.117.288-.176.667-.176 1.136zm9.815 4.832c-.917 0-1.637-.139-2.16-.416-.512-.288-.874-.747-1.088-1.376-.202-.63-.304-1.456-.304-2.48 0-1.013.118-1.819.352-2.416.235-.608.614-1.04 1.136-1.296.534-.267 1.227-.4 2.08-.4.224 0 .486.016.784.048.299.032.598.075.896.128.31.043.571.085.784.128l-.08 1.712a11.028 11.028 0 00-.688-.048 19.038 19.038 0 00-.752-.048 6.601 6.601 0 00-.576-.032c-.458 0-.821.075-1.088.224-.256.139-.437.373-.544.704-.096.32-.144.752-.144 1.296 0 .587.048 1.056.144 1.408.096.352.267.603.512.752.256.15.63.224 1.12.224.15 0 .347-.005.592-.016l.752-.064c.267-.021.502-.037.704-.048l.064 1.712a14.2 14.2 0 01-.768.128c-.298.053-.602.096-.912.128-.298.032-.57.048-.816.048zm6.693.016c-.587 0-1.062-.085-1.424-.256-.363-.17-.624-.464-.784-.88-.15-.427-.224-1.019-.224-1.776v-3.536h-.944v-1.776h.944V29.84h2.128v2.128h2.048v1.776h-2.048v2.976c0 .416.016.741.048.976.042.235.128.4.256.496.128.096.325.144.592.144.074 0 .186-.005.336-.016l.448-.032c.149-.01.272-.021.368-.032l.064 1.712a14.37 14.37 0 01-1.264.176 3.772 3.772 0 01-.544.048zm5.83-.016c-.352 0-.731-.021-1.136-.064a15.273 15.273 0 01-2-.288l.064-1.584c.277.032.586.07.928.112.352.043.693.08 1.024.112.341.021.618.032.832.032.32 0 .581-.027.784-.08.213-.053.373-.139.48-.256.106-.128.16-.31.16-.544 0-.181-.048-.32-.144-.416-.086-.096-.256-.176-.512-.24a8.517 8.517 0 00-1.088-.224c-.598-.085-1.094-.208-1.488-.368-.384-.16-.667-.395-.848-.704-.182-.32-.272-.752-.272-1.296 0-.661.144-1.179.432-1.552a2.262 2.262 0 011.152-.784c.48-.16 1.002-.24 1.568-.24.373 0 .757.021 1.152.064.394.032.768.075 1.12.128.352.053.645.107.88.16l-.064 1.616c-.267-.043-.576-.08-.928-.112a17.59 17.59 0 00-1.92-.128c-.246 0-.464.027-.656.08a.887.887 0 00-.448.224c-.096.107-.144.267-.144.48 0 .15.042.272.128.368.085.096.245.181.48.256.245.064.597.128 1.056.192.661.096 1.189.23 1.584.4.394.17.677.416.848.736.181.32.272.752.272 1.296 0 .64-.128 1.152-.384 1.536-.256.384-.63.661-1.12.832-.491.17-1.088.256-1.792.256z" fill="#C63F3E"/></svg>