<svg width="58" height="29" fill="none" xmlns="http://www.w3.org/2000/svg"><rect y="5" width="24" height="20" rx="3" fill="#C63F3E"/><rect x="2" width="23" height="23" rx="3" fill="#fff"/><path d="M25.109 7.642a1 1 0 00-.846-1.134l-8.906-1.295a1 1 0 00-.288 1.98l7.916 1.15-1.15 7.917a1 1 0 101.978.288l1.296-8.906zM2 24l.598.802L24.717 8.3l-.598-.802-.598-.801L1.402 23.199 2 24zM30.008 23V12.072h2.208v9.056h4.32V23h-6.528zm7.59 0v-8.032h2.129V23h-2.128zm0-9.312v-1.824h2.145v1.824h-2.144zm7.155 9.488c-.885 0-1.59-.15-2.112-.448-.512-.299-.88-.752-1.104-1.36-.224-.608-.336-1.37-.336-2.288 0-.992.139-1.803.416-2.432.288-.63.704-1.093 1.248-1.392.544-.31 1.216-.464 2.016-.464 1.184 0 2.075.299 2.672.896.608.597.912 1.541.912 2.832l-.096 1.184h-5.024c.01.597.133 1.045.368 1.344.235.299.64.448 1.216.448.33 0 .693-.005 1.088-.016l1.168-.064c.395-.021.73-.043 1.008-.064l.048 1.488c-.267.043-.603.09-1.008.144-.405.053-.827.096-1.264.128-.427.043-.832.064-1.216.064zm-1.408-4.832h2.992c0-.725-.117-1.232-.352-1.52-.224-.288-.592-.432-1.104-.432-.341 0-.624.064-.848.192-.224.128-.395.336-.512.624-.117.288-.176.667-.176 1.136zM49.88 23v-8.032h2.128v.512c.17-.107.379-.208.624-.304.245-.107.501-.197.768-.272.277-.075.544-.112.8-.112.555 0 1.013.075 1.376.224.373.139.667.368.88.688.213.32.368.741.464 1.264.096.512.144 1.136.144 1.872V23H54.92v-4.048c0-.555-.032-.997-.096-1.328-.064-.341-.187-.587-.368-.736-.181-.15-.448-.224-.8-.224a3.1 3.1 0 00-.608.064c-.203.032-.4.08-.592.144a3.12 3.12 0 00-.448.192V23H49.88z" fill="#C63F3E"/></svg>