<svg width="363" height="68" fill="none" xmlns="http://www.w3.org/2000/svg"><rect width="363" height="68" rx="18" fill="#EAC119"/><path d="M344.707 34.707a1 1 0 000-1.414l-6.364-6.364a1 1 0 10-1.414 1.414L342.586 34l-5.657 5.657a1 1 0 101.414 1.414l6.364-6.364zM316 34v1h28v-2h-28v1zM20.192 40l2.784-10.928h3.856L29.6 40h-2.208l-.608-2.208H22.96L22.384 40h-2.192zm3.12-3.984h3.152l-1.232-5.152h-.672l-1.248 5.152zM30.677 40v-8.032h2.128v.512a3.78 3.78 0 01.624-.304c.245-.107.501-.197.768-.272.277-.075.544-.112.8-.112.554 0 1.013.075 1.376.224.373.139.666.368.88.688.213.32.368.741.464 1.264.096.512.144 1.136.144 1.872V40h-2.144v-4.048c0-.555-.032-.997-.096-1.328-.064-.341-.187-.587-.368-.736-.181-.15-.448-.224-.8-.224a3.1 3.1 0 00-.608.064c-.203.032-.4.08-.592.144-.181.064-.33.128-.448.192V40h-2.128zm8.844 0v-8.032h2.128v.512c.17-.107.378-.208.624-.304.245-.107.501-.197.768-.272.277-.075.544-.112.8-.112.554 0 1.013.075 1.376.224.373.139.666.368.88.688.213.32.368.741.464 1.264.096.512.144 1.136.144 1.872V40H44.56v-4.048c0-.555-.032-.997-.096-1.328-.064-.341-.187-.587-.368-.736-.182-.15-.448-.224-.8-.224-.192 0-.395.021-.608.064-.203.032-.4.08-.592.144-.182.064-.331.128-.448.192V40H39.52zm10.94.176c-.833 0-1.462-.208-1.889-.624-.416-.427-.624-1.067-.624-1.92 0-.597.107-1.061.32-1.392.214-.341.528-.587.944-.736.427-.16.944-.256 1.552-.288l1.952-.176v-.48c0-.384-.096-.65-.288-.8-.192-.16-.474-.24-.848-.24-.298 0-.645.01-1.04.032-.384.021-.768.048-1.152.08a33.9 33.9 0 00-.976.096l-.064-1.504c.278-.064.608-.128.992-.192.395-.075.806-.133 1.232-.176.427-.043.822-.064 1.184-.064.683 0 1.254.085 1.712.256.459.17.806.453 1.04.848.235.384.352.907.352 1.568v3.664a.48.48 0 00.24.352c.139.075.299.128.48.16l-.048 1.472h-.512c-.16.01-.314.01-.464 0-.149 0-.282-.01-.4-.032a1.877 1.877 0 01-.64-.192 1.905 1.905 0 01-.416-.304c-.17.075-.4.16-.688.256a7.164 7.164 0 01-.944.24c-.33.064-.666.096-1.008.096zm.511-1.584c.203 0 .416-.021.64-.064.224-.043.432-.09.624-.144.203-.064.363-.123.48-.176v-1.84l-1.632.144c-.352.032-.608.139-.768.32-.149.17-.224.416-.224.736s.07.57.208.752c.15.181.374.272.672.272zm13.316 1.584c-.854 0-1.558-.107-2.112-.32a2.875 2.875 0 01-1.296-1.024c-.32-.459-.544-1.04-.672-1.744-.118-.715-.176-1.563-.176-2.544 0-.992.058-1.84.176-2.544.128-.715.352-1.301.672-1.76.32-.459.757-.8 1.312-1.024.565-.224 1.285-.336 2.16-.336a10 10 0 011.104.064c.384.043.752.096 1.104.16.362.053.672.112.928.176l-.064 1.76a8.489 8.489 0 00-.8-.112 14.49 14.49 0 00-1.904-.128c-.512 0-.928.064-1.248.192a1.52 1.52 0 00-.752.64c-.17.299-.288.688-.352 1.168-.064.47-.096 1.05-.096 1.744 0 .683.032 1.264.096 1.744.064.47.181.853.352 1.152.17.288.416.501.736.64.33.128.757.192 1.28.192.426 0 .896-.021 1.408-.064a59.17 59.17 0 001.296-.144l.048 1.744c-.256.053-.56.112-.912.176-.352.053-.726.096-1.12.128-.395.043-.784.064-1.168.064zm6.672 0c-.832 0-1.461-.208-1.888-.624-.416-.427-.624-1.067-.624-1.92 0-.597.107-1.061.32-1.392.214-.341.528-.587.944-.736.427-.16.944-.256 1.552-.288l1.952-.176v-.48c0-.384-.096-.65-.288-.8-.192-.16-.474-.24-.848-.24-.298 0-.645.01-1.04.032-.384.021-.768.048-1.152.08a33.9 33.9 0 00-.976.096l-.064-1.504c.278-.064.608-.128.992-.192.395-.075.806-.133 1.232-.176.427-.043.822-.064 1.184-.064.683 0 1.254.085 1.712.256.459.17.806.453 1.04.848.235.384.352.907.352 1.568v3.664a.48.48 0 00.24.352c.139.075.299.128.48.16l-.048 1.472h-.512c-.16.01-.314.01-.464 0-.149 0-.282-.01-.4-.032a1.877 1.877 0 01-.64-.192 1.905 1.905 0 01-.416-.304c-.17.075-.4.16-.688.256a7.164 7.164 0 01-.944.24c-.33.064-.666.096-1.008.096zm.512-1.584c.203 0 .416-.021.64-.064.224-.043.432-.09.624-.144.203-.064.363-.123.48-.176v-1.84l-1.632.144c-.352.032-.608.139-.768.32-.149.17-.224.416-.224.736s.07.57.208.752c.15.181.374.272.672.272zm8.967 1.584c-.266 0-.592-.01-.976-.032a23.986 23.986 0 01-1.184-.096c-.394-.043-.746-.08-1.056-.112V28.688h2.144v3.536c.16-.064.358-.128.592-.192a7.46 7.46 0 01.736-.16c.267-.053.512-.08.736-.08.747 0 1.339.155 1.776.464.448.299.768.747.96 1.344.192.597.288 1.35.288 2.256 0 1.067-.122 1.92-.368 2.56-.234.63-.645 1.083-1.232 1.36-.586.267-1.392.4-2.416.4zm.016-1.792c.523 0 .912-.09 1.168-.272.256-.192.427-.475.512-.848.096-.373.144-.832.144-1.376 0-.555-.042-.997-.128-1.328-.085-.341-.229-.587-.432-.736-.192-.16-.464-.24-.816-.24-.17 0-.352.021-.544.064a4.756 4.756 0 00-.56.128c-.17.043-.314.085-.432.128v4.416c.16.01.347.027.56.048.214.01.39.016.528.016zm7.568 1.792c-.832 0-1.462-.208-1.888-.624-.416-.427-.624-1.067-.624-1.92 0-.597.107-1.061.32-1.392.213-.341.528-.587.944-.736.426-.16.944-.256 1.552-.288l1.952-.176v-.48c0-.384-.096-.65-.288-.8-.192-.16-.475-.24-.848-.24-.299 0-.645.01-1.04.032-.384.021-.768.048-1.152.08a33.9 33.9 0 00-.976.096l-.064-1.504c.277-.064.608-.128.992-.192.394-.075.805-.133 1.232-.176.426-.043.821-.064 1.184-.064.682 0 1.253.085 1.712.256.459.17.805.453 1.04.848.234.384.352.907.352 1.568v3.664a.48.48 0 00.24.352c.139.075.299.128.48.16l-.048 1.472h-.512c-.16.01-.315.01-.464 0-.15 0-.283-.01-.4-.032a1.877 1.877 0 01-.64-.192 1.905 1.905 0 01-.416-.304c-.17.075-.4.16-.688.256a7.164 7.164 0 01-.944.24c-.33.064-.667.096-1.008.096zm.512-1.584c.203 0 .416-.021.64-.064.224-.043.432-.09.624-.144.202-.064.362-.123.48-.176v-1.84l-1.632.144c-.352.032-.608.139-.768.32-.15.17-.224.416-.224.736s.07.57.208.752c.15.181.373.272.672.272zM94.302 40v-8.032h2.128v.512a3.78 3.78 0 01.624-.304c.245-.107.501-.197.768-.272.277-.075.544-.112.8-.112.555 0 1.013.075 1.376.224.373.139.667.368.88.688.213.32.368.741.464 1.264.096.512.144 1.136.144 1.872V40h-2.144v-4.048c0-.555-.032-.997-.096-1.328-.064-.341-.187-.587-.368-.736-.181-.15-.448-.224-.8-.224a3.1 3.1 0 00-.608.064c-.203.032-.4.08-.592.144-.181.064-.33.128-.448.192V40h-2.128zm12.092.176c-.886 0-1.59-.15-2.112-.448-.512-.299-.88-.752-1.104-1.36-.224-.608-.336-1.37-.336-2.288 0-.992.138-1.803.416-2.432.288-.63.704-1.093 1.248-1.392.544-.31 1.216-.464 2.016-.464 1.184 0 2.074.299 2.672.896.608.597.912 1.541.912 2.832l-.096 1.184h-5.024c.01.597.133 1.045.368 1.344.234.299.64.448 1.216.448.33 0 .693-.005 1.088-.016l1.168-.064c.394-.021.73-.043 1.008-.064l.048 1.488c-.267.043-.603.09-1.008.144-.406.053-.827.096-1.264.128-.427.043-.832.064-1.216.064zm-1.408-4.832h2.992c0-.725-.118-1.232-.352-1.52-.224-.288-.592-.432-1.104-.432-.342 0-.624.064-.848.192-.224.128-.395.336-.512.624-.118.288-.176.667-.176 1.136zM111.585 40V28.688h2.128V40h-2.128zm3.711-7.184l.56-3.904h2.224l-1.104 3.904h-1.68zm6.746 7.36c-.352 0-.731-.021-1.136-.064a15.273 15.273 0 01-2-.288l.064-1.584c.277.032.586.07.928.112.352.043.693.08 1.024.112.341.021.618.032.832.032.32 0 .581-.027.784-.08.213-.053.373-.139.48-.256.106-.128.16-.31.16-.544 0-.181-.048-.32-.144-.416-.086-.096-.256-.176-.512-.24a8.517 8.517 0 00-1.088-.224c-.598-.085-1.094-.208-1.488-.368-.384-.16-.667-.395-.848-.704-.182-.32-.272-.752-.272-1.296 0-.661.144-1.179.432-1.552a2.262 2.262 0 011.152-.784c.48-.16 1.002-.24 1.568-.24.373 0 .757.021 1.152.064.394.032.768.075 1.12.128.352.053.645.107.88.16l-.064 1.616c-.267-.043-.576-.08-.928-.112a17.59 17.59 0 00-1.92-.128c-.246 0-.464.027-.656.08a.887.887 0 00-.448.224c-.096.107-.144.267-.144.48 0 .15.042.272.128.368.085.096.245.181.48.256.245.064.597.128 1.056.192.661.096 1.189.23 1.584.4.394.17.677.416.848.736.181.32.272.752.272 1.296 0 .64-.128 1.152-.384 1.536-.256.384-.63.661-1.12.832-.491.17-1.088.256-1.792.256zm9.494-.176l-1.856-10.928h2.224l1.344 8.8h.384l1.664-8.688h2.48l1.696 8.688h.384l1.264-8.8h2.24L141.536 40h-3.504l-1.552-8.672h.08L134.992 40h-3.456zm16.3.176c-.907 0-1.637-.15-2.192-.448-.544-.299-.939-.757-1.184-1.376-.245-.63-.368-1.44-.368-2.432 0-.96.128-1.739.384-2.336.256-.608.661-1.056 1.216-1.344.555-.299 1.269-.448 2.144-.448.885 0 1.6.15 2.144.448.555.288.96.736 1.216 1.344.267.597.4 1.376.4 2.336 0 .992-.123 1.803-.368 2.432-.245.619-.645 1.077-1.2 1.376-.544.299-1.275.448-2.192.448zm0-1.76c.448 0 .784-.08 1.008-.24.224-.17.373-.437.448-.8.085-.373.128-.859.128-1.456 0-.587-.048-1.05-.144-1.392-.096-.352-.256-.603-.48-.752-.224-.15-.544-.224-.96-.224-.405 0-.725.075-.96.224-.224.15-.384.4-.48.752-.096.341-.144.805-.144 1.392 0 .597.037 1.083.112 1.456.085.363.24.63.464.8.224.16.56.24 1.008.24zM153.052 40v-8.032h2.128v.512c.16-.107.363-.208.608-.304.245-.107.501-.197.768-.272.277-.075.544-.112.8-.112.491 0 .891.07 1.2.208.309.128.565.32.768.576.192-.117.432-.235.72-.352.288-.117.603-.219.944-.304.341-.085.672-.128.992-.128.587 0 1.067.08 1.44.24.384.15.683.39.896.72.213.32.363.736.448 1.248.085.501.128 1.11.128 1.824V40h-2.128v-3.984c0-.555-.032-1.003-.096-1.344-.053-.352-.171-.608-.352-.768-.171-.16-.432-.24-.784-.24-.192 0-.395.021-.608.064a3.205 3.205 0 00-1.008.32 5.2 5.2 0 01.112.864c.032.352.048.72.048 1.104V40h-2.128v-3.952c0-.565-.032-1.024-.096-1.376-.053-.352-.171-.608-.352-.768-.181-.16-.443-.24-.784-.24a2.87 2.87 0 00-.592.064c-.192.032-.373.08-.544.144-.16.064-.293.123-.4.176V40h-2.128zm15.627.176c-.832 0-1.461-.208-1.888-.624-.416-.427-.624-1.067-.624-1.92 0-.597.107-1.061.32-1.392.213-.341.528-.587.944-.736.427-.16.944-.256 1.552-.288l1.952-.176v-.48c0-.384-.096-.65-.288-.8-.192-.16-.475-.24-.848-.24-.299 0-.645.01-1.04.032-.384.021-.768.048-1.152.08-.373.032-.699.064-.976.096l-.064-1.504c.277-.064.608-.128.992-.192.395-.075.805-.133 1.232-.176.427-.043.821-.064 1.184-.064.683 0 1.253.085 1.712.256.459.17.805.453 1.04.848.235.384.352.907.352 1.568v3.664c.021.15.101.267.24.352.139.075.299.128.48.16l-.048 1.472h-.512c-.16.01-.315.01-.464 0-.149 0-.283-.01-.4-.032a1.878 1.878 0 01-.64-.192 1.908 1.908 0 01-.416-.304 8.5 8.5 0 01-.688.256 7.176 7.176 0 01-.944.24 5.298 5.298 0 01-1.008.096zm.512-1.584c.203 0 .416-.021.64-.064.224-.043.432-.09.624-.144a4.39 4.39 0 00.48-.176v-1.84l-1.632.144c-.352.032-.608.139-.768.32-.149.17-.224.416-.224.736s.069.57.208.752c.149.181.373.272.672.272zM174.958 40v-8.032h2.128v.512c.171-.107.379-.208.624-.304.245-.107.501-.197.768-.272.277-.075.544-.112.8-.112.555 0 1.013.075 1.376.224.373.139.667.368.88.688.213.32.368.741.464 1.264.096.512.144 1.136.144 1.872V40h-2.144v-4.048c0-.555-.032-.997-.096-1.328-.064-.341-.187-.587-.368-.736-.181-.15-.448-.224-.8-.224-.192 0-.395.021-.608.064-.203.032-.4.08-.592.144a3.12 3.12 0 00-.448.192V40h-2.128zm12.328 0v-8.032h2.128V40h-2.128zm0-9.312v-1.824h2.144v1.824h-2.144zM191.193 40v-8.032h2.128v.512c.17-.107.378-.208.624-.304.245-.107.501-.197.768-.272.277-.075.544-.112.8-.112.554 0 1.013.075 1.376.224.373.139.666.368.88.688.213.32.368.741.464 1.264.096.512.144 1.136.144 1.872V40h-2.144v-4.048c0-.555-.032-.997-.096-1.328-.064-.341-.187-.587-.368-.736-.182-.15-.448-.224-.8-.224-.192 0-.395.021-.608.064-.203.032-.4.08-.592.144a3.072 3.072 0 00-.448.192V40h-2.128zm15.224.176c-.352 0-.731-.021-1.136-.064a15.273 15.273 0 01-2-.288l.064-1.584c.277.032.586.07.928.112.352.043.693.08 1.024.112.341.021.618.032.832.032.32 0 .581-.027.784-.08.213-.053.373-.139.48-.256.106-.128.16-.31.16-.544 0-.181-.048-.32-.144-.416-.086-.096-.256-.176-.512-.24a8.517 8.517 0 00-1.088-.224c-.598-.085-1.094-.208-1.488-.368-.384-.16-.667-.395-.848-.704-.182-.32-.272-.752-.272-1.296 0-.661.144-1.179.432-1.552a2.262 2.262 0 011.152-.784c.48-.16 1.002-.24 1.568-.24.373 0 .757.021 1.152.064.394.032.768.075 1.12.128.352.053.645.107.88.16l-.064 1.616c-.267-.043-.576-.08-.928-.112a17.59 17.59 0 00-1.92-.128c-.246 0-.464.027-.656.08a.887.887 0 00-.448.224c-.096.107-.144.267-.144.48 0 .15.042.272.128.368.085.096.245.181.48.256.245.064.597.128 1.056.192.661.096 1.189.23 1.584.4.394.17.677.416.848.736.181.32.272.752.272 1.296 0 .64-.128 1.152-.384 1.536-.256.384-.63.661-1.12.832-.491.17-1.088.256-1.792.256zm7.977 0c-.917 0-1.637-.139-2.16-.416-.512-.288-.874-.747-1.088-1.376-.202-.63-.304-1.456-.304-2.48 0-1.013.118-1.819.352-2.416.235-.608.614-1.04 1.136-1.296.534-.267 1.227-.4 2.08-.4.224 0 .486.016.784.048.299.032.598.075.896.128.31.043.571.085.784.128l-.08 1.712a11.028 11.028 0 00-.688-.048 19.038 19.038 0 00-.752-.048 6.601 6.601 0 00-.576-.032c-.458 0-.821.075-1.088.224-.256.139-.437.373-.544.704-.096.32-.144.752-.144 1.296 0 .587.048 1.056.144 1.408.096.352.267.603.512.752.256.15.63.224 1.12.224.15 0 .347-.005.592-.016l.752-.064c.267-.021.502-.037.704-.048l.064 1.712a14.2 14.2 0 01-.768.128c-.298.053-.602.096-.912.128-.298.032-.57.048-.816.048zm3.877-.176v-8.032h2.128V40h-2.128zm0-9.312v-1.824h2.144v1.824h-2.144zm7.154 9.488c-.885 0-1.589-.15-2.112-.448-.512-.299-.88-.752-1.104-1.36-.224-.608-.336-1.37-.336-2.288 0-.992.139-1.803.416-2.432.288-.63.704-1.093 1.248-1.392.544-.31 1.216-.464 2.016-.464 1.184 0 2.075.299 2.672.896.608.597.912 1.541.912 2.832l-.096 1.184h-5.024c.011.597.133 1.045.368 1.344.235.299.64.448 1.216.448.331 0 .693-.005 1.088-.016l1.168-.064c.395-.021.731-.043 1.008-.064l.048 1.488c-.267.043-.603.09-1.008.144-.405.053-.827.096-1.264.128-.427.043-.832.064-1.216.064zm-1.408-4.832h2.992c0-.725-.117-1.232-.352-1.52-.224-.288-.592-.432-1.104-.432-.341 0-.624.064-.848.192-.224.128-.395.336-.512.624-.117.288-.176.667-.176 1.136zM230.552 40v-8.032h2.128v.512c.171-.107.379-.208.624-.304.245-.107.501-.197.768-.272.277-.075.544-.112.8-.112.555 0 1.013.075 1.376.224.373.139.667.368.88.688.213.32.368.741.464 1.264.096.512.144 1.136.144 1.872V40h-2.144v-4.048c0-.555-.032-.997-.096-1.328-.064-.341-.187-.587-.368-.736-.181-.15-.448-.224-.8-.224-.192 0-.395.021-.608.064-.203.032-.4.08-.592.144a3.12 3.12 0 00-.448.192V40h-2.128zm12.124.176c-.918 0-1.638-.139-2.16-.416-.512-.288-.875-.747-1.088-1.376-.203-.63-.304-1.456-.304-2.48 0-1.013.117-1.819.352-2.416.234-.608.613-1.04 1.136-1.296.533-.267 1.226-.4 2.08-.4.224 0 .485.016.784.048.298.032.597.075.896.128.309.043.57.085.784.128l-.08 1.712a11.083 11.083 0 00-.688-.048 19.16 19.16 0 00-.752-.048 6.642 6.642 0 00-.576-.032c-.459 0-.822.075-1.088.224-.256.139-.438.373-.544.704-.096.32-.144.752-.144 1.296 0 .587.048 1.056.144 1.408.096.352.266.603.512.752.256.15.629.224 1.12.224.149 0 .346-.005.592-.016l.752-.064c.266-.021.501-.037.704-.048l.064 1.712c-.214.043-.47.085-.768.128-.299.053-.603.096-.912.128a7.726 7.726 0 01-.816.048zm7.046 0c-.886 0-1.59-.15-2.112-.448-.512-.299-.88-.752-1.104-1.36-.224-.608-.336-1.37-.336-2.288 0-.992.138-1.803.416-2.432.288-.63.704-1.093 1.248-1.392.544-.31 1.216-.464 2.016-.464 1.184 0 2.074.299 2.672.896.608.597.912 1.541.912 2.832l-.096 1.184h-5.024c.01.597.133 1.045.368 1.344.234.299.64.448 1.216.448.33 0 .693-.005 1.088-.016l1.168-.064c.394-.021.73-.043 1.008-.064l.048 1.488c-.267.043-.603.09-1.008.144-.406.053-.827.096-1.264.128-.427.043-.832.064-1.216.064zm-1.408-4.832h2.992c0-.725-.118-1.232-.352-1.52-.224-.288-.592-.432-1.104-.432-.342 0-.624.064-.848.192-.224.128-.395.336-.512.624-.118.288-.176.667-.176 1.136z" fill="#C63F3E"/></svg>