<svg width="363" height="68" fill="none" xmlns="http://www.w3.org/2000/svg"><rect width="363" height="68" rx="18" fill="#808BC5"/><path d="M344.707 34.707a1 1 0 000-1.414l-6.364-6.364a1 1 0 10-1.414 1.414L342.586 34l-5.657 5.657a1 1 0 101.414 1.414l6.364-6.364zM316 34v1h28v-2h-28v1zM21.008 40V29.072h4.272c.875 0 1.605.112 2.192.336.597.224 1.04.597 1.328 1.12.299.523.448 1.232.448 2.128 0 .79-.144 1.456-.432 2a2.57 2.57 0 01-1.28 1.184L29.248 40h-2.32l-1.44-3.664h-2.272V40h-2.208zm2.208-5.472h2.112c.405 0 .73-.075.976-.224.245-.16.421-.379.528-.656.107-.288.16-.613.16-.976 0-.597-.139-1.045-.416-1.344-.277-.299-.71-.448-1.296-.448h-2.064v3.648zm10.693 5.648c-.885 0-1.59-.15-2.112-.448-.512-.299-.88-.752-1.104-1.36-.224-.608-.336-1.37-.336-2.288 0-.992.139-1.803.416-2.432.288-.63.704-1.093 1.248-1.392.544-.31 1.216-.464 2.016-.464 1.184 0 2.075.299 2.672.896.608.597.912 1.541.912 2.832l-.096 1.184h-5.024c.01.597.134 1.045.368 1.344.235.299.64.448 1.216.448.33 0 .694-.005 1.088-.016l1.168-.064c.395-.021.73-.043 1.008-.064l.048 1.488c-.266.043-.602.09-1.008.144-.405.053-.826.096-1.264.128-.426.043-.832.064-1.216.064zm-1.408-4.832h2.992c0-.725-.117-1.232-.352-1.52-.224-.288-.592-.432-1.104-.432-.341 0-.624.064-.848.192-.224.128-.394.336-.512.624-.117.288-.176.667-.176 1.136zm6.6 4.656V28.688h2.127V40H39.1zm6.047.176c-.832 0-1.462-.208-1.888-.624-.416-.427-.624-1.067-.624-1.92 0-.597.106-1.061.32-1.392.213-.341.528-.587.944-.736.427-.16.944-.256 1.552-.288l1.952-.176v-.48c0-.384-.096-.65-.288-.8-.192-.16-.475-.24-.848-.24-.299 0-.645.01-1.04.032-.384.021-.768.048-1.152.08a33.9 33.9 0 00-.976.096l-.064-1.504c.277-.064.608-.128.992-.192.395-.075.805-.133 1.232-.176.427-.043.821-.064 1.184-.064.682 0 1.253.085 1.712.256.459.17.805.453 1.04.848.235.384.352.907.352 1.568v3.664a.48.48 0 00.24.352c.139.075.299.128.48.16l-.048 1.472h-.512c-.16.01-.315.01-.464 0-.15 0-.283-.01-.4-.032a1.877 1.877 0 01-.64-.192 1.905 1.905 0 01-.416-.304c-.17.075-.4.16-.688.256a7.164 7.164 0 01-.944.24c-.33.064-.667.096-1.008.096zm.512-1.584c.203 0 .416-.021.64-.064.224-.043.432-.09.624-.144.203-.064.362-.123.48-.176v-1.84l-1.632.144c-.352.032-.608.139-.768.32-.15.17-.224.416-.224.736s.07.57.208.752c.15.181.373.272.672.272zm8.49 1.6c-.587 0-1.062-.085-1.425-.256-.363-.17-.624-.464-.784-.88-.15-.427-.224-1.019-.224-1.776v-3.536h-.944v-1.776h.944V29.84h2.128v2.128h2.048v1.776h-2.048v2.976c0 .416.016.741.048.976.043.235.128.4.256.496.128.096.325.144.592.144.075 0 .187-.005.336-.016l.448-.032c.15-.01.272-.021.368-.032l.064 1.712a14.37 14.37 0 01-1.264.176 3.76 3.76 0 01-.544.048zm6.181-.016c-.885 0-1.59-.15-2.112-.448-.512-.299-.88-.752-1.104-1.36-.224-.608-.336-1.37-.336-2.288 0-.992.139-1.803.416-2.432.288-.63.704-1.093 1.248-1.392.544-.31 1.216-.464 2.016-.464 1.184 0 2.075.299 2.672.896.608.597.912 1.541.912 2.832l-.096 1.184h-5.024c.01.597.133 1.045.368 1.344.235.299.64.448 1.216.448.33 0 .694-.005 1.088-.016l1.168-.064c.395-.021.73-.043 1.008-.064l.048 1.488c-.267.043-.602.09-1.008.144-.405.053-.827.096-1.264.128-.426.043-.832.064-1.216.064zm-1.408-4.832h2.992c0-.725-.117-1.232-.352-1.52-.224-.288-.592-.432-1.104-.432-.341 0-.624.064-.848.192-.224.128-.394.336-.512.624-.117.288-.176.667-.176 1.136zm9.24 4.832c-.385 0-.737-.048-1.057-.144a2.335 2.335 0 01-.848-.416 2.7 2.7 0 01-.608-.784c-.16-.32-.282-.71-.368-1.168a9.215 9.215 0 01-.128-1.632c0-.917.112-1.69.336-2.32.235-.63.603-1.104 1.104-1.424.502-.33 1.168-.496 2-.496.16 0 .347.01.56.032.214.01.422.032.624.064.203.021.368.043.496.064v-3.264h2.144V40h-2.112l-.016-.464c-.15.085-.347.181-.592.288a5.166 5.166 0 01-.752.24 2.898 2.898 0 01-.784.112zm.543-1.792c.192 0 .384-.021.576-.064.203-.043.39-.09.56-.144a3.91 3.91 0 00.432-.176v-4.304a2.669 2.669 0 00-.384-.048 7.148 7.148 0 00-.496-.048 3.777 3.777 0 00-.464-.032c-.416 0-.741.096-.976.288-.224.192-.384.475-.48.848-.096.363-.144.805-.144 1.328 0 .459.032.843.096 1.152.064.299.155.539.272.72.128.17.278.293.448.368.17.075.358.112.56.112zM77.981 40v-6.256h-.8v-1.776h.8v-.464c0-.757.07-1.355.208-1.792.15-.437.4-.747.752-.928.352-.181.827-.272 1.424-.272.17 0 .374.01.608.032.246.01.48.027.704.048.224.021.395.043.512.064l-.016 1.632h-.576c-.202-.01-.378-.016-.528-.016-.234 0-.426.037-.576.112a.66.66 0 00-.304.368c-.053.17-.08.416-.08.736v.48h1.92v1.776h-1.92V40h-2.128zm5.149 0v-8.032h2.128V40H83.13zm0-9.312v-1.824h2.144v1.824H83.13zM87.1 40V28.688h2.128V40H87.1zm3.952 0v-8.032h2.128v.512c.16-.107.362-.208.608-.304.245-.107.501-.197.768-.272.277-.075.544-.112.8-.112.49 0 .89.07 1.2.208.31.128.565.32.768.576.192-.117.432-.235.72-.352.288-.117.603-.219.944-.304.341-.085.672-.128.992-.128.587 0 1.067.08 1.44.24.384.15.683.39.896.72.213.32.363.736.448 1.248.085.501.128 1.11.128 1.824V40h-2.128v-3.984c0-.555-.032-1.003-.096-1.344-.053-.352-.171-.608-.352-.768-.171-.16-.432-.24-.784-.24a3.1 3.1 0 00-.608.064 3.203 3.203 0 00-1.008.32c.053.224.09.512.112.864.032.352.048.72.048 1.104V40h-2.128v-3.952c0-.565-.032-1.024-.096-1.376-.053-.352-.17-.608-.352-.768-.181-.16-.443-.24-.784-.24-.192 0-.39.021-.592.064-.192.032-.373.08-.544.144-.16.064-.293.123-.4.176V40h-2.128zm19.112.176c-.832 0-1.462-.208-1.888-.624-.416-.427-.624-1.067-.624-1.92 0-.597.106-1.061.32-1.392.213-.341.528-.587.944-.736.426-.16.944-.256 1.552-.288l1.952-.176v-.48c0-.384-.096-.65-.288-.8-.192-.16-.475-.24-.848-.24-.299 0-.646.01-1.04.032-.384.021-.768.048-1.152.08-.374.032-.699.064-.976.096l-.064-1.504c.277-.064.608-.128.992-.192.394-.075.805-.133 1.232-.176.426-.043.821-.064 1.184-.064.682 0 1.253.085 1.712.256.458.17.805.453 1.04.848.234.384.352.907.352 1.568v3.664c.021.15.101.267.24.352.138.075.298.128.48.16l-.048 1.472h-.512c-.16.01-.315.01-.464 0-.15 0-.283-.01-.4-.032a1.871 1.871 0 01-.64-.192 1.884 1.884 0 01-.416-.304 8.5 8.5 0 01-.688.256 7.176 7.176 0 01-.944.24 5.298 5.298 0 01-1.008.096zm.512-1.584c.202 0 .416-.021.64-.064.224-.043.432-.09.624-.144.202-.064.362-.123.48-.176v-1.84l-1.632.144c-.352.032-.608.139-.768.32-.15.17-.224.416-.224.736s.069.57.208.752c.149.181.373.272.672.272zM116.443 40v-8.032h2.128v.512c.17-.107.378-.208.624-.304.245-.107.501-.197.768-.272.277-.075.544-.112.8-.112.554 0 1.013.075 1.376.224.373.139.666.368.88.688.213.32.368.741.464 1.264.096.512.144 1.136.144 1.872V40h-2.144v-4.048c0-.555-.032-.997-.096-1.328-.064-.341-.187-.587-.368-.736-.182-.15-.448-.224-.8-.224-.192 0-.395.021-.608.064-.203.032-.4.08-.592.144a3.072 3.072 0 00-.448.192V40h-2.128zm11.547.176c-.384 0-.736-.048-1.056-.144a2.34 2.34 0 01-.848-.416 2.715 2.715 0 01-.608-.784c-.16-.32-.282-.71-.368-1.168a9.243 9.243 0 01-.128-1.632c0-.917.112-1.69.336-2.32.235-.63.603-1.104 1.104-1.424.502-.33 1.168-.496 2-.496.16 0 .347.01.56.032.214.01.422.032.624.064.203.021.368.043.496.064v-3.264h2.144V40h-2.112l-.016-.464a6.159 6.159 0 01-.592.288 5.132 5.132 0 01-.752.24 2.895 2.895 0 01-.784.112zm.544-1.792c.192 0 .384-.021.576-.064.203-.043.39-.09.56-.144.182-.064.326-.123.432-.176v-4.304a2.669 2.669 0 00-.384-.048 7.13 7.13 0 00-.496-.048 3.765 3.765 0 00-.464-.032c-.416 0-.741.096-.976.288-.224.192-.384.475-.48.848-.096.363-.144.805-.144 1.328 0 .459.032.843.096 1.152.064.299.155.539.272.72.128.17.278.293.448.368.171.075.358.112.56.112zm11.851 1.792c-.352 0-.73-.021-1.136-.064a15.599 15.599 0 01-2-.288l.064-1.584c.278.032.587.07.928.112.352.043.694.08 1.024.112.342.021.619.032.832.032.32 0 .582-.027.784-.08.214-.053.374-.139.48-.256.107-.128.16-.31.16-.544 0-.181-.048-.32-.144-.416-.085-.096-.256-.176-.512-.24a8.48 8.48 0 00-1.088-.224c-.597-.085-1.093-.208-1.488-.368-.384-.16-.666-.395-.848-.704-.181-.32-.272-.752-.272-1.296 0-.661.144-1.179.432-1.552a2.262 2.262 0 011.152-.784c.48-.16 1.003-.24 1.568-.24.374 0 .758.021 1.152.064.395.032.768.075 1.12.128.352.053.646.107.88.16l-.064 1.616c-.266-.043-.576-.08-.928-.112a17.59 17.59 0 00-1.92-.128c-.245 0-.464.027-.656.08a.892.892 0 00-.448.224c-.096.107-.144.267-.144.48 0 .15.043.272.128.368.086.096.246.181.48.256.246.064.598.128 1.056.192.662.096 1.19.23 1.584.4.395.17.678.416.848.736.182.32.272.752.272 1.296 0 .64-.128 1.152-.384 1.536-.256.384-.629.661-1.12.832-.49.17-1.088.256-1.792.256zm7.946 0c-.885 0-1.589-.15-2.112-.448-.512-.299-.88-.752-1.104-1.36-.224-.608-.336-1.37-.336-2.288 0-.992.139-1.803.416-2.432.288-.63.704-1.093 1.248-1.392.544-.31 1.216-.464 2.016-.464 1.184 0 2.075.299 2.672.896.608.597.912 1.541.912 2.832l-.096 1.184h-5.024c.011.597.133 1.045.368 1.344.235.299.64.448 1.216.448.331 0 .693-.005 1.088-.016l1.168-.064c.395-.021.731-.043 1.008-.064l.048 1.488c-.267.043-.603.09-1.008.144-.405.053-.827.096-1.264.128-.427.043-.832.064-1.216.064zm-1.408-4.832h2.992c0-.725-.117-1.232-.352-1.52-.224-.288-.592-.432-1.104-.432-.341 0-.624.064-.848.192-.224.128-.395.336-.512.624-.117.288-.176.667-.176 1.136zM153.458 40v-8.032h2.128v.944c.181-.139.405-.283.672-.432.267-.16.555-.304.864-.432.32-.139.624-.23.912-.272v2.064a5.08 5.08 0 00-.88.224 9.445 9.445 0 00-1.568.64V40h-2.128zm5.688 0v-8.032h2.128V40h-2.128zm0-9.312v-1.824h2.144v1.824h-2.144zm7.154 9.488c-.885 0-1.589-.15-2.112-.448-.512-.299-.88-.752-1.104-1.36-.224-.608-.336-1.37-.336-2.288 0-.992.139-1.803.416-2.432.288-.63.704-1.093 1.248-1.392.544-.31 1.216-.464 2.016-.464 1.184 0 2.075.299 2.672.896.608.597.912 1.541.912 2.832l-.096 1.184h-5.024c.011.597.133 1.045.368 1.344.235.299.64.448 1.216.448.331 0 .693-.005 1.088-.016l1.168-.064c.395-.021.731-.043 1.008-.064l.048 1.488c-.267.043-.603.09-1.008.144-.405.053-.827.096-1.264.128-.427.043-.832.064-1.216.064zm-1.408-4.832h2.992c0-.725-.117-1.232-.352-1.52-.224-.288-.592-.432-1.104-.432-.341 0-.624.064-.848.192-.224.128-.395.336-.512.624-.117.288-.176.667-.176 1.136zm9.431 4.832c-.352 0-.731-.021-1.136-.064a15.434 15.434 0 01-2-.288l.064-1.584c.277.032.587.07.928.112.352.043.693.08 1.024.112.341.021.619.032.832.032.32 0 .581-.027.784-.08.213-.053.373-.139.48-.256.107-.128.16-.31.16-.544 0-.181-.048-.32-.144-.416-.085-.096-.256-.176-.512-.24a8.48 8.48 0 00-1.088-.224c-.597-.085-1.093-.208-1.488-.368-.384-.16-.667-.395-.848-.704-.181-.32-.272-.752-.272-1.296 0-.661.144-1.179.432-1.552a2.262 2.262 0 011.152-.784c.48-.16 1.003-.24 1.568-.24.373 0 .757.021 1.152.064.395.032.768.075 1.12.128.352.053.645.107.88.16l-.064 1.616c-.267-.043-.576-.08-.928-.112a17.59 17.59 0 00-1.92-.128c-.245 0-.464.027-.656.08a.892.892 0 00-.448.224c-.096.107-.144.267-.144.48 0 .15.043.272.128.368.085.096.245.181.48.256.245.064.597.128 1.056.192.661.096 1.189.23 1.584.4s.677.416.848.736c.181.32.272.752.272 1.296 0 .64-.128 1.152-.384 1.536-.256.384-.629.661-1.12.832-.491.17-1.088.256-1.792.256z" fill="#C63F3E"/></svg>