<svg width="363" height="68" fill="none" xmlns="http://www.w3.org/2000/svg"><rect width="363" height="68" rx="18" fill="#EAA7C7"/><path d="M344.707 34.707a1 1 0 000-1.414l-6.364-6.364a1 1 0 10-1.414 1.414L342.586 34l-5.657 5.657a1 1 0 101.414 1.414l6.364-6.364zM316 34v1h28v-2h-28v1zM21.008 40V29.072h7.264v1.84h-5.056v2.656h4.096v1.808h-4.096v2.784h5.056V40h-7.264zm8.012 0l2.145-4-2.145-4.032h2.305l1.424 2.784 1.44-2.784h2.175l-2.095 3.984L36.349 40h-2.32l-1.425-2.688L31.23 40H29.02zm11.254.192c-.587 0-1.061-.085-1.424-.256-.363-.17-.624-.464-.784-.88-.15-.427-.224-1.019-.224-1.776v-3.536h-.944v-1.776h.944V29.84h2.128v2.128h2.048v1.776H39.97v2.976c0 .416.016.741.048.976.043.235.128.4.256.496.128.096.325.144.592.144.075 0 .187-.005.336-.016l.448-.032c.15-.01.272-.021.368-.032l.064 1.712a14.37 14.37 0 01-1.264.176 3.76 3.76 0 01-.544.048zM43.208 40v-8.032h2.128v.944c.181-.139.406-.283.672-.432.267-.16.555-.304.864-.432.32-.139.624-.23.912-.272v2.064c-.277.043-.57.117-.88.224a9.455 9.455 0 00-1.568.64V40h-2.128zm7.784.176c-.832 0-1.462-.208-1.888-.624-.416-.427-.624-1.067-.624-1.92 0-.597.106-1.061.32-1.392.213-.341.528-.587.944-.736.426-.16.944-.256 1.552-.288l1.952-.176v-.48c0-.384-.096-.65-.288-.8-.192-.16-.475-.24-.848-.24-.299 0-.646.01-1.04.032-.384.021-.768.048-1.152.08-.374.032-.699.064-.976.096l-.064-1.504c.277-.064.608-.128.992-.192.394-.075.805-.133 1.232-.176.426-.043.821-.064 1.184-.064.682 0 1.253.085 1.712.256.458.17.805.453 1.04.848.234.384.352.907.352 1.568v3.664a.48.48 0 00.24.352c.138.075.298.128.48.16l-.048 1.472h-.512c-.16.01-.315.01-.464 0-.15 0-.283-.01-.4-.032a1.879 1.879 0 01-.64-.192 1.91 1.91 0 01-.416-.304c-.171.075-.4.16-.688.256a7.16 7.16 0 01-.944.24c-.331.064-.667.096-1.008.096zm.512-1.584c.202 0 .416-.021.64-.064.224-.043.432-.09.624-.144.202-.064.362-.123.48-.176v-1.84l-1.632.144c-.352.032-.608.139-.768.32-.15.17-.224.416-.224.736s.069.57.208.752c.149.181.373.272.672.272zM57.27 40v-8.032h2.128V40H57.27zm0-9.312v-1.824h2.144v1.824H57.27zm6.722 9.504c-.587 0-1.062-.085-1.424-.256-.363-.17-.624-.464-.784-.88-.15-.427-.224-1.019-.224-1.776v-3.536h-.944v-1.776h.944V29.84h2.128v2.128h2.048v1.776h-2.048v2.976c0 .416.016.741.048.976.042.235.128.4.256.496.128.096.325.144.592.144.075 0 .187-.005.336-.016l.448-.032c.15-.01.272-.021.368-.032l.064 1.712a14.37 14.37 0 01-1.264.176 3.762 3.762 0 01-.544.048zm9.122-.016c-.384 0-.736-.048-1.056-.144a2.334 2.334 0 01-.848-.416 2.696 2.696 0 01-.608-.784c-.16-.32-.282-.71-.368-1.168a9.205 9.205 0 01-.128-1.632c0-.917.112-1.69.336-2.32.235-.63.603-1.104 1.104-1.424.502-.33 1.168-.496 2-.496.16 0 .347.01.56.032.214.01.422.032.624.064.203.021.368.043.496.064v-3.264h2.144V40H75.26l-.016-.464a6.29 6.29 0 01-.592.288 5.174 5.174 0 01-.752.24 2.899 2.899 0 01-.784.112zm.544-1.792c.192 0 .384-.021.576-.064.203-.043.39-.09.56-.144.182-.064.326-.123.432-.176v-4.304a2.669 2.669 0 00-.384-.048 7.154 7.154 0 00-.496-.048 3.78 3.78 0 00-.464-.032c-.416 0-.741.096-.976.288-.224.192-.384.475-.48.848-.096.363-.144.805-.144 1.328 0 .459.032.843.096 1.152.064.299.155.539.272.72.128.17.278.293.448.368.17.075.358.112.56.112zm8.031 1.792c-.693 0-1.232-.144-1.616-.432-.373-.299-.64-.747-.8-1.344-.15-.597-.224-1.35-.224-2.256v-4.176h2.128v4.08c0 .565.027 1.013.08 1.344.064.33.187.565.368.704s.443.208.784.208c.33 0 .64-.043.928-.128.288-.085.517-.17.688-.256v-5.952h2.128V40h-2.112v-.496a7.022 7.022 0 01-1.088.496c-.352.117-.773.176-1.264.176zM91.46 40V28.688h2.128V40H91.46zm3.951 0v-8.032h2.128V40h-2.128zm0-9.312v-1.824h2.144v1.824h-2.144zM100.582 40l-1.904-8.032h2.288l1.344 6.224h.464l1.376-6.224h2.16L104.406 40h-3.824zm6.845 0v-8.032h2.128v.944c.181-.139.405-.283.672-.432.267-.16.555-.304.864-.432.32-.139.624-.23.912-.272v2.064a5.08 5.08 0 00-.88.224 9.445 9.445 0 00-1.568.64V40h-2.128zm8.842.176c-.886 0-1.59-.15-2.112-.448-.512-.299-.88-.752-1.104-1.36-.224-.608-.336-1.37-.336-2.288 0-.992.138-1.803.416-2.432.288-.63.704-1.093 1.248-1.392.544-.31 1.216-.464 2.016-.464 1.184 0 2.074.299 2.672.896.608.597.912 1.541.912 2.832l-.096 1.184h-5.024c.01.597.133 1.045.368 1.344.234.299.64.448 1.216.448.33 0 .693-.005 1.088-.016l1.168-.064c.394-.021.73-.043 1.008-.064l.048 1.488c-.267.043-.603.09-1.008.144-.406.053-.827.096-1.264.128-.427.043-.832.064-1.216.064zm-1.408-4.832h2.992c0-.725-.118-1.232-.352-1.52-.224-.288-.592-.432-1.104-.432-.342 0-.624.064-.848.192-.224.128-.395.336-.512.624-.118.288-.176.667-.176 1.136z" fill="#C63F3E"/></svg>