<svg width="363" height="68" fill="none" xmlns="http://www.w3.org/2000/svg"><rect width="363" height="68" rx="18" fill="#808BC5"/><path d="M344.707 34.707a1 1 0 000-1.414l-6.364-6.364a1 1 0 10-1.414 1.414L342.586 34l-5.657 5.657a1 1 0 101.414 1.414l6.364-6.364zM316 34v1h28v-2h-28v1zM23.12 40v-9.056h-2.944v-1.872h8v1.872h-2.848V40H23.12zm6.135 0v-8.032h2.128V40h-2.128zm0-9.312v-1.824h2.144v1.824h-2.144zM33.161 40v-8.032h2.128v.512c.16-.107.363-.208.608-.304.246-.107.502-.197.768-.272.278-.075.544-.112.8-.112.49 0 .89.07 1.2.208.31.128.566.32.768.576.192-.117.432-.235.72-.352.288-.117.603-.219.944-.304.342-.085.672-.128.992-.128.587 0 1.067.08 1.44.24.384.15.683.39.896.72.214.32.363.736.448 1.248.086.501.128 1.11.128 1.824V40h-2.128v-3.984c0-.555-.032-1.003-.096-1.344-.053-.352-.17-.608-.352-.768-.17-.16-.432-.24-.784-.24a3.1 3.1 0 00-.608.064 3.203 3.203 0 00-1.008.32c.054.224.09.512.112.864.032.352.048.72.048 1.104V40h-2.128v-3.952c0-.565-.032-1.024-.096-1.376-.053-.352-.17-.608-.352-.768-.181-.16-.442-.24-.784-.24-.192 0-.39.021-.592.064-.192.032-.373.08-.544.144-.16.064-.293.123-.4.176V40h-2.128zm16.78.176c-.886 0-1.59-.15-2.113-.448-.512-.299-.88-.752-1.104-1.36-.223-.608-.335-1.37-.335-2.288 0-.992.138-1.803.415-2.432.288-.63.704-1.093 1.248-1.392.544-.31 1.217-.464 2.017-.464 1.183 0 2.074.299 2.671.896.608.597.913 1.541.913 2.832l-.096 1.184h-5.025c.011.597.134 1.045.369 1.344.234.299.64.448 1.215.448.331 0 .694-.005 1.089-.016l1.168-.064c.394-.021.73-.043 1.008-.064l.047 1.488c-.266.043-.602.09-1.008.144-.405.053-.826.096-1.264.128-.426.043-.831.064-1.215.064zm-1.409-4.832h2.993c0-.725-.118-1.232-.352-1.52-.224-.288-.593-.432-1.105-.432-.34 0-.623.064-.847.192-.224.128-.395.336-.512.624-.118.288-.177.667-.177 1.136zm6.6 4.656V28.688h2.128V40h-2.128zm3.951 0v-8.032h2.128V40h-2.128zm0-9.312v-1.824h2.144v1.824h-2.144zM62.99 40v-8.032h2.128v.512a3.78 3.78 0 01.624-.304c.246-.107.502-.197.768-.272.278-.075.544-.112.8-.112.555 0 1.014.075 1.376.224.374.139.667.368.88.688.214.32.368.741.464 1.264.096.512.144 1.136.144 1.872V40H68.03v-4.048c0-.555-.032-.997-.096-1.328-.064-.341-.186-.587-.368-.736-.181-.15-.448-.224-.8-.224a3.1 3.1 0 00-.608.064c-.202.032-.4.08-.592.144-.181.064-.33.128-.448.192V40H62.99zm12.092.176c-.885 0-1.59-.15-2.112-.448-.512-.299-.88-.752-1.104-1.36-.224-.608-.336-1.37-.336-2.288 0-.992.139-1.803.416-2.432.288-.63.704-1.093 1.248-1.392.544-.31 1.216-.464 2.016-.464 1.184 0 2.075.299 2.672.896.608.597.912 1.541.912 2.832l-.096 1.184h-5.024c.01.597.133 1.045.368 1.344.235.299.64.448 1.216.448.33 0 .694-.005 1.088-.016l1.168-.064c.395-.021.73-.043 1.008-.064l.048 1.488c-.267.043-.603.09-1.008.144-.405.053-.827.096-1.264.128-.426.043-.832.064-1.216.064zm-1.408-4.832h2.992c0-.725-.117-1.232-.352-1.52-.224-.288-.592-.432-1.104-.432-.341 0-.624.064-.848.192-.224.128-.395.336-.512.624-.117.288-.176.667-.176 1.136z" fill="#C63F3E"/></svg>