<svg width="363" height="68" fill="none" xmlns="http://www.w3.org/2000/svg"><rect width="363" height="68" rx="18" fill="#EAA7C7"/><path d="M344.707 34.707a1 1 0 000-1.414l-6.364-6.364a1 1 0 10-1.414 1.414L342.586 34l-5.657 5.657a1 1 0 101.414 1.414l6.364-6.364zM316 34v1h28v-2h-28v1zM21.008 40V29.072h7.056v1.856h-4.848v3.296h3.968v1.856h-3.968V40h-2.208zm8.263 0v-8.032h2.128V40H29.27zm0-9.312v-1.824h2.144v1.824H29.27zM33.24 40V28.688h2.128V40H33.24zm3.952 0v-8.032h2.128v.512c.16-.107.362-.208.608-.304.245-.107.5-.197.767-.272.278-.075.544-.112.8-.112.491 0 .891.07 1.2.208.31.128.566.32.769.576.191-.117.431-.235.72-.352.287-.117.602-.219.944-.304.34-.085.672-.128.992-.128.586 0 1.066.08 1.44.24.383.15.682.39.895.72.214.32.363.736.448 1.248.086.501.128 1.11.128 1.824V40h-2.127v-3.984c0-.555-.032-1.003-.096-1.344-.054-.352-.171-.608-.352-.768-.171-.16-.432-.24-.785-.24a3.1 3.1 0 00-.607.064 3.205 3.205 0 00-1.008.32 5.2 5.2 0 01.111.864c.032.352.049.72.049 1.104V40h-2.128v-3.952c0-.565-.032-1.024-.096-1.376-.054-.352-.171-.608-.352-.768-.182-.16-.443-.24-.785-.24-.192 0-.389.021-.592.064-.192.032-.373.08-.544.144a5.41 5.41 0 00-.4.176V40h-2.127zm20.263.176c-.885 0-1.59-.15-2.112-.448-.512-.299-.88-.752-1.104-1.36-.224-.608-.336-1.37-.336-2.288 0-.992.139-1.803.416-2.432.288-.63.704-1.093 1.248-1.392.544-.31 1.216-.464 2.016-.464 1.184 0 2.075.299 2.672.896.608.597.912 1.541.912 2.832l-.096 1.184h-5.024c.01.597.133 1.045.368 1.344.235.299.64.448 1.216.448.33 0 .694-.005 1.088-.016l1.168-.064c.395-.021.73-.043 1.008-.064l.048 1.488c-.267.043-.602.09-1.008.144-.405.053-.827.096-1.264.128-.426.043-.832.064-1.216.064zm-1.408-4.832h2.992c0-.725-.117-1.232-.352-1.52-.224-.288-.592-.432-1.104-.432-.341 0-.624.064-.848.192-.224.128-.394.336-.512.624-.117.288-.176.667-.176 1.136zM61.833 40l2.144-4-2.144-4.032h2.304l1.424 2.784 1.44-2.784h2.176l-2.096 3.984L69.161 40h-2.32l-1.424-2.688L64.041 40h-2.208zm11.468.176c-.918 0-1.638-.139-2.16-.416-.512-.288-.875-.747-1.088-1.376-.203-.63-.304-1.456-.304-2.48 0-1.013.117-1.819.352-2.416.234-.608.613-1.04 1.136-1.296.533-.267 1.226-.4 2.08-.4.224 0 .485.016.784.048.298.032.597.075.896.128.309.043.57.085.784.128l-.08 1.712a11.061 11.061 0 00-.688-.048 19.111 19.111 0 00-.752-.048 6.625 6.625 0 00-.576-.032c-.459 0-.822.075-1.088.224-.256.139-.438.373-.544.704-.096.32-.144.752-.144 1.296 0 .587.048 1.056.144 1.408.096.352.266.603.512.752.256.15.629.224 1.12.224.149 0 .346-.005.592-.016l.752-.064c.266-.021.501-.037.704-.048l.064 1.712a14.3 14.3 0 01-.768.128c-.299.053-.603.096-.912.128-.299.032-.571.048-.816.048zm7.046 0c-.886 0-1.59-.15-2.112-.448-.512-.299-.88-.752-1.104-1.36-.224-.608-.336-1.37-.336-2.288 0-.992.138-1.803.416-2.432.288-.63.704-1.093 1.248-1.392.544-.31 1.216-.464 2.016-.464 1.184 0 2.074.299 2.672.896.608.597.912 1.541.912 2.832l-.096 1.184h-5.024c.01.597.133 1.045.368 1.344.234.299.64.448 1.216.448.33 0 .693-.005 1.088-.016l1.168-.064c.394-.021.73-.043 1.008-.064l.048 1.488c-.267.043-.603.09-1.008.144-.406.053-.827.096-1.264.128-.427.043-.832.064-1.216.064zm-1.408-4.832h2.992c0-.725-.118-1.232-.352-1.52-.224-.288-.592-.432-1.104-.432-.342 0-.624.064-.848.192-.224.128-.395.336-.512.624-.118.288-.176.667-.176 1.136zM85.474 40v-8.032h2.128v.944c.181-.139.405-.283.672-.432.266-.16.554-.304.864-.432.32-.139.624-.23.912-.272v2.064c-.278.043-.57.117-.88.224a9.434 9.434 0 00-1.568.64V40h-2.128zm5.687 3.376V31.968h2.112l.016.512c.15-.096.336-.197.56-.304.235-.107.486-.197.752-.272.267-.075.528-.112.784-.112.715 0 1.29.155 1.728.464.448.299.774.757.976 1.376.214.608.32 1.381.32 2.32 0 1.003-.117 1.813-.352 2.432-.234.619-.613 1.072-1.136 1.36-.512.288-1.19.432-2.032.432-.266 0-.554-.021-.864-.064a8.344 8.344 0 01-.736-.128v3.392h-2.128zm3.392-4.976c.427 0 .763-.09 1.008-.272.246-.181.416-.453.512-.816.107-.373.16-.843.16-1.408 0-.875-.122-1.477-.368-1.808-.234-.341-.576-.512-1.024-.512-.17 0-.352.021-.544.064a4.832 4.832 0 00-.56.16c-.181.064-.33.128-.448.192v4.288c.128.01.31.032.544.064.246.032.486.048.72.048zm8.096 1.792c-.587 0-1.061-.085-1.424-.256-.363-.17-.624-.464-.784-.88-.149-.427-.224-1.019-.224-1.776v-3.536h-.944v-1.776h.944V29.84h2.128v2.128h2.048v1.776h-2.048v2.976c0 .416.016.741.048.976.043.235.128.4.256.496.128.096.325.144.592.144.075 0 .187-.005.336-.016l.448-.032c.149-.01.272-.021.368-.032l.064 1.712a14.37 14.37 0 01-1.264.176 3.76 3.76 0 01-.544.048z" fill="#C63F3E"/></svg>