<svg width="363" height="68" fill="none" xmlns="http://www.w3.org/2000/svg"><rect width="363" height="68" rx="18" fill="#808BC5"/><path d="M344.707 34.707a1 1 0 000-1.414l-6.364-6.364a1 1 0 10-1.414 1.414L342.586 34l-5.657 5.657a1 1 0 101.414 1.414l6.364-6.364zM316 34v1h28v-2h-28v1zM21.008 40V29.072h7.056v1.856h-4.848v3.296h3.968v1.856h-3.968V40h-2.208zm7.95 0v-8.032h2.128v.944c.181-.139.405-.283.672-.432.267-.16.555-.304.864-.432.32-.139.624-.23.912-.272v2.064c-.277.043-.57.117-.88.224a9.455 9.455 0 00-1.568.64V40h-2.128zm5.688 0v-8.032h2.128V40h-2.128zm0-9.312v-1.824h2.144v1.824h-2.144zm6.802 9.488c-.352 0-.73-.021-1.136-.064a15.418 15.418 0 01-2-.288l.064-1.584c.277.032.587.07.928.112.352.043.693.08 1.024.112.341.021.618.032.832.032.32 0 .581-.027.784-.08.213-.053.373-.139.48-.256.107-.128.16-.31.16-.544 0-.181-.048-.32-.144-.416-.085-.096-.256-.176-.512-.24a8.494 8.494 0 00-1.088-.224c-.598-.085-1.094-.208-1.488-.368-.384-.16-.667-.395-.848-.704-.181-.32-.272-.752-.272-1.296 0-.661.144-1.179.432-1.552a2.262 2.262 0 011.152-.784 4.93 4.93 0 011.568-.24c.373 0 .757.021 1.152.064.395.032.768.075 1.12.128.352.053.645.107.88.16l-.064 1.616c-.267-.043-.576-.08-.928-.112a17.59 17.59 0 00-1.92-.128c-.245 0-.464.027-.656.08a.89.89 0 00-.448.224c-.096.107-.144.267-.144.48 0 .15.043.272.128.368.085.096.245.181.48.256a9.85 9.85 0 001.056.192c.661.096 1.19.23 1.584.4.395.17.677.416.848.736.181.32.272.752.272 1.296 0 .64-.128 1.152-.384 1.536-.256.384-.63.661-1.12.832-.49.17-1.088.256-1.792.256zm7.946 0c-.886 0-1.59-.15-2.112-.448-.512-.299-.88-.752-1.104-1.36-.224-.608-.336-1.37-.336-2.288 0-.992.138-1.803.416-2.432.288-.63.704-1.093 1.248-1.392.544-.31 1.216-.464 2.016-.464 1.184 0 2.074.299 2.672.896.608.597.912 1.541.912 2.832l-.096 1.184h-5.024c.01.597.133 1.045.368 1.344.234.299.64.448 1.216.448.33 0 .693-.005 1.088-.016l1.168-.064c.394-.021.73-.043 1.008-.064l.048 1.488c-.267.043-.603.09-1.008.144-.406.053-.827.096-1.264.128-.427.043-.832.064-1.216.064zm-1.408-4.832h2.992c0-.725-.118-1.232-.352-1.52-.224-.288-.592-.432-1.104-.432-.342 0-.624.064-.848.192-.224.128-.395.336-.512.624-.118.288-.176.667-.176 1.136zm13.299 4.832c-.917 0-1.637-.139-2.16-.416-.512-.288-.875-.747-1.088-1.376-.203-.63-.304-1.456-.304-2.48 0-1.013.117-1.819.352-2.416.235-.608.613-1.04 1.136-1.296.533-.267 1.227-.4 2.08-.4.224 0 .485.016.784.048.299.032.597.075.896.128.31.043.57.085.784.128l-.08 1.712a11.066 11.066 0 00-.688-.048 19.124 19.124 0 00-.752-.048 6.63 6.63 0 00-.576-.032c-.459 0-.821.075-1.088.224-.256.139-.437.373-.544.704-.096.32-.144.752-.144 1.296 0 .587.048 1.056.144 1.408.096.352.267.603.512.752.256.15.63.224 1.12.224.15 0 .347-.005.592-.016l.752-.064c.267-.021.501-.037.704-.048l.064 1.712a14.3 14.3 0 01-.768.128c-.299.053-.603.096-.912.128-.299.032-.57.048-.816.048zM65.161 40V28.688h2.128v3.568c.182-.064.395-.128.64-.192.256-.075.518-.139.784-.192a4.02 4.02 0 01.752-.08c.566 0 1.03.075 1.392.224.374.139.667.368.88.688.214.31.363.72.448 1.232.096.512.144 1.13.144 1.856V40h-2.144v-4.048c0-.555-.032-.997-.096-1.328-.064-.341-.186-.587-.368-.736-.17-.15-.437-.224-.8-.224-.192 0-.39.016-.592.048a5.302 5.302 0 00-1.04.272V40h-2.128zm8.844 0v-8.032h2.128v.944c.181-.139.405-.283.672-.432.267-.16.555-.304.864-.432.32-.139.624-.23.912-.272v2.064a5.08 5.08 0 00-.88.224 9.445 9.445 0 00-1.568.64V40h-2.128zm9.05.176c-.907 0-1.638-.15-2.192-.448-.544-.299-.939-.757-1.184-1.376-.246-.63-.368-1.44-.368-2.432 0-.96.128-1.739.384-2.336.256-.608.661-1.056 1.216-1.344.554-.299 1.27-.448 2.144-.448.885 0 1.6.15 2.144.448.554.288.96.736 1.216 1.344.266.597.4 1.376.4 2.336 0 .992-.123 1.803-.368 2.432-.246.619-.646 1.077-1.2 1.376-.544.299-1.275.448-2.192.448zm0-1.76c.448 0 .784-.08 1.008-.24.224-.17.373-.437.448-.8.085-.373.128-.859.128-1.456 0-.587-.048-1.05-.144-1.392-.096-.352-.256-.603-.48-.752-.224-.15-.544-.224-.96-.224-.406 0-.726.075-.96.224-.224.15-.384.4-.48.752-.096.341-.144.805-.144 1.392 0 .597.037 1.083.112 1.456.085.363.24.63.464.8.224.16.56.24 1.008.24zM88.27 40v-8.032h2.128v.512c.17-.107.378-.208.624-.304.245-.107.501-.197.768-.272.277-.075.544-.112.8-.112.554 0 1.013.075 1.376.224.373.139.666.368.88.688.213.32.368.741.464 1.264.096.512.144 1.136.144 1.872V40H93.31v-4.048c0-.555-.032-.997-.096-1.328-.064-.341-.187-.587-.368-.736-.182-.15-.448-.224-.8-.224-.192 0-.395.021-.608.064-.203.032-.4.08-.592.144-.182.064-.331.128-.448.192V40H88.27zm12.299.176c-.906 0-1.637-.15-2.192-.448-.544-.299-.938-.757-1.184-1.376-.245-.63-.368-1.44-.368-2.432 0-.96.128-1.739.384-2.336.256-.608.662-1.056 1.216-1.344.555-.299 1.27-.448 2.144-.448.886 0 1.6.15 2.144.448.555.288.96.736 1.216 1.344.267.597.4 1.376.4 2.336 0 .992-.122 1.803-.368 2.432-.245.619-.645 1.077-1.2 1.376-.544.299-1.274.448-2.192.448zm0-1.76c.448 0 .784-.08 1.008-.24.224-.17.374-.437.448-.8.086-.373.128-.859.128-1.456 0-.587-.048-1.05-.144-1.392-.096-.352-.256-.603-.48-.752-.224-.15-.544-.224-.96-.224-.405 0-.725.075-.96.224-.224.15-.384.4-.48.752-.096.341-.144.805-.144 1.392 0 .597.038 1.083.112 1.456.086.363.24.63.464.8.224.16.56.24 1.008.24zM105.85 40V28.688h2.128V40h-2.128zm7.408.176c-.907 0-1.637-.15-2.192-.448-.544-.299-.939-.757-1.184-1.376-.245-.63-.368-1.44-.368-2.432 0-.96.128-1.739.384-2.336.256-.608.661-1.056 1.216-1.344.555-.299 1.269-.448 2.144-.448.885 0 1.6.15 2.144.448.555.288.96.736 1.216 1.344.267.597.4 1.376.4 2.336 0 .992-.123 1.803-.368 2.432-.245.619-.645 1.077-1.2 1.376-.544.299-1.275.448-2.192.448zm0-1.76c.448 0 .784-.08 1.008-.24.224-.17.373-.437.448-.8.085-.373.128-.859.128-1.456 0-.587-.048-1.05-.144-1.392-.096-.352-.256-.603-.48-.752-.224-.15-.544-.224-.96-.224-.405 0-.725.075-.96.224-.224.15-.384.4-.48.752-.096.341-.144.805-.144 1.392 0 .597.037 1.083.112 1.456.085.363.24.63.464.8.224.16.56.24 1.008.24zm8.752 5.248c-.854 0-1.568-.064-2.144-.192-.566-.128-.992-.363-1.28-.704-.288-.33-.432-.81-.432-1.44 0-.277.037-.528.112-.752.085-.213.213-.416.384-.608.181-.192.405-.39.672-.592a1.163 1.163 0 01-.368-.464 1.822 1.822 0 01-.128-.688c0-.085.037-.197.112-.336a4.18 4.18 0 01.272-.464c.106-.16.208-.304.304-.432a2.198 2.198 0 01-.608-.416 2.254 2.254 0 01-.48-.768c-.118-.32-.176-.73-.176-1.232 0-.683.128-1.227.384-1.632.266-.405.65-.699 1.152-.88.501-.181 1.109-.272 1.824-.272.277 0 .576.021.896.064.32.043.576.085.768.128l2.608-.048v1.44l-1.216-.016c.096.128.181.293.256.496.085.192.128.432.128.72 0 .736-.128 1.307-.384 1.712-.246.405-.619.688-1.12.848-.502.15-1.136.224-1.904.224-.086 0-.203-.005-.352-.016-.15-.021-.272-.037-.368-.048-.043.107-.086.23-.128.368a1.005 1.005 0 00-.064.272c0 .117.021.208.064.272a.59.59 0 00.272.16c.138.032.336.053.592.064.266.01.618.016 1.056.016.757 0 1.36.07 1.808.208.458.139.784.384.976.736.192.352.288.848.288 1.488 0 .95-.336 1.648-1.008 2.096-.662.459-1.584.688-2.768.688zm-.112-1.584c.661 0 1.136-.08 1.424-.24.298-.15.448-.4.448-.752 0-.277-.054-.48-.16-.608-.096-.128-.262-.213-.496-.256a7.49 7.49 0 00-.96-.048 5.47 5.47 0 01-.384-.016c-.15 0-.304-.005-.464-.016-.15 0-.288-.005-.416-.016a3.19 3.19 0 00-.256-.016c-.15.107-.272.208-.368.304-.086.096-.15.192-.192.288a1.347 1.347 0 00-.048.384c0 .245.058.437.176.576.117.15.309.256.576.32.277.064.65.096 1.12.096zm-.272-6.224c.49 0 .837-.096 1.04-.288.213-.203.32-.533.32-.992 0-.459-.107-.79-.32-.992-.203-.203-.55-.304-1.04-.304-.47 0-.811.101-1.024.304-.203.203-.304.533-.304.992 0 .459.101.79.304.992.213.192.554.288 1.024.288zM127.005 40v-8.032h2.128V40h-2.128zm0-9.312v-1.824h2.144v1.824h-2.144zm8.69 12.688v-3.632a8.11 8.11 0 01-.928.272c-.384.107-.741.16-1.072.16-.746 0-1.349-.15-1.808-.448-.448-.31-.773-.768-.976-1.376-.202-.608-.304-1.355-.304-2.24 0-1.067.134-1.915.4-2.544.267-.64.694-1.093 1.28-1.36.598-.277 1.382-.416 2.352-.416.246 0 .555.01.928.032.384.021.779.048 1.184.08.416.021.779.048 1.088.08v11.392h-2.144zm-1.488-5.008c.278 0 .555-.032.832-.096.278-.075.496-.144.656-.208v-4.432a5.317 5.317 0 00-.528-.048c-.213-.01-.394-.016-.544-.016-.501 0-.885.096-1.152.288-.266.181-.448.459-.544.832-.096.373-.144.837-.144 1.392 0 .81.107 1.397.32 1.76.224.352.592.528 1.104.528zm7.952 1.808c-.694 0-1.232-.144-1.616-.432-.374-.299-.64-.747-.8-1.344-.15-.597-.224-1.35-.224-2.256v-4.176h2.128v4.08c0 .565.026 1.013.08 1.344.064.33.186.565.368.704.181.139.442.208.784.208.33 0 .64-.043.928-.128.288-.085.517-.17.688-.256v-5.952h2.128V40h-2.112v-.496a7.065 7.065 0 01-1.088.496c-.352.117-.774.176-1.264.176zm9.469 0c-.885 0-1.589-.15-2.112-.448-.512-.299-.88-.752-1.104-1.36-.224-.608-.336-1.37-.336-2.288 0-.992.139-1.803.416-2.432.288-.63.704-1.093 1.248-1.392.544-.31 1.216-.464 2.016-.464 1.184 0 2.075.299 2.672.896.608.597.912 1.541.912 2.832l-.096 1.184h-5.024c.011.597.133 1.045.368 1.344.235.299.64.448 1.216.448.331 0 .693-.005 1.088-.016l1.168-.064c.395-.021.731-.043 1.008-.064l.048 1.488c-.267.043-.603.09-1.008.144-.405.053-.827.096-1.264.128-.427.043-.832.064-1.216.064zm-1.408-4.832h2.992c0-.725-.117-1.232-.352-1.52-.224-.288-.592-.432-1.104-.432-.341 0-.624.064-.848.192-.224.128-.395.336-.512.624-.117.288-.176.667-.176 1.136z" fill="#C63F3E"/></svg>