<svg width="363" height="68" fill="none" xmlns="http://www.w3.org/2000/svg"><rect width="363" height="68" rx="18" fill="#EAA7C7"/><path d="M344.707 34.707a1 1 0 000-1.414l-6.364-6.364a1 1 0 10-1.414 1.414L342.586 34l-5.657 5.657a1 1 0 101.414 1.414l6.364-6.364zM316 34v1h28v-2h-28v1zM21.008 40V29.072h4.112c.907 0 1.659.128 2.256.384a2.599 2.599 0 011.344 1.2c.31.555.464 1.296.464 2.224 0 .928-.155 1.685-.464 2.272a2.799 2.799 0 01-1.344 1.28c-.597.267-1.35.4-2.256.4h-1.904V40h-2.208zm2.208-4.976h1.84c.672 0 1.152-.176 1.44-.528.288-.363.432-.896.432-1.6 0-.725-.144-1.243-.432-1.552-.288-.31-.768-.464-1.44-.464h-1.84v4.144zm10.557 5.152c-.906 0-1.637-.15-2.192-.448-.543-.299-.938-.757-1.183-1.376-.246-.63-.369-1.44-.369-2.432 0-.96.128-1.739.384-2.336.256-.608.662-1.056 1.216-1.344.555-.299 1.27-.448 2.144-.448.886 0 1.6.15 2.144.448.555.288.96.736 1.216 1.344.267.597.4 1.376.4 2.336 0 .992-.122 1.803-.367 2.432-.246.619-.646 1.077-1.2 1.376-.544.299-1.275.448-2.193.448zm0-1.76c.448 0 .784-.08 1.008-.24.224-.17.374-.437.449-.8.085-.373.128-.859.128-1.456 0-.587-.048-1.05-.144-1.392-.096-.352-.256-.603-.48-.752-.224-.15-.544-.224-.96-.224-.406 0-.726.075-.96.224-.224.15-.385.4-.48.752-.097.341-.145.805-.145 1.392 0 .597.038 1.083.112 1.456.086.363.24.63.465.8.224.16.56.24 1.008.24zm5.216 4.96V31.968h2.112l.016.512c.15-.096.336-.197.56-.304.235-.107.486-.197.752-.272.267-.075.528-.112.784-.112.715 0 1.291.155 1.728.464.448.299.774.757.976 1.376.214.608.32 1.381.32 2.32 0 1.003-.117 1.813-.352 2.432-.234.619-.613 1.072-1.136 1.36-.512.288-1.189.432-2.032.432-.266 0-.554-.021-.864-.064a8.344 8.344 0 01-.736-.128v3.392H38.99zm3.392-4.976c.427 0 .763-.09 1.008-.272.246-.181.416-.453.512-.816.107-.373.16-.843.16-1.408 0-.875-.122-1.477-.368-1.808-.234-.341-.576-.512-1.024-.512-.17 0-.352.021-.544.064a4.832 4.832 0 00-.56.16c-.181.064-.33.128-.448.192v4.288c.128.01.31.032.544.064.246.032.486.048.72.048zm7.871 1.776c-.693 0-1.232-.144-1.616-.432-.373-.299-.64-.747-.8-1.344-.149-.597-.224-1.35-.224-2.256v-4.176h2.128v4.08c0 .565.027 1.013.08 1.344.065.33.187.565.368.704.182.139.443.208.784.208.331 0 .64-.043.928-.128.288-.085.518-.17.689-.256v-5.952h2.128V40h-2.112v-.496a7.022 7.022 0 01-1.088.496c-.353.117-.774.176-1.265.176zM56.538 40V28.688h2.128V40h-2.128zm6.047.176c-.832 0-1.461-.208-1.888-.624-.416-.427-.624-1.067-.624-1.92 0-.597.107-1.061.32-1.392.214-.341.528-.587.944-.736.427-.16.944-.256 1.552-.288l1.952-.176v-.48c0-.384-.096-.65-.288-.8-.192-.16-.474-.24-.848-.24-.298 0-.645.01-1.04.032-.384.021-.768.048-1.152.08a33.9 33.9 0 00-.976.096l-.064-1.504c.278-.064.608-.128.992-.192.395-.075.806-.133 1.232-.176.427-.043.822-.064 1.184-.064.683 0 1.254.085 1.712.256.459.17.806.453 1.04.848.235.384.352.907.352 1.568v3.664a.48.48 0 00.24.352c.139.075.299.128.48.16l-.048 1.472h-.512c-.16.01-.314.01-.464 0-.149 0-.282-.01-.4-.032a1.877 1.877 0 01-.64-.192 1.905 1.905 0 01-.416-.304c-.17.075-.4.16-.688.256a7.164 7.164 0 01-.944.24c-.33.064-.666.096-1.008.096zm.512-1.584c.203 0 .416-.021.64-.064.224-.043.432-.09.624-.144.203-.064.363-.123.48-.176v-1.84l-1.632.144c-.352.032-.608.139-.768.32-.149.17-.224.416-.224.736s.07.57.208.752c.15.181.374.272.672.272zM68.864 40v-8.032h2.128v.944c.182-.139.406-.283.672-.432.267-.16.555-.304.864-.432.32-.139.624-.23.912-.272v2.064c-.277.043-.57.117-.88.224a9.434 9.434 0 00-1.568.64V40h-2.128zm5.688 0v-8.032h2.128V40h-2.128zm0-9.312v-1.824h2.144v1.824h-2.144zM78.138 40v-1.808l3.632-4.336h-3.632v-1.888h6.432v1.744l-3.664 4.4h3.68V40h-6.448zm9.963.176c-.832 0-1.461-.208-1.888-.624-.416-.427-.624-1.067-.624-1.92 0-.597.107-1.061.32-1.392.213-.341.528-.587.944-.736.427-.16.944-.256 1.552-.288l1.952-.176v-.48c0-.384-.096-.65-.288-.8-.192-.16-.475-.24-.848-.24-.299 0-.645.01-1.04.032-.384.021-.768.048-1.152.08-.373.032-.699.064-.976.096l-.064-1.504c.277-.064.608-.128.992-.192.395-.075.805-.133 1.232-.176.427-.043.821-.064 1.184-.064.683 0 1.253.085 1.712.256.459.17.805.453 1.04.848.235.384.352.907.352 1.568v3.664a.48.48 0 00.24.352c.139.075.299.128.48.16l-.048 1.472h-.512c-.16.01-.315.01-.464 0-.15 0-.283-.01-.4-.032a1.878 1.878 0 01-.64-.192 1.908 1.908 0 01-.416-.304c-.17.075-.4.16-.688.256a7.164 7.164 0 01-.944.24c-.33.064-.667.096-1.008.096zm.512-1.584c.203 0 .416-.021.64-.064.224-.043.432-.09.624-.144.203-.064.363-.123.48-.176v-1.84l-1.632.144c-.352.032-.608.139-.768.32-.15.17-.224.416-.224.736s.07.57.208.752c.15.181.373.272.672.272zm8.49 1.6c-.587 0-1.062-.085-1.425-.256-.362-.17-.624-.464-.784-.88-.15-.427-.224-1.019-.224-1.776v-3.536h-.944v-1.776h.944V29.84h2.128v2.128h2.048v1.776h-2.048v2.976c0 .416.016.741.048.976.043.235.128.4.256.496.128.096.326.144.592.144.075 0 .187-.005.336-.016l.448-.032c.15-.01.272-.021.368-.032l.064 1.712a14.37 14.37 0 01-1.264.176 3.762 3.762 0 01-.544.048zm2.933-.192v-8.032h2.128V40h-2.128zm0-9.312v-1.824h2.144v1.824h-2.144zm7.363 9.488c-.907 0-1.638-.15-2.192-.448-.544-.299-.939-.757-1.184-1.376-.246-.63-.368-1.44-.368-2.432 0-.96.128-1.739.384-2.336.256-.608.661-1.056 1.216-1.344.554-.299 1.269-.448 2.144-.448.885 0 1.6.15 2.144.448.554.288.96.736 1.216 1.344.266.597.4 1.376.4 2.336 0 .992-.123 1.803-.368 2.432-.246.619-.646 1.077-1.2 1.376-.544.299-1.275.448-2.192.448zm0-1.76c.448 0 .784-.08 1.008-.24.224-.17.373-.437.448-.8.085-.373.128-.859.128-1.456 0-.587-.048-1.05-.144-1.392-.096-.352-.256-.603-.48-.752-.224-.15-.544-.224-.96-.224-.406 0-.726.075-.96.224-.224.15-.384.4-.48.752-.096.341-.144.805-.144 1.392 0 .597.037 1.083.112 1.456.085.363.24.63.464.8.224.16.56.24 1.008.24zM112.614 40v-8.032h2.128v.512c.171-.107.379-.208.624-.304.246-.107.502-.197.768-.272.278-.075.544-.112.8-.112.555 0 1.014.075 1.376.224.374.139.667.368.88.688.214.32.368.741.464 1.264.096.512.144 1.136.144 1.872V40h-2.144v-4.048c0-.555-.032-.997-.096-1.328-.064-.341-.186-.587-.368-.736-.181-.15-.448-.224-.8-.224-.192 0-.394.021-.608.064-.202.032-.4.08-.592.144a3.17 3.17 0 00-.448.192V40h-2.128z" fill="#C63F3E"/></svg>