<svg width="363" height="68" fill="none" xmlns="http://www.w3.org/2000/svg"><rect width="363" height="68" rx="18" fill="#9ED6DF"/><path d="M344.707 34.707a1 1 0 000-1.414l-6.364-6.364a1 1 0 10-1.414 1.414L342.586 34l-5.657 5.657a1 1 0 101.414 1.414l6.364-6.364zM316 34v1h28v-2h-28v1zM20.192 40l2.784-10.928h3.856L29.6 40h-2.208l-.608-2.208H22.96L22.384 40h-2.192zm3.12-3.984h3.152l-1.232-5.152h-.672l-1.248 5.152zm9.8 4.16c-.694 0-1.232-.144-1.616-.432-.373-.299-.64-.747-.8-1.344-.15-.597-.224-1.35-.224-2.256v-4.176H32.6v4.08c0 .565.026 1.013.08 1.344.064.33.187.565.368.704s.442.208.784.208c.33 0 .64-.043.928-.128.288-.085.517-.17.688-.256v-5.952h2.128V40h-2.112v-.496a7.026 7.026 0 01-1.088.496c-.352.117-.773.176-1.264.176zm9.037.016c-.587 0-1.061-.085-1.424-.256-.363-.17-.624-.464-.784-.88-.15-.427-.224-1.019-.224-1.776v-3.536h-.944v-1.776h.944V29.84h2.128v2.128h2.048v1.776h-2.048v2.976c0 .416.016.741.048.976.043.235.128.4.256.496.128.096.325.144.592.144.075 0 .187-.005.336-.016l.448-.032c.15-.01.272-.021.368-.032l.064 1.712a14.37 14.37 0 01-1.264.176 3.76 3.76 0 01-.544.048zM45.083 40v-8.032h2.128v.944c.181-.139.406-.283.672-.432.267-.16.555-.304.864-.432.32-.139.624-.23.912-.272v2.064c-.277.043-.57.117-.88.224a9.455 9.455 0 00-1.568.64V40h-2.128zm8.842.176c-.886 0-1.59-.15-2.112-.448-.512-.299-.88-.752-1.104-1.36-.224-.608-.336-1.37-.336-2.288 0-.992.139-1.803.416-2.432.288-.63.704-1.093 1.248-1.392.544-.31 1.216-.464 2.016-.464 1.184 0 2.075.299 2.672.896.608.597.912 1.541.912 2.832l-.096 1.184h-5.024c.01.597.133 1.045.368 1.344.235.299.64.448 1.216.448.33 0 .693-.005 1.088-.016l1.168-.064c.395-.021.73-.043 1.008-.064l.048 1.488c-.267.043-.603.09-1.008.144-.406.053-.827.096-1.264.128-.427.043-.832.064-1.216.064zm-1.408-4.832h2.992c0-.725-.117-1.232-.352-1.52-.224-.288-.592-.432-1.104-.432-.341 0-.624.064-.848.192-.224.128-.395.336-.512.624-.117.288-.176.667-.176 1.136zm9.43 4.832c-.351 0-.73-.021-1.135-.064a15.418 15.418 0 01-2-.288l.064-1.584c.277.032.587.07.928.112.352.043.693.08 1.024.112.341.021.618.032.832.032.32 0 .581-.027.784-.08.213-.053.373-.139.48-.256.107-.128.16-.31.16-.544 0-.181-.048-.32-.144-.416-.085-.096-.256-.176-.512-.24a8.494 8.494 0 00-1.088-.224c-.598-.085-1.094-.208-1.488-.368-.384-.16-.667-.395-.848-.704-.181-.32-.272-.752-.272-1.296 0-.661.144-1.179.432-1.552a2.262 2.262 0 011.152-.784 4.93 4.93 0 011.568-.24c.373 0 .757.021 1.152.064.395.032.768.075 1.12.128.352.053.645.107.88.16l-.064 1.616c-.267-.043-.576-.08-.928-.112a17.59 17.59 0 00-1.92-.128c-.245 0-.464.027-.656.08a.89.89 0 00-.448.224c-.096.107-.144.267-.144.48 0 .15.043.272.128.368.085.096.245.181.48.256a9.85 9.85 0 001.056.192c.661.096 1.19.23 1.584.4.395.17.677.416.848.736.181.32.272.752.272 1.296 0 .64-.128 1.152-.384 1.536-.256.384-.63.661-1.12.832-.49.17-1.088.256-1.792.256zm8.183 3.2V31.968h2.112l.016.512c.15-.096.336-.197.56-.304.235-.107.485-.197.752-.272.267-.075.528-.112.784-.112.715 0 1.29.155 1.728.464.448.299.773.757.976 1.376.213.608.32 1.381.32 2.32 0 1.003-.117 1.813-.352 2.432s-.613 1.072-1.136 1.36c-.512.288-1.19.432-2.032.432-.267 0-.555-.021-.864-.064a8.35 8.35 0 01-.736-.128v3.392H70.13zm3.392-4.976c.427 0 .763-.09 1.008-.272.245-.181.416-.453.512-.816.107-.373.16-.843.16-1.408 0-.875-.123-1.477-.368-1.808-.235-.341-.576-.512-1.024-.512-.17 0-.352.021-.544.064a4.832 4.832 0 00-.56.16 3.12 3.12 0 00-.448.192v4.288c.128.01.31.032.544.064.245.032.485.048.72.048zm5.311 1.6v-8.032h2.128v.944c.181-.139.406-.283.672-.432.267-.16.555-.304.864-.432.32-.139.624-.23.912-.272v2.064c-.277.043-.57.117-.88.224a9.455 9.455 0 00-1.568.64V40h-2.128zm9.05.176c-.907 0-1.637-.15-2.192-.448-.544-.299-.939-.757-1.184-1.376-.246-.63-.368-1.44-.368-2.432 0-.96.128-1.739.384-2.336.256-.608.661-1.056 1.216-1.344.554-.299 1.27-.448 2.144-.448.885 0 1.6.15 2.144.448.555.288.96.736 1.216 1.344.267.597.4 1.376.4 2.336 0 .992-.123 1.803-.368 2.432-.246.619-.646 1.077-1.2 1.376-.544.299-1.275.448-2.192.448zm0-1.76c.448 0 .784-.08 1.008-.24.224-.17.373-.437.448-.8.085-.373.128-.859.128-1.456 0-.587-.048-1.05-.144-1.392-.096-.352-.256-.603-.48-.752-.224-.15-.544-.224-.96-.224-.405 0-.725.075-.96.224-.224.15-.384.4-.48.752-.096.341-.144.805-.144 1.392 0 .597.037 1.083.112 1.456.085.363.24.63.464.8.224.16.56.24 1.008.24zm4.24 5.136l-.752-1.632c.373-.203.672-.384.896-.544a1.8 1.8 0 00.528-.48c.117-.16.197-.352.24-.576.042-.224.064-.512.064-.864v-7.488h2.144v7.456c0 .608-.048 1.115-.144 1.52a2.408 2.408 0 01-.48 1.056c-.224.299-.539.565-.944.8-.406.235-.923.485-1.552.752zm.976-12.88v-1.808h2.144v1.808h-2.144zm7.154 9.504c-.885 0-1.59-.15-2.112-.448-.512-.299-.88-.752-1.104-1.36-.224-.608-.336-1.37-.336-2.288 0-.992.139-1.803.416-2.432.288-.63.704-1.093 1.248-1.392.544-.31 1.216-.464 2.016-.464 1.184 0 2.075.299 2.672.896.608.597.912 1.541.912 2.832l-.096 1.184h-5.024c.01.597.133 1.045.368 1.344.235.299.64.448 1.216.448.331 0 .693-.005 1.088-.016l1.168-.064c.395-.021.731-.043 1.008-.064l.048 1.488c-.267.043-.603.09-1.008.144-.405.053-.827.096-1.264.128-.427.043-.832.064-1.216.064zm-1.408-4.832h2.992c0-.725-.117-1.232-.352-1.52-.224-.288-.592-.432-1.104-.432-.341 0-.624.064-.848.192-.224.128-.395.336-.512.624-.117.288-.176.667-.176 1.136zm9.32 4.848c-.587 0-1.062-.085-1.424-.256-.363-.17-.624-.464-.784-.88-.15-.427-.224-1.019-.224-1.776v-3.536h-.944v-1.776h.944V29.84h2.128v2.128h2.048v1.776h-2.048v2.976c0 .416.016.741.048.976.042.235.128.4.256.496.128.096.325.144.592.144.074 0 .186-.005.336-.016l.448-.032c.149-.01.272-.021.368-.032l.064 1.712a14.37 14.37 0 01-1.264.176 3.772 3.772 0 01-.544.048zm5.83-.016c-.352 0-.731-.021-1.136-.064a15.273 15.273 0 01-2-.288l.064-1.584c.277.032.586.07.928.112.352.043.693.08 1.024.112.341.021.618.032.832.032.32 0 .581-.027.784-.08.213-.053.373-.139.48-.256.106-.128.16-.31.16-.544 0-.181-.048-.32-.144-.416-.086-.096-.256-.176-.512-.24a8.517 8.517 0 00-1.088-.224c-.598-.085-1.094-.208-1.488-.368-.384-.16-.667-.395-.848-.704-.182-.32-.272-.752-.272-1.296 0-.661.144-1.179.432-1.552a2.262 2.262 0 011.152-.784c.48-.16 1.002-.24 1.568-.24.373 0 .757.021 1.152.064.394.032.768.075 1.12.128.352.053.645.107.88.16l-.064 1.616c-.267-.043-.576-.08-.928-.112a17.59 17.59 0 00-1.92-.128c-.246 0-.464.027-.656.08a.887.887 0 00-.448.224c-.096.107-.144.267-.144.48 0 .15.042.272.128.368.085.096.245.181.48.256.245.064.597.128 1.056.192.661.096 1.189.23 1.584.4.394.17.677.416.848.736.181.32.272.752.272 1.296 0 .64-.128 1.152-.384 1.536-.256.384-.63.661-1.12.832-.491.17-1.088.256-1.792.256z" fill="#C63F3E"/></svg>