<svg width="391" height="70" fill="none" xmlns="http://www.w3.org/2000/svg"><path d="M.14 44.883l2.977-16.489c.016-.062.055-.093.117-.093h3.48c.063 0 .102.031.118.094l2.86 16.488c.007.078-.024.117-.094.117h-2.66c-.079 0-.122-.04-.13-.117l-.257-1.758H3.28l-.258 1.758c-.007.078-.046.117-.117.117H.234c-.062 0-.093-.04-.093-.117zM5.087 33.82l-.14-.89-.106.89-1.078 6.739H6.07l-.984-6.739zM183.258 45h-2.707c-.071 0-.106-.04-.106-.117V31.195h-3.117c-.078 0-.117-.039-.117-.117l.023-2.683c0-.063.032-.094.094-.094h9.117c.086 0 .129.031.129.094v2.683c0 .078-.031.117-.094.117h-3.152l.024 13.688c0 .078-.032.117-.094.117zm88.031-5.11c-.117.172-.23.31-.34.41a.563.563 0 01-.398.153c-.149 0-.289-.113-.422-.34-.125-.234-.188-.582-.188-1.043 0-.468.102-.933.305-1.394.203-.461.469-.89.797-1.29a9.214 9.214 0 011.125-1.16l2.578-2.074c1.484-1.18 2.227-2.293 2.227-3.34 0-.53-.145-.94-.434-1.23a1.423 1.423 0 00-1.043-.434c-.406 0-.746.075-1.019.223-.274.14-.5.32-.68.54-.352.429-.527.886-.527 1.37 0 .328.054.614.164.856.117.234.175.394.175.48 0 .078-.039.188-.117.328-.078.14-.191.274-.34.399-.351.281-.699.422-1.043.422-.336 0-.586-.055-.75-.164a1.565 1.565 0 01-.398-.446c-.195-.328-.293-.73-.293-1.207 0-.476.105-.965.316-1.465.211-.5.516-.953.914-1.359.891-.898 2.043-1.348 3.457-1.348 1.071 0 1.95.332 2.637.996.672.665 1.008 1.504 1.008 2.52 0 1.773-.805 3.277-2.414 4.512l-1.465 1.101c-1.328.977-2.32 1.875-2.976 2.696-.18.242-.34.476-.481.703-.133.218-.258.414-.375.586zm-2.859 2.063c.351-.289.695-.434 1.031-.434.344 0 .633.024.867.07.242.048.469.122.68.224.484.25.726.609.726 1.078 0 .586-.191 1.097-.574 1.535-.406.46-.863.691-1.371.691h-.082c-.5 0-.934-.187-1.301-.562-.336-.36-.504-.742-.504-1.149 0-.68.176-1.164.528-1.453z" fill="#C63F3E"/><path d="M12.162 49.704V32.28h2.28v2.016h.144c.192-.304.448-.632.768-.984.336-.352.776-.648 1.32-.888.544-.256 1.216-.384 2.016-.384.96 0 1.8.192 2.52.576.72.368 1.32.872 1.8 1.512a6.6 6.6 0 011.08 2.112 8.155 8.155 0 010 4.8c-.24.784-.6 1.496-1.08 2.136a5.51 5.51 0 01-1.8 1.512c-.72.368-1.56.552-2.52.552-.8 0-1.472-.128-2.016-.384s-.984-.56-1.32-.912a8.36 8.36 0 01-.768-.96h-.144v6.72h-2.28zM14.49 38.64c0 .768.136 1.512.408 2.232a4.394 4.394 0 001.272 1.752c.576.448 1.288.672 2.136.672.864 0 1.576-.224 2.136-.672a4.11 4.11 0 001.272-1.752c.288-.72.432-1.464.432-2.232 0-.784-.144-1.528-.432-2.232a3.944 3.944 0 00-1.272-1.728c-.56-.464-1.272-.696-2.136-.696-.848 0-1.56.232-2.136.696a4.207 4.207 0 00-1.272 1.728 6.139 6.139 0 00-.408 2.232zM94.77 45c-.16 0-.28-.232-.36-.696a.213.213 0 00-.025-.096c0-.032.008-.072.024-.12 0-.352.096-.552.288-.6.448-.064.88-.16 1.296-.288.096-.032.312-.096.648-.192.752.016 1.144-.16 1.176-.528.016-.256.024-.6.024-1.032 0-.512-.008-.968-.024-1.368v-2.16c.016-.784 0-1.536-.048-2.256l-.024-1.2c0-.544.008-.952.024-1.224l.072-2.328-2.112.672c-.512.112-.816.168-.912.168-.176 0-.264-.04-.264-.12a.55.55 0 01-.072-.288c-.016-.624 0-1.032.048-1.224.064-.16.272-.312.624-.456 1.568-.08 3.256-.568 5.064-1.464.208-.064.408-.096.6-.096.176 0 .312.032.408.096.096.048.144.12.144.216 0 .544-.016 1.216-.048 2.016l-.024.864-.144 2.208v1.68l.072 1.464c.032.512.048 1.216.048 2.112.016.176.024.568.024 1.176 0 1.6.056 2.672.168 3.216 1.904.08 2.856.192 2.856.336l.072 1.032c.032.32-.144.48-.528.48-.672 0-1.28-.032-1.824-.096-.272-.032-.72-.064-1.344-.096-.768.048-1.8.096-3.096.144l-.936-.024c-.56 0-1.192.024-1.896.072zm108.365-9.24c-.288 0-.496-.064-.624-.192s-.328-.4-.6-.816l-2.928-4.464c-.096-.16-.208-.264-.336-.312a.852.852 0 00-.384-.096h-.408c-.208 0-.368.064-.48.192-.096.112-.144.296-.144.552V42.84h.24V30.624c0-.128.024-.24.072-.336.048-.112.152-.168.312-.168h.36c.112 0 .208.016.288.048.096.032.192.128.288.288l2.928 4.416c.288.432.504.728.648.888.16.16.416.24.768.24.352 0 .6-.08.744-.24.16-.16.384-.456.672-.888l2.928-4.416c.096-.16.184-.256.264-.288a.775.775 0 01.288-.048h.36c.16 0 .264.056.312.168a.592.592 0 01.096.336V42.84h.24V30.624c0-.256-.056-.44-.168-.552-.096-.128-.256-.192-.48-.192h-.408a.852.852 0 00-.384.096c-.112.048-.216.152-.312.312l-2.928 4.464c-.272.416-.472.688-.6.816s-.336.192-.624.192zM199.127 45h-3.576c-.304 0-.528-.064-.672-.192-.128-.144-.192-.368-.192-.672V28.584c0-.304.064-.52.192-.648.144-.144.368-.216.672-.216h3.864c.256 0 .464.056.624.168.176.112.336.296.48.552l2.16 3.912c.08.144.144.248.192.312a.326.326 0 00.24.096h.216c.096 0 .168-.032.216-.096.064-.064.136-.168.216-.312l2.136-3.912c.144-.256.296-.44.456-.552.176-.112.392-.168.648-.168h3.888c.304 0 .52.072.648.216.144.128.216.344.216.648v15.552c0 .304-.072.528-.216.672-.128.128-.344.192-.648.192h-3.696c-.304 0-.528-.064-.672-.192-.128-.144-.192-.368-.192-.672v-8.448l-1.416 2.616c-.144.272-.32.472-.528.6-.192.112-.44.168-.744.168h-.96c-.304 0-.56-.056-.768-.168-.192-.128-.36-.328-.504-.6l-1.416-2.616v8.448c0 .304-.072.528-.216.672-.128.128-.344.192-.648.192z" fill="#808BC5"/><path d="M36.386 28.248c.96.64 1.728 1.504 2.304 2.592.592 1.088 1 2.152 1.224 3.192.24 1.024.36 1.832.36 2.424 0 .992-.16 2.144-.48 3.456-.304 1.312-.968 2.536-1.992 3.672-1.024 1.12-2.504 1.68-4.44 1.68-2.656 0-4.544-1.544-5.664-4.632-.496-1.392-.776-2.944-.84-4.656 0-1.408.296-2.744.888-4.008.592-1.28 1.368-2.304 2.328-3.072.976-.768 1.976-1.152 3-1.152.928 0 1.616.024 2.064.072.464.048.88.192 1.248.432zM33.242 43.92c1.696 0 2.96-.704 3.792-2.112.832-1.424 1.248-3.208 1.248-5.352 0-1.312-.2-2.52-.6-3.624-.384-1.12-.936-2.008-1.656-2.664-.704-.672-1.52-1.008-2.448-1.008h-.648c-.336 0-.632.056-.888.168-.256.112-.488.28-.696.504a20.577 20.577 0 00-1.344 1.464c-.352.432-.712 1.08-1.08 1.944-.352.864-.528 1.864-.528 3 0 1.344.16 2.6.48 3.768.336 1.152.864 2.096 1.584 2.832.72.72 1.648 1.08 2.784 1.08zm95.371 1.267c-.937 0-1.656-.195-2.156-.585-.492-.391-.828-.934-1.008-1.63-.179-.703-.269-1.523-.269-2.46v-13.09h4.218V40.02c0 .703.055 1.195.164 1.476.11.273.368.41.774.41.437 0 .711-.195.82-.586.117-.39.176-.894.176-1.511V27.422h4.184V45h-4.196v-1.875c-.265.672-.586 1.184-.961 1.535-.367.352-.949.528-1.746.528zm110.567.047a4.426 4.426 0 01-2.344-.656 4.953 4.953 0 01-1.723-1.758 4.824 4.824 0 01-.633-2.425l.047-12c0-.063.032-.094.094-.094h2.695c.063 0 .094.031.094.094v12c0 .539.172 1 .516 1.382.344.375.762.563 1.254.563.515 0 .945-.188 1.289-.563a2 2 0 00.515-1.383v-12c0-.062.032-.093.094-.093h2.695c.063 0 .094.031.094.094l.047 12c0 .882-.211 1.695-.633 2.437-.429.734-1 1.32-1.711 1.758-.711.43-1.508.644-2.39.644z" fill="#245455"/><path d="M44.779 29.784c-.08 2.24-.12 3.456-.12 3.648l-.024 3.432c0 .304.008.568.024.792l.024 1.44c0 .336-.008.544-.024.624a1.616 1.616 0 00-.024.264c.016.08.024.136.024.168 0 .064.008.104.024.12l.576.048c.512.032.936.04 1.272.024l4.44-.048 2.52.072 1.128.024c.176.016.264.064.264.144a.395.395 0 01-.024.12.453.453 0 00-.024.144v1.104c0 .288.048.896.144 1.824l.096 1.008.024.12c0 .08-.04.128-.12.144-.08.032-.224.048-.432.048l-1.752-.024-2.976-.048c-.4 0-.96.024-1.68.072-.32.016-.68.032-1.08.048-.384.016-.768.024-1.152.024l-.408-.024a4.068 4.068 0 00-.552-.024l-1.08.024c-.192.016-.44.024-.744.024-.208 0-.336-.032-.384-.096-.032-.048-.048-.128-.048-.24.016-.112.024-.208.024-.288 0-.352.024-.96.072-1.824l.072-2.472-.048-1.128a43.116 43.116 0 01-.048-.792 19.71 19.71 0 01-.024-.984c0 .544.048 0 .144-1.632.096-1.648.144-2.664.144-3.048l-.024-2.712-.048-1.536v-.024c0-.128.088-.192.264-.192l.336.024c.08 0 .184.008.312.024h.816c.096 0 .144.064.144.192l-.048 1.392zm10.586.456h1.416l3.792-.696V43.8c.624 0 1.016-.16 1.176-.48.176-.32.264-.864.264-1.632h1.224c0 .496-.024.952-.072 1.368a2.092 2.092 0 01-.432 1.08c-.224.304-.576.544-1.056.72-.48.16-1.152.24-2.016.24-.592 0-1.08-.088-1.464-.264-.368-.176-.656-.384-.864-.624a2.334 2.334 0 01-.432-.768 2.486 2.486 0 01-.12-.672V31.44h-1.416v-1.2zm172.198 3.144c1.008 0 1.92.248 2.736.744a5.24 5.24 0 011.92 2.04c.464.848.696 1.8.696 2.856 0 .304-.008.536-.024.696h-9.24c.064 1.152.44 2.136 1.128 2.952.688.816 1.624 1.224 2.808 1.224.96 0 1.752-.176 2.376-.528a4.217 4.217 0 001.536-1.512l1.296.864a5.73 5.73 0 01-2.088 1.968c-.864.464-1.888.696-3.072.696-1.088 0-2.056-.256-2.904-.768a5.348 5.348 0 01-1.992-2.136c-.48-.912-.72-1.944-.72-3.096 0-1.152.232-2.184.696-3.096.48-.912 1.136-1.624 1.968-2.136.848-.512 1.808-.768 2.88-.768zm3.72 4.992c-.16-1.168-.552-2.04-1.176-2.616-.624-.592-1.472-.888-2.544-.888-1.04 0-1.896.336-2.568 1.008-.656.656-1.072 1.488-1.248 2.496h7.536z" fill="#EAA7C7"/><path d="M68.86 45.234a4.446 4.446 0 01-2.356-.656 5.119 5.119 0 01-1.723-1.746 4.695 4.695 0 01-.644-2.414l.023-7.605c0-.891.215-1.692.645-2.403a4.82 4.82 0 011.71-1.723 4.425 4.425 0 012.344-.656c.875 0 1.66.215 2.356.645a4.852 4.852 0 011.687 1.734c.43.719.645 1.52.645 2.402l.023 7.606c0 .875-.21 1.676-.632 2.402-.43.735-1 1.32-1.711 1.758-.711.438-1.5.656-2.368.656zm0-2.894c.484 0 .906-.196 1.265-.586.36-.398.54-.844.54-1.336l-.024-7.605c0-.532-.168-.981-.504-1.348a1.656 1.656 0 00-1.278-.55c-.492 0-.914.179-1.265.538-.352.36-.528.813-.528 1.36v7.605c0 .523.176.977.528 1.36.351.374.773.562 1.265.562zm69.467-9.988h2.064V45h-2.064V32.352zM139.335 30c-.384 0-.704-.128-.96-.384a1.355 1.355 0 01-.384-.96c0-.368.128-.68.384-.936.256-.272.576-.408.96-.408s.704.136.96.408c.272.256.408.568.408.936 0 .368-.136.688-.408.96a1.302 1.302 0 01-.96.384z" fill="#EAC119"/><path d="M258.715 44.063c0 .632-.653.949-1.957.949h-1.324c-1.36 0-2.039-.332-2.039-.996 0-.18.089-.309.269-.387.18-.078.359-.14.539-.188.18-.047.27-.113.27-.199 0-.148-.317-.574-.95-1.277-.625-.711-1.121-1.285-1.488-1.723 0 .016-.203.235-.609.656-.406.414-.871.899-1.395 1.454-.515.554-.773.859-.773.914 0 .054.23.12.691.199.469.07.703.258.703.562 0 .594-.621.914-1.863.961-.203.008-.461.012-.773.012h-.106c-.969 0-1.566-.055-1.793-.164-.437-.211-.656-.5-.656-.867 0-.196.078-.317.234-.364.047-.015.18-.046.399-.093.218-.047.445-.121.679-.223.321-.148.774-.473 1.36-.973.594-.507 1.66-1.464 3.199-2.87a39.557 39.557 0 00-2.344-2.883c-.547-.626-1.422-1.07-2.625-1.336-.297-.063-.445-.172-.445-.329 0-.75.977-1.125 2.93-1.125 1.953 0 2.929.336 2.929 1.008 0 .282-.3.477-.902.586-.109.024-.164.047-.164.07 0 .196.133.461.398.797l.563.715c.367.438.687.805.961 1.102l1.605-1.63c.367-.366.551-.612.551-.737 0-.133-.066-.23-.199-.293a1.351 1.351 0 00-.434-.141c-.429-.078-.644-.223-.644-.434 0-.21.082-.386.246-.527.172-.148.39-.258.656-.328a6.6 6.6 0 011.535-.188c1.766 0 2.649.344 2.649 1.032 0 .336-.196.504-.586.504-.266 0-.59.086-.973.257a3.103 3.103 0 00-.937.621l-2.754 2.766 2.789 3.258c.289.32.703.602 1.242.844s.894.418 1.066.527c.18.102.27.262.27.48z" fill="#000"/><path d="M81.872 44.544v-.504c0-.176.036-.28.108-.312.072-.032.196-.048.372-.048h3.096c.216 0 .352-.032.408-.096.064-.072.096-.208.096-.408V30.924c0-.216-.024-.364-.072-.444-.048-.08-.176-.12-.384-.12h-2.688c-.176 0-.308-.02-.396-.06-.088-.04-.132-.156-.132-.348v-.36c0-.216.028-.36.084-.432.056-.08.196-.12.42-.12.776-.008 1.404-.056 1.884-.144.488-.096.9-.32 1.236-.672.344-.352.688-.912 1.032-1.68.064-.128.112-.244.144-.348.04-.104.16-.156.36-.156h.336c.152 0 .264.016.336.048.08.024.12.112.12.264v16.704c0 .28.036.456.108.528.072.064.252.096.54.096h2.664c.16 0 .288.016.384.048.096.032.144.136.144.312v.48c0 .192-.024.32-.072.384-.04.064-.152.096-.336.096H82.28c-.176 0-.288-.028-.336-.084-.048-.064-.072-.188-.072-.372zm87.949-13.416c-.624 0-1.136-.136-1.536-.408-.384-.272-.576-.616-.576-1.032 0-.432.192-.784.576-1.056.4-.288.912-.432 1.536-.432.64 0 1.144.136 1.512.408.384.272.576.632.576 1.08 0 .432-.184.784-.552 1.056-.368.256-.88.384-1.536.384zm6.312 11.976V45h-12.264v-1.896h5.04v-7.512h-5.04v-1.896h7.392v9.408h4.872z" fill="#9ED6DF"/><path d="M120.948 34.68l1.008-.888.456.216-.024 2.208a665.47 665.47 0 00-.024 6.648c0 1.44.008 2.616.024 3.528a89.78 89.78 0 00.168 3.288c.032.24.056.4.072.48.016.08.112.152.288.216.192.064.408.112.648.144.24.048.44.08.6.096l-.072.696a26.346 26.346 0 00-1.272-.072h-2.76c-.544.016-1.008.04-1.392.072l.072-.696c.176-.016.384-.048.624-.096.256-.032.488-.08.696-.144.208-.064.32-.136.336-.216l.048-.528c.032-.336.064-.96.096-1.872.032-.896.048-2.168.048-3.816-.688.48-1.32.816-1.896 1.008-.56.192-1.2.288-1.92.288-.912 0-1.688-.248-2.328-.744a4.9 4.9 0 01-1.464-1.968 7.036 7.036 0 01-.48-2.592c0-1.152.24-2.176.72-3.072.496-.912 1.152-1.624 1.968-2.136a4.888 4.888 0 012.712-.792c.496 0 1.008.056 1.536.168a4.936 4.936 0 011.512.576zm-.336 8.376c0-1.664-.016-3.008-.048-4.032a86.111 86.111 0 00-.096-2.352c-.032-.544-.056-.88-.072-1.008a5.979 5.979 0 00-1.056-.312 5.135 5.135 0 00-.96-.096c-.816 0-1.504.232-2.064.696-.544.464-.96 1.056-1.248 1.776a5.776 5.776 0 00-.432 2.208c0 .656.112 1.28.336 1.872a3.274 3.274 0 001.032 1.44c.464.368 1.064.552 1.8.552.512 0 .976-.056 1.392-.168.432-.128.904-.32 1.416-.576zm40.846.096l.24.552-3.912 1.8-.144-.144c.032-.144.064-.424.096-.84a12.4 12.4 0 00.072-1.368h-.024a6.388 6.388 0 01-1.584 1.56c-.624.432-1.376.648-2.256.648a4.11 4.11 0 01-2.112-.576c-.64-.4-1.16-.976-1.56-1.728-.384-.752-.576-1.664-.576-2.736 0-1.024.176-1.92.528-2.688a6.03 6.03 0 011.44-1.968 6.18 6.18 0 011.992-1.176 6.332 6.332 0 012.208-.408c.736 0 1.368.072 1.896.216v-5.064c0-.448-.072-.736-.216-.864-.128-.128-.304-.192-.528-.192-.208 0-.432.032-.672.096a3.609 3.609 0 00-.624.24l-.24-.552 4.152-1.92.144.144c-.016.128-.04.472-.072 1.032-.016.56-.024 1.224-.024 1.992v13.104c0 .448.064.736.192.864a.8.8 0 00.552.192c.336 0 .68-.072 1.032-.216zm-6.768.768c.56 0 1.096-.144 1.608-.432a7.24 7.24 0 001.464-1.056v-6.288c-.384-.416-.816-.68-1.296-.792-.464-.128-.872-.192-1.224-.192-1.024 0-1.88.352-2.568 1.056-.672.688-1.008 1.784-1.008 3.288 0 1.376.28 2.456.84 3.24.56.784 1.288 1.176 2.184 1.176zM214.382 45v-.768l2.064-.312c.032-1.76.048-3.224.048-4.392v-1.344c0-1.632-.016-2.848-.048-3.648l-2.208-.144V33.6l3.768-1.248.36.24-.072 3.408v3.528c0 1.168.016 2.632.048 4.392l1.896.312V45h-5.856zm2.952-18.84c.448 0 .816.136 1.104.408.288.272.432.624.432 1.056 0 .432-.152.784-.456 1.056-.288.272-.648.408-1.08.408-.432 0-.792-.136-1.08-.408-.288-.272-.432-.624-.432-1.056 0-.432.144-.784.432-1.056.288-.272.648-.408 1.08-.408z" fill="#ED783D"/></svg>