<svg width="400" height="249" fill="none" xmlns="http://www.w3.org/2000/svg"><path d="M.375 55.688l7.938-43.97c.041-.166.145-.25.312-.25h9.281c.167 0 .271.084.313.25l7.625 43.97c.02.208-.063.312-.25.312H18.5c-.208 0-.323-.104-.344-.313L17.47 51H8.75l-.688 4.688c-.02.208-.124.312-.312.312H.625c-.167 0-.25-.104-.25-.313zm13.188-29.5l-.376-2.375-.28 2.375-2.876 17.968h6.156l-2.625-17.968zM92.436 126H85.22c-.188 0-.281-.104-.281-.312v-36.5h-8.313c-.208 0-.313-.105-.313-.313l.063-7.156c0-.167.083-.25.25-.25h24.313c.229 0 .343.083.343.25v7.156c0 .208-.083.313-.25.313h-8.406l.063 36.5c0 .208-.084.312-.25.312zm234.751-13.625c-.313.458-.615.823-.907 1.094a1.503 1.503 0 01-1.062.406c-.396 0-.771-.302-1.125-.906-.334-.625-.5-1.552-.5-2.781 0-1.25.271-2.49.812-3.719a14.764 14.764 0 012.125-3.438 24.65 24.65 0 013-3.094l6.875-5.53c3.959-3.147 5.938-6.115 5.938-8.907 0-1.417-.386-2.51-1.156-3.281-.771-.771-1.698-1.156-2.782-1.156-1.083 0-1.989.197-2.718.593a5.647 5.647 0 00-1.813 1.438c-.937 1.146-1.406 2.364-1.406 3.656 0 .875.146 1.635.437 2.281.313.625.469 1.052.469 1.281 0 .209-.104.5-.313.876-.208.374-.51.729-.906 1.062-.937.75-1.864 1.125-2.781 1.125-.896 0-1.563-.146-2-.438a4.18 4.18 0 01-1.063-1.187c-.52-.875-.781-1.948-.781-3.219 0-1.27.281-2.573.844-3.906A11.59 11.59 0 01328.812 81c2.376-2.396 5.448-3.594 9.219-3.594 2.854 0 5.198.886 7.031 2.656 1.792 1.771 2.688 4.01 2.688 6.72 0 4.728-2.146 8.739-6.438 12.03l-3.906 2.938c-3.541 2.604-6.187 5-7.937 7.188-.479.645-.907 1.27-1.281 1.874a36.129 36.129 0 01-1 1.563zm-7.626 5.5c.938-.771 1.855-1.156 2.75-1.156.917 0 1.688.062 2.313.187.646.125 1.25.323 1.813.594 1.291.667 1.937 1.625 1.937 2.875 0 1.563-.51 2.927-1.531 4.094-1.084 1.229-2.302 1.843-3.656 1.843h-.219c-1.334 0-2.49-.5-3.469-1.5-.896-.958-1.344-1.979-1.344-3.062 0-1.812.469-3.104 1.406-3.875z" fill="#C63F3E"/><path d="M32.432 68.544V22.08h6.08v5.376h.385c.511-.81 1.194-1.685 2.047-2.624.896-.939 2.07-1.728 3.52-2.368 1.451-.683 3.243-1.024 5.377-1.024 2.56 0 4.8.512 6.72 1.536 1.92.981 3.52 2.325 4.8 4.032 1.28 1.664 2.24 3.541 2.88 5.632.64 2.09.96 4.224.96 6.4s-.32 4.31-.96 6.4a18.38 18.38 0 01-2.88 5.696c-1.28 1.664-2.88 3.008-4.8 4.032-1.92.981-4.16 1.472-6.72 1.472-2.134 0-3.926-.341-5.377-1.024-1.45-.683-2.623-1.493-3.52-2.432-.853-.939-1.536-1.792-2.047-2.56h-.384v17.92h-6.08zm6.209-29.504c0 2.048.362 4.032 1.087 5.952.768 1.877 1.9 3.435 3.392 4.672 1.537 1.195 3.435 1.792 5.697 1.792 2.303 0 4.202-.597 5.696-1.792 1.535-1.237 2.666-2.795 3.392-4.672a15.886 15.886 0 001.151-5.952c0-2.09-.383-4.075-1.151-5.952-.726-1.877-1.857-3.413-3.392-4.608-1.494-1.237-3.392-1.856-5.697-1.856-2.26 0-4.16.619-5.696 1.856-1.493 1.195-2.623 2.73-3.392 4.608-.725 1.877-1.087 3.861-1.087 5.952zM252.718 56c-.427 0-.747-.619-.96-1.856a.564.564 0 00-.064-.256c0-.085.021-.192.064-.32 0-.939.256-1.472.768-1.6a22.592 22.592 0 003.456-.768 55.13 55.13 0 011.728-.512c2.005.043 3.051-.427 3.136-1.408.043-.683.064-1.6.064-2.752 0-1.365-.021-2.581-.064-3.648v-5.76c.043-2.09 0-4.096-.128-6.016l-.064-3.2c0-1.45.021-2.539.064-3.264l.192-6.208-5.632 1.792c-1.365.299-2.176.448-2.432.448-.469 0-.704-.107-.704-.32a1.466 1.466 0 01-.192-.768c-.043-1.664 0-2.752.128-3.264.171-.427.725-.832 1.664-1.216 4.181-.213 8.683-1.515 13.504-3.904a5.435 5.435 0 011.6-.256c.469 0 .832.085 1.088.256.256.128.384.32.384.576 0 1.45-.043 3.243-.128 5.376l-.064 2.304-.384 5.888v4.48l.192 3.904c.085 1.365.128 3.243.128 5.632.043.47.064 1.515.064 3.136 0 4.267.149 7.125.448 8.576 5.077.213 7.616.512 7.616.896l.192 2.752c.085.853-.384 1.28-1.408 1.28-1.792 0-3.413-.085-4.864-.256-.725-.085-1.92-.17-3.584-.256-2.048.128-4.8.256-8.256.384l-2.496-.064c-1.493 0-3.179.064-5.056.192zm-107.274 45.36c-.768 0-1.323-.171-1.664-.512-.341-.341-.875-1.067-1.6-2.176l-7.808-11.904c-.256-.427-.555-.704-.896-.832a2.272 2.272 0 00-1.024-.256h-1.088c-.555 0-.981.17-1.28.512-.256.299-.384.79-.384 1.472v32.576h.64V87.664c0-.341.064-.64.192-.896.128-.299.405-.448.832-.448h.96c.299 0 .555.043.768.128.256.085.512.341.768.768l7.808 11.776c.768 1.152 1.344 1.941 1.728 2.368.427.427 1.109.64 2.048.64.939 0 1.6-.213 1.984-.64.427-.427 1.024-1.216 1.792-2.368l7.808-11.776c.256-.427.491-.683.704-.768.213-.085.469-.128.768-.128h.96c.427 0 .704.15.832.448.171.256.256.555.256.896v32.576h.64V87.664c0-.683-.149-1.173-.448-1.472-.256-.341-.683-.512-1.28-.512h-1.088c-.341 0-.683.085-1.024.256-.299.128-.576.405-.832.832l-7.808 11.904c-.725 1.11-1.259 1.835-1.6 2.176-.341.341-.896.512-1.664.512zM134.756 126h-9.536c-.811 0-1.408-.171-1.792-.512-.341-.384-.512-.981-.512-1.792V82.224c0-.81.171-1.387.512-1.728.384-.384.981-.576 1.792-.576h10.304c.683 0 1.237.15 1.664.448.469.299.896.79 1.28 1.472l5.76 10.432c.213.384.384.661.512.832.171.17.384.256.64.256h.576c.256 0 .448-.085.576-.256.171-.17.363-.448.576-.832l5.696-10.432c.384-.683.789-1.173 1.216-1.472.469-.299 1.045-.448 1.728-.448h10.368c.811 0 1.387.192 1.728.576.384.341.576.917.576 1.728v41.472c0 .811-.192 1.408-.576 1.792-.341.341-.917.512-1.728.512h-9.856c-.811 0-1.408-.171-1.792-.512-.341-.384-.512-.981-.512-1.792v-22.528l-3.776 6.976c-.384.725-.853 1.259-1.408 1.6-.512.299-1.173.448-1.984.448h-2.56c-.811 0-1.493-.149-2.048-.448-.512-.341-.96-.875-1.344-1.6l-3.776-6.976v22.528c0 .811-.192 1.408-.576 1.792-.341.341-.917.512-1.728.512z" fill="#808BC5"/><path d="M97.03 11.328c2.56 1.707 4.609 4.01 6.145 6.912 1.578 2.901 2.666 5.739 3.264 8.512.64 2.73.96 4.885.96 6.464 0 2.645-.427 5.717-1.28 9.216-.811 3.499-2.582 6.763-5.312 9.792-2.731 2.987-6.678 4.48-11.84 4.48-7.083 0-12.118-4.117-15.105-12.352-1.322-3.712-2.069-7.85-2.24-12.416 0-3.755.79-7.317 2.368-10.688 1.58-3.413 3.648-6.144 6.209-8.192 2.602-2.048 5.269-3.072 8-3.072 2.474 0 4.309.064 5.504.192 1.237.128 2.346.512 3.328 1.152zM88.648 53.12c4.522 0 7.893-1.877 10.111-5.632 2.219-3.797 3.329-8.555 3.329-14.272 0-3.499-.534-6.72-1.6-9.664-1.024-2.987-2.496-5.355-4.416-7.104-1.878-1.792-4.054-2.688-6.528-2.688h-1.729c-.895 0-1.685.15-2.367.448a5.58 5.58 0 00-1.856 1.344c-1.408 1.408-2.603 2.71-3.584 3.904-.94 1.152-1.9 2.88-2.88 5.184-.94 2.304-1.408 4.97-1.408 8 0 3.584.426 6.933 1.28 10.048.895 3.072 2.303 5.59 4.224 7.552 1.92 1.92 4.394 2.88 7.424 2.88zm254.322 3.38c-2.5 0-4.417-.52-5.75-1.563-1.313-1.041-2.209-2.49-2.688-4.343-.479-1.875-.719-4.063-.719-6.563V9.125h11.25v33.594c0 1.875.146 3.187.438 3.937.292.73.979 1.094 2.062 1.094 1.167 0 1.896-.52 2.188-1.563.312-1.041.469-2.385.469-4.03V9.124h11.156V56h-11.187v-5c-.709 1.792-1.563 3.156-2.563 4.094-.979.937-2.531 1.406-4.656 1.406zm-101.407 70.125c-2.25 0-4.333-.583-6.25-1.75a13.214 13.214 0 01-4.593-4.687c-1.125-1.98-1.688-4.136-1.688-6.469l.125-32c0-.167.084-.25.25-.25h7.188c.166 0 .25.083.25.25v32c0 1.437.458 2.666 1.375 3.687.916 1 2.031 1.5 3.343 1.5 1.376 0 2.521-.5 3.438-1.5.917-1.021 1.375-2.25 1.375-3.687v-32c0-.167.083-.25.25-.25h7.187c.167 0 .25.083.25.25l.126 32c0 2.354-.563 4.521-1.688 6.5-1.146 1.958-2.667 3.521-4.562 4.687-1.896 1.146-4.021 1.719-6.376 1.719z" fill="#245455"/><path d="M119.41 15.424c-.214 5.973-.32 9.216-.32 9.728l-.064 9.152c0 .81.021 1.515.064 2.112l.064 3.84c0 .896-.022 1.45-.064 1.664-.043.256-.064.49-.064.704.042.213.064.363.064.448 0 .17.021.277.064.32l1.536.128c1.365.085 2.496.107 3.392.064l11.84-.128 6.72.192 3.008.064c.469.043.704.17.704.384 0 .085-.022.192-.064.32a1.199 1.199 0 00-.064.384v2.944c0 .768.128 2.39.384 4.864l.256 2.688.064.32c0 .213-.107.341-.32.384-.214.085-.598.128-1.152.128l-4.672-.064-7.936-.128c-1.067 0-2.56.064-4.48.192-.854.043-1.814.085-2.88.128a73.726 73.726 0 01-3.072.064l-1.088-.064c-.256-.043-.747-.064-1.472-.064l-2.88.064c-.512.043-1.174.064-1.984.064-.555 0-.896-.085-1.024-.256-.086-.128-.128-.341-.128-.64a5.66 5.66 0 00.064-.768c0-.939.064-2.56.192-4.864l.192-6.592-.129-3.008c-.042-.597-.085-1.301-.127-2.112a52.16 52.16 0 01-.064-2.624c0 1.45.128 0 .384-4.352.256-4.395.384-7.104.384-8.128l-.064-7.232-.128-4.096v-.064c0-.341.234-.512.704-.512l.896.064c.213 0 .49.021.832.064h2.176c.256 0 .384.17.384.512l-.128 3.712zm28.23 1.216h3.776l10.112-1.856V52.8c1.664 0 2.709-.427 3.136-1.28.469-.853.704-2.304.704-4.352h3.264c0 1.323-.064 2.539-.192 3.648-.128 1.11-.512 2.07-1.152 2.88-.597.81-1.536 1.45-2.816 1.92-1.28.427-3.072.64-5.376.64-1.579 0-2.88-.235-3.904-.704-.981-.47-1.749-1.024-2.304-1.664-.555-.683-.939-1.365-1.152-2.048-.213-.725-.32-1.323-.32-1.792V19.84h-3.776v-3.2zm62.945 78.384c2.688 0 5.12.661 7.296 1.984s3.883 3.136 5.12 5.44c1.237 2.261 1.856 4.8 1.856 7.616 0 .811-.021 1.429-.064 1.856h-24.64c.171 3.072 1.173 5.696 3.008 7.872s4.331 3.264 7.488 3.264c2.56 0 4.672-.469 6.336-1.408a11.237 11.237 0 004.096-4.032l3.456 2.304a15.28 15.28 0 01-5.568 5.248c-2.304 1.237-5.035 1.856-8.192 1.856-2.901 0-5.483-.683-7.744-2.048s-4.032-3.264-5.312-5.696c-1.28-2.432-1.92-5.184-1.92-8.256s.619-5.824 1.856-8.256c1.28-2.432 3.029-4.33 5.248-5.696 2.261-1.365 4.821-2.048 7.68-2.048zm9.92 13.312c-.427-3.115-1.472-5.44-3.136-6.976-1.664-1.579-3.925-2.368-6.784-2.368-2.773 0-5.056.896-6.848 2.688-1.749 1.749-2.859 3.968-3.328 6.656h20.096z" fill="#EAA7C7"/><path d="M183.625 56.625c-2.271 0-4.365-.583-6.281-1.75a13.65 13.65 0 01-4.594-4.656c-1.146-1.959-1.719-4.104-1.719-6.438l.063-20.281c0-2.375.573-4.51 1.718-6.406a12.86 12.86 0 014.563-4.594 11.8 11.8 0 016.25-1.75c2.333 0 4.427.573 6.281 1.719 1.875 1.146 3.375 2.687 4.5 4.625 1.146 1.916 1.719 4.052 1.719 6.406l.063 20.281c0 2.334-.563 4.469-1.688 6.407-1.146 1.958-2.667 3.52-4.562 4.687-1.896 1.167-4 1.75-6.313 1.75zm0-7.719c1.292 0 2.417-.52 3.375-1.562.958-1.063 1.438-2.25 1.438-3.563l-.063-20.281c0-1.417-.448-2.615-1.344-3.594-.896-.979-2.031-1.468-3.406-1.468-1.313 0-2.437.479-3.375 1.437-.938.958-1.406 2.167-1.406 3.625v20.281c0 1.396.468 2.604 1.406 3.625.938 1 2.062 1.5 3.375 1.5zm185.248-26.634h5.504V56h-5.504V22.272zM371.561 16c-1.024 0-1.877-.341-2.56-1.024-.683-.725-1.024-1.579-1.024-2.56 0-.981.341-1.813 1.024-2.496.683-.725 1.536-1.088 2.56-1.088s1.877.363 2.56 1.088c.725.683 1.088 1.515 1.088 2.496 0 .981-.363 1.835-1.088 2.56-.683.683-1.536 1.024-2.56 1.024z" fill="#EAC119"/><path d="M293.656 123.5c0 1.688-1.739 2.531-5.218 2.531h-3.532c-3.625 0-5.437-.885-5.437-2.656 0-.479.239-.823.719-1.031a9.74 9.74 0 011.437-.5c.479-.125.719-.302.719-.532 0-.395-.844-1.531-2.532-3.406a278.76 278.76 0 01-3.968-4.594c0 .042-.542.626-1.625 1.75a277.518 277.518 0 00-3.719 3.876c-1.375 1.479-2.062 2.291-2.062 2.437 0 .146.614.323 1.843.531 1.25.188 1.875.688 1.875 1.5 0 1.584-1.656 2.438-4.968 2.563-.542.021-1.23.031-2.063.031h-.281c-2.584 0-4.177-.146-4.782-.438-1.166-.562-1.75-1.333-1.75-2.312 0-.521.209-.844.626-.969.124-.041.479-.125 1.062-.25a9.702 9.702 0 001.812-.593c.855-.396 2.063-1.261 3.626-2.594 1.583-1.354 4.427-3.906 8.531-7.656-1.834-2.5-3.917-5.063-6.25-7.688-1.459-1.667-3.792-2.854-7-3.563-.792-.166-1.188-.458-1.188-.874 0-2 2.604-3 7.813-3 5.208 0 7.812.895 7.812 2.687 0 .75-.802 1.271-2.406 1.562-.292.063-.438.126-.438.188 0 .521.355 1.229 1.063 2.125l1.5 1.906a85.432 85.432 0 002.563 2.938l4.281-4.344c.979-.979 1.469-1.635 1.469-1.969 0-.354-.178-.614-.532-.781A3.584 3.584 0 00281.5 100c-1.146-.208-1.719-.594-1.719-1.156 0-.563.219-1.031.657-1.406.458-.396 1.041-.688 1.75-.876 1.395-.333 2.76-.5 4.093-.5 4.709 0 7.063.917 7.063 2.75 0 .896-.521 1.344-1.563 1.344-.708 0-1.573.229-2.593.688-1.021.458-1.855 1.01-2.5 1.656l-7.344 7.375 7.437 8.687c.771.855 1.875 1.605 3.313 2.25 1.437.646 2.385 1.115 2.844 1.407.479.271.718.698.718 1.281z" fill="#000"/><path d="M218.325 54.784V53.44c0-.47.096-.747.288-.832.192-.085.523-.128.992-.128h8.256c.576 0 .939-.085 1.088-.256.171-.192.256-.555.256-1.088V18.464c0-.576-.064-.97-.192-1.184-.128-.213-.469-.32-1.024-.32h-7.168c-.469 0-.821-.053-1.056-.16-.235-.107-.352-.416-.352-.928v-.96c0-.576.075-.96.224-1.152.149-.213.523-.32 1.12-.32 2.069-.021 3.744-.15 5.024-.384 1.301-.256 2.4-.853 3.296-1.792.917-.939 1.835-2.432 2.752-4.48.171-.341.299-.65.384-.928.107-.277.427-.416.96-.416h.896c.405 0 .704.043.896.128.213.064.32.299.32.704v44.544c0 .747.096 1.216.288 1.408.192.17.672.256 1.44.256h7.104c.427 0 .768.043 1.024.128s.384.363.384.832v1.28c0 .512-.064.853-.192 1.024-.107.17-.405.256-.896.256h-25.024c-.469 0-.768-.075-.896-.224-.128-.17-.192-.501-.192-.992zM56.605 89.008c-1.664 0-3.03-.363-4.096-1.088-1.024-.725-1.536-1.643-1.536-2.752 0-1.152.512-2.09 1.536-2.816 1.067-.768 2.432-1.152 4.096-1.152 1.707 0 3.05.363 4.032 1.088 1.024.725 1.536 1.685 1.536 2.88 0 1.152-.49 2.09-1.472 2.816-.981.683-2.347 1.024-4.096 1.024zm16.832 31.936V126H40.733v-5.056h13.44v-20.032h-13.44v-5.056h19.712v25.088h12.992z" fill="#9ED6DF"/><path d="M322.527 28.48l2.688-2.368 1.216.576-.064 5.888c-.043 3.883-.064 9.792-.064 17.728 0 3.84.021 6.976.064 9.408.085 2.432.171 4.352.256 5.76.085 1.408.149 2.41.192 3.008.085.64.149 1.067.192 1.28.043.213.299.405.768.576a9.4 9.4 0 001.728.384c.64.128 1.173.213 1.6.256l-.192 1.856a70.365 70.365 0 00-3.392-.192H320.159a70.78 70.78 0 00-3.712.192l.192-1.856a16.109 16.109 0 001.664-.256 10.93 10.93 0 001.856-.384c.555-.17.853-.363.896-.576l.128-1.408c.085-.896.171-2.56.256-4.992.085-2.39.128-5.781.128-10.176-1.835 1.28-3.52 2.176-5.056 2.688-1.493.512-3.2.768-5.12.768-2.432 0-4.501-.661-6.208-1.984-1.707-1.365-3.008-3.115-3.904-5.248-.853-2.176-1.28-4.48-1.28-6.912 0-3.072.64-5.803 1.92-8.192 1.323-2.432 3.072-4.33 5.248-5.696 2.176-1.408 4.587-2.112 7.232-2.112 1.323 0 2.688.15 4.096.448 1.451.299 2.795.81 4.032 1.536zm-.896 22.336c0-4.437-.043-8.021-.128-10.752-.085-2.773-.171-4.864-.256-6.272-.085-1.45-.149-2.347-.192-2.688a15.938 15.938 0 00-2.816-.832 13.689 13.689 0 00-2.56-.256c-2.176 0-4.011.619-5.504 1.856-1.451 1.237-2.56 2.816-3.328 4.736a15.403 15.403 0 00-1.152 5.888c0 1.75.299 3.413.896 4.992.597 1.579 1.515 2.859 2.752 3.84 1.237.981 2.837 1.472 4.8 1.472 1.365 0 2.603-.15 3.712-.448 1.152-.341 2.411-.853 3.776-1.536zM34.304 121.072l.64 1.472-10.432 4.8-.384-.384c.085-.384.17-1.131.256-2.24.128-1.152.192-2.368.192-3.648h-.064c-1.11 1.579-2.517 2.965-4.224 4.16-1.664 1.152-3.67 1.728-6.016 1.728-2.005 0-3.883-.512-5.632-1.536-1.707-1.067-3.093-2.603-4.16-4.608-1.024-2.005-1.536-4.437-1.536-7.296 0-2.731.47-5.12 1.408-7.168.981-2.091 2.261-3.84 3.84-5.248 1.621-1.408 3.392-2.453 5.312-3.136 1.963-.725 3.925-1.088 5.888-1.088s3.648.192 5.056.576V83.952c0-1.195-.192-1.963-.576-2.304-.341-.341-.81-.512-1.408-.512-.555 0-1.152.085-1.792.256a9.628 9.628 0 00-1.664.64l-.64-1.472 11.072-5.12.384.384c-.043.341-.107 1.259-.192 2.752a189.35 189.35 0 00-.064 5.312v34.944c0 1.195.17 1.963.512 2.304.384.341.875.512 1.472.512.896 0 1.813-.192 2.752-.576zm-18.048 2.048c1.493 0 2.923-.384 4.288-1.152a19.32 19.32 0 003.904-2.816v-16.768c-1.024-1.109-2.176-1.813-3.456-2.112-1.237-.341-2.325-.512-3.264-.512-2.73 0-5.013.939-6.848 2.816-1.792 1.835-2.688 4.757-2.688 8.768 0 3.669.747 6.549 2.24 8.64 1.493 2.091 3.435 3.136 5.824 3.136zM175.437 126v-2.048l5.504-.832c.085-4.693.128-8.597.128-11.712v-3.584c0-4.352-.043-7.595-.128-9.728l-5.888-.384V95.6l10.048-3.328.96.64-.192 9.088v9.408c0 3.115.042 7.019.128 11.712l5.056.832V126h-15.616zm7.872-50.24c1.194 0 2.176.363 2.944 1.088.768.725 1.152 1.664 1.152 2.816s-.406 2.09-1.216 2.816c-.768.725-1.728 1.088-2.88 1.088s-2.112-.363-2.88-1.088c-.768-.725-1.152-1.664-1.152-2.816s.384-2.09 1.152-2.816c.768-.725 1.728-1.088 2.88-1.088z" fill="#ED783D"/></svg>