<svg width="342" height="94" fill="none" xmlns="http://www.w3.org/2000/svg"><rect width="342" height="94" rx="28.5" fill="#EAC119"/><path d="M320.707 51.83a1 1 0 000-1.414l-6.364-6.364a1 1 0 10-1.414 1.414l5.657 5.657-5.657 5.657a1 1 0 101.414 1.414l6.364-6.364zM292 51.123v1h28v-2h-28v1zM21.288 32.654h4.082c2.253 0 3.917.399 4.992 1.196 1.092.797 1.638 2.14 1.638 4.03 0 1.04-.2 1.907-.598 2.6a5.269 5.269 0 01-1.508 1.69c-.59.416-1.23.72-1.924.91a7.973 7.973 0 01-1.924.26h-2.574v7.046h-2.184V32.654zm2.184 8.736h2.392a7.34 7.34 0 001.586-.156 3.447 3.447 0 001.248-.572c.347-.277.615-.641.806-1.092.19-.468.286-1.049.286-1.742 0-.693-.104-1.248-.312-1.664a2.05 2.05 0 00-.884-.988c-.381-.225-.867-.373-1.456-.442-.59-.087-1.274-.13-2.054-.13h-1.612v6.786zm11.467-1.976c0-.399-.043-1.023-.13-1.872l1.924-.26.208 1.898h.026c.312-.399.615-.745.91-1.04.295-.295.598-.546.91-.754.33-.225.641-.338.936-.338.399-.017.953.026 1.664.13l-.468 2.002c-.572-.104-.97-.147-1.196-.13-.295 0-.607.139-.936.416-.33.277-.615.572-.858.884-.312.381-.615.815-.91 1.3v8.736h-2.08V39.414zm9.835 4.498c0 1.681.373 2.938 1.118 3.77.763.815 1.785 1.222 3.068 1.222 1.265 0 2.253-.407 2.964-1.222.71-.815 1.066-2.037 1.066-3.666 0-1.733-.381-3.025-1.144-3.874-.745-.85-1.768-1.274-3.068-1.274s-2.297.425-2.99 1.274c-.676.832-1.014 2.089-1.014 3.77zm-2.21-.026c0-1.317.208-2.41.624-3.276.416-.884.945-1.586 1.586-2.106.641-.537 1.326-.91 2.054-1.118.745-.225 1.447-.338 2.106-.338.624 0 1.3.104 2.028.312a5.19 5.19 0 012.054 1.066c.624.503 1.144 1.187 1.56 2.054.416.85.624 1.933.624 3.25 0 1.37-.217 2.505-.65 3.406-.416.901-.945 1.62-1.586 2.158a5.726 5.726 0 01-2.08 1.092c-.745.225-1.439.338-2.08.338a7.574 7.574 0 01-2.08-.312 5.715 5.715 0 01-2.028-1.066c-.607-.52-1.118-1.222-1.534-2.106-.399-.884-.598-2.002-.598-3.354zm17.738-6.864v13.13c0 1.56-.286 2.843-.858 3.848-.572 1.023-1.465 1.88-2.678 2.574L55.7 54.728c.52-.312.944-.659 1.274-1.04.329-.364.58-.763.754-1.196.19-.416.32-.85.39-1.3.069-.433.104-.875.104-1.326V37.334l2.08-.312zm-2.496-3.458c0-.399.13-.728.39-.988a1.38 1.38 0 011.014-.416c.416 0 .762.139 1.04.416.294.26.442.59.442.988 0 .399-.148.737-.442 1.014-.278.26-.624.39-1.04.39-.4 0-.737-.13-1.014-.39a1.428 1.428 0 01-.39-1.014zm15.902 16.51c-.399.121-.815.225-1.248.312-.416.087-.884.165-1.404.234-.503.07-1.031.104-1.586.104a7.766 7.766 0 01-2.418-.364 4.98 4.98 0 01-1.95-1.17c-.555-.537-.997-1.23-1.326-2.08-.312-.867-.468-1.924-.468-3.172 0-1.127.156-2.115.468-2.964.312-.867.737-1.586 1.274-2.158a5.401 5.401 0 011.924-1.326 6.517 6.517 0 012.418-.442c.85 0 1.586.165 2.21.494.624.33 1.135.78 1.534 1.352.416.555.72 1.213.91 1.976.208.745.312 1.534.312 2.366l-.39 1.144H65.57c0 .537.07 1.075.208 1.612.139.537.373 1.023.702 1.456.347.433.789.789 1.326 1.066.555.26 1.24.39 2.054.39.52 0 .997-.026 1.43-.078.433-.07.806-.139 1.118-.208.33-.087.633-.182.91-.286l.39 1.742zM72.2 42.716c0-.121-.026-.39-.078-.806a4.91 4.91 0 00-.364-1.3c-.19-.45-.485-.85-.884-1.196-.399-.364-.927-.546-1.586-.546-.728 0-1.326.156-1.794.468-.468.295-.84.65-1.118 1.066-.277.416-.468.84-.572 1.274-.104.433-.156.78-.156 1.04H72.2zm8.03-9.308v3.9H84v1.69h-3.77v6.942c0 .572.01 1.049.026 1.43.035.381.096.685.182.91.087.225.208.39.364.494.156.087.356.13.598.13.66-.017 1.422-.26 2.288-.728l.624 1.586c-.572.381-1.109.633-1.612.754-.485.139-.97.208-1.456.208-1.144 0-1.95-.32-2.418-.962-.45-.659-.676-1.742-.676-3.25v-7.514h-2.392v-1.69h2.392v-3.64l2.08-.26zm20.535 5.85c-.624-.173-1.11-.277-1.457-.312a7.178 7.178 0 00-1.066-.078c-.728 0-1.352.13-1.871.39a3.6 3.6 0 00-1.3 1.092c-.33.45-.572.98-.728 1.586a7.395 7.395 0 00-.234 1.898c0 .607.06 1.213.181 1.82.14.607.347 1.153.624 1.638.278.485.616.875 1.014 1.17.4.295.876.442 1.43.442.382 0 .772-.07 1.17-.208a8.743 8.743 0 001.144-.468c.347-.19.711-.425 1.093-.702v-8.268zm.026 10.088a9.516 9.516 0 01-1.17.702c-.364.173-.772.33-1.222.468a4.165 4.165 0 01-1.275.208c-1.629 0-2.911-.572-3.847-1.716-.92-1.161-1.379-2.851-1.379-5.07 0-1.317.209-2.418.624-3.302.434-.884.971-1.586 1.612-2.106a5.91 5.91 0 012.055-1.144c.745-.225 1.43-.338 2.054-.338.312 0 .64.026.988.078.346.035.858.139 1.534.312v-6.526l2.08-.234V48.8l.052.78.104.806-2.002.208-.208-1.248zm15.497.728c-.399.121-.815.225-1.248.312-.416.087-.884.165-1.404.234-.503.07-1.031.104-1.586.104a7.764 7.764 0 01-2.418-.364 4.986 4.986 0 01-1.95-1.17c-.555-.537-.997-1.23-1.326-2.08-.312-.867-.468-1.924-.468-3.172 0-1.127.156-2.115.468-2.964.312-.867.737-1.586 1.274-2.158a5.405 5.405 0 011.924-1.326 6.514 6.514 0 012.418-.442c.849 0 1.586.165 2.21.494.624.33 1.135.78 1.534 1.352.416.555.719 1.213.91 1.976.208.745.312 1.534.312 2.366l-.39 1.144h-8.398c0 .537.069 1.075.208 1.612.139.537.373 1.023.702 1.456.347.433.789.789 1.326 1.066.555.26 1.239.39 2.054.39.52 0 .997-.026 1.43-.078.433-.07.806-.139 1.118-.208.329-.087.633-.182.91-.286l.39 1.742zm-1.508-7.358c0-.121-.026-.39-.078-.806a4.896 4.896 0 00-.364-1.3 3.26 3.26 0 00-.884-1.196c-.399-.364-.927-.546-1.586-.546-.728 0-1.326.156-1.794.468-.468.295-.841.65-1.118 1.066a3.97 3.97 0 00-.572 1.274c-.104.433-.156.78-.156 1.04h6.552zm14.632-8.034h-5.564v-2.028h13.312v2.028h-5.564v15.704h-2.184V34.682zm10.06 2.6l2.08-.234v13.338h-2.08V37.282zm-.338-3.718c0-.399.13-.728.39-.988a1.379 1.379 0 011.014-.416c.416 0 .762.139 1.04.416.294.26.442.59.442.988 0 .399-.148.737-.442 1.014-.278.26-.624.39-1.04.39-.399 0-.737-.13-1.014-.39a1.428 1.428 0 01-.39-1.014zm9.194-.156v3.9h3.77v1.69h-3.77v6.942c0 .572.009 1.049.026 1.43.035.381.095.685.182.91.087.225.208.39.364.494.156.087.355.13.598.13.659-.017 1.421-.26 2.288-.728l.624 1.586c-.572.381-1.109.633-1.612.754a5.277 5.277 0 01-1.456.208c-1.144 0-1.95-.32-2.418-.962-.451-.659-.676-1.742-.676-3.25v-7.514h-2.392v-1.69h2.392v-3.64l2.08-.26zm7.809 10.504c0 1.681.373 2.938 1.118 3.77.763.815 1.786 1.222 3.068 1.222 1.266 0 2.254-.407 2.964-1.222.711-.815 1.066-2.037 1.066-3.666 0-1.733-.381-3.025-1.144-3.874-.745-.85-1.768-1.274-3.068-1.274s-2.296.425-2.99 1.274c-.676.832-1.014 2.089-1.014 3.77zm-2.21-.026c0-1.317.208-2.41.624-3.276.416-.884.945-1.586 1.586-2.106.642-.537 1.326-.91 2.054-1.118.746-.225 1.448-.338 2.106-.338.624 0 1.3.104 2.028.312.746.19 1.43.546 2.054 1.066.624.503 1.144 1.187 1.56 2.054.416.85.624 1.933.624 3.25 0 1.37-.216 2.505-.65 3.406-.416.901-.944 1.62-1.586 2.158a5.719 5.719 0 01-2.08 1.092c-.745.225-1.438.338-2.08.338a7.577 7.577 0 01-2.08-.312 5.715 5.715 0 01-2.028-1.066c-.606-.52-1.118-1.222-1.534-2.106-.398-.884-.598-2.002-.598-3.354zm23.484 5.07h-.052a19.04 19.04 0 01-.676.494c-.295.19-.633.381-1.014.572-.381.19-.806.355-1.274.494a4.66 4.66 0 01-1.378.208c-.641 0-1.187-.087-1.638-.26a2.21 2.21 0 01-1.092-.806c-.277-.381-.477-.884-.598-1.508s-.182-1.404-.182-2.34v-8.502h2.08v8.19c0 .52.009.988.026 1.404.017.416.078.771.182 1.066.104.295.269.529.494.702.243.156.581.234 1.014.234.451 0 .919-.095 1.404-.286.485-.19.927-.407 1.326-.65.468-.277.927-.59 1.378-.936v-9.724h2.08v11.388c.017.624.061 1.187.13 1.69l-2.054.208-.156-1.638zm13.139-4.576c-.346.017-.676.035-.988.052-.312.017-.624.043-.936.078a9.816 9.816 0 00-.806.078c-1.248.156-2.132.433-2.652.832-.52.381-.78.936-.78 1.664 0 .607.182 1.066.546 1.378.382.295.876.442 1.482.442.832 0 1.569-.139 2.21-.416.659-.295 1.3-.676 1.924-1.144V44.38zm-.026 4.784c-.814.468-1.577.85-2.288 1.144a6.033 6.033 0 01-2.262.416c-1.161 0-2.088-.277-2.782-.832-.676-.572-1.014-1.508-1.014-2.808 0-.676.174-1.265.52-1.768a4.263 4.263 0 011.352-1.248 7.388 7.388 0 011.924-.806c.711-.19 1.439-.312 2.184-.364.312-.035.72-.06 1.222-.078.503-.035.893-.06 1.17-.078 0-.607-.017-1.144-.052-1.612-.034-.485-.138-.893-.312-1.222a1.697 1.697 0 00-.78-.78c-.329-.173-.806-.26-1.43-.26-.502 0-.988.035-1.456.104a16.45 16.45 0 00-1.248.182c-.433.087-.832.182-1.196.286l-.416-1.794a22.4 22.4 0 011.404-.286 14.46 14.46 0 011.508-.208 15.39 15.39 0 011.846-.104c.884 0 1.595.13 2.132.39.555.26.98.615 1.274 1.066.312.433.52.936.624 1.508.122.555.182 1.144.182 1.768V48.8l.052.78c.035.26.07.529.104.806l-2.002.208-.26-1.43zm5.798-9.256c.017-.364-.026-1.153-.13-2.366l1.924-.26.286 1.664c.52-.347 1.031-.65 1.534-.91.52-.26 1.048-.485 1.586-.676a4.308 4.308 0 011.56-.312c.71 0 1.3.087 1.768.26.485.156.875.425 1.17.806.294.381.502.884.624 1.508.138.624.208 1.404.208 2.34v8.424h-2.08v-8.19c0-.52-.009-.98-.026-1.378-.018-.416-.096-.763-.234-1.04a1.344 1.344 0 00-.598-.676c-.26-.156-.633-.234-1.118-.234-.451 0-.928.104-1.43.312-.503.19-.997.416-1.482.676-.486.26-.98.563-1.482.91v9.62h-2.08V39.908zM21.288 62.654h4.082c2.253 0 3.917.399 4.992 1.196 1.092.797 1.638 2.14 1.638 4.03 0 1.04-.2 1.907-.598 2.6a5.269 5.269 0 01-1.508 1.69c-.59.416-1.23.72-1.924.91a7.973 7.973 0 01-1.924.26h-2.574v7.046h-2.184V62.654zm2.184 8.736h2.392a7.34 7.34 0 001.586-.156 3.447 3.447 0 001.248-.572c.347-.277.615-.641.806-1.092.19-.468.286-1.049.286-1.742 0-.693-.104-1.248-.312-1.664a2.05 2.05 0 00-.884-.988c-.381-.225-.867-.373-1.456-.442-.59-.087-1.274-.13-2.054-.13h-1.612v6.786zm11.857-8.736h10.868v2.002h-8.684v5.668h8.06v1.95h-8.06v6.11h8.944v2.002H35.329V62.654zm14.676 0h4.368c.953 0 1.82.087 2.6.26.797.156 1.473.433 2.028.832.555.381.98.893 1.274 1.534.294.641.442 1.447.442 2.418-.017 1.075-.2 1.95-.546 2.626-.347.659-.771 1.196-1.274 1.612a5.014 5.014 0 01-1.742.884v.052c.07.07.173.2.312.39.156.173.286.33.39.468l5.018 6.656H60.3l-5.148-7.046h-2.964v7.046h-2.184V62.654zm8.502 5.408c0-.728-.096-1.317-.286-1.768-.173-.468-.442-.823-.806-1.066-.347-.243-.78-.407-1.3-.494-.52-.087-1.11-.13-1.768-.13h-2.158v6.786h2.574c.676 0 1.248-.087 1.716-.26.468-.173.85-.407 1.144-.702.294-.312.511-.667.65-1.066.138-.399.216-.832.234-1.3zm6.554-5.408h4.368c.954 0 1.82.087 2.6.26.798.156 1.474.433 2.028.832.555.381.98.893 1.274 1.534.295.641.442 1.447.442 2.418-.017 1.075-.199 1.95-.546 2.626-.346.659-.77 1.196-1.274 1.612a5.013 5.013 0 01-1.742.884v.052c.07.07.174.2.312.39.156.173.286.33.39.468l5.018 6.656h-2.574L70.21 73.34h-2.964v7.046h-2.184V62.654zm8.502 5.408c0-.728-.095-1.317-.286-1.768-.173-.468-.442-.823-.806-1.066-.346-.243-.78-.407-1.3-.494-.52-.087-1.109-.13-1.768-.13h-2.158v6.786h2.574c.676 0 1.248-.087 1.716-.26.468-.173.85-.407 1.144-.702.295-.312.512-.667.65-1.066.14-.399.217-.832.234-1.3zm5.466 3.458c0-1.681.26-3.103.78-4.264.538-1.161 1.213-2.097 2.028-2.808a7.745 7.745 0 012.756-1.534 9.728 9.728 0 012.99-.494c.97 0 1.959.139 2.964.416a6.778 6.778 0 012.756 1.43c.832.676 1.508 1.603 2.028 2.782.537 1.179.806 2.678.806 4.498 0 1.699-.269 3.129-.806 4.29-.52 1.161-1.196 2.106-2.028 2.834a7.584 7.584 0 01-2.756 1.586 9.965 9.965 0 01-2.964.468c-.97 0-1.967-.156-2.99-.468a7.745 7.745 0 01-2.756-1.534c-.815-.71-1.49-1.655-2.028-2.834-.52-1.179-.78-2.635-.78-4.368zm14.638.13c0-2.34-.546-4.117-1.638-5.33-1.075-1.213-2.522-1.82-4.342-1.82-.918 0-1.76.147-2.522.442a5.219 5.219 0 00-1.95 1.274c-.537.572-.962 1.291-1.274 2.158-.294.85-.442 1.855-.442 3.016 0 2.34.538 4.134 1.612 5.382 1.092 1.248 2.548 1.872 4.368 1.872.901 0 1.734-.139 2.496-.416a5.074 5.074 0 001.95-1.326c.555-.59.98-1.317 1.274-2.184.312-.867.468-1.89.468-3.068zm15.152-6.552c-.416-.104-.849-.2-1.3-.286a12.324 12.324 0 00-1.378-.208 11.614 11.614 0 00-1.586-.104c-1.283 0-2.201.2-2.756.598-.555.381-.832.98-.832 1.794.017.641.251 1.187.702 1.638.451.433 1.014.84 1.69 1.222.676.364 1.413.728 2.21 1.092.815.347 1.56.754 2.236 1.222.676.45 1.239.988 1.69 1.612.468.607.702 1.352.702 2.236 0 1.023-.225 1.846-.676 2.47a4.489 4.489 0 01-1.664 1.456 7.178 7.178 0 01-2.236.702c-.797.121-1.56.182-2.288.182-.693 0-1.326-.043-1.898-.13a16.233 16.233 0 01-1.482-.286 10.9 10.9 0 01-1.326-.416l.52-2.106c.399.173.823.32 1.274.442.399.104.841.2 1.326.286.503.087 1.031.13 1.586.13.676 0 1.291-.043 1.846-.13a5.558 5.558 0 001.482-.416c.416-.19.737-.442.962-.754.243-.312.364-.693.364-1.144-.017-.676-.243-1.222-.676-1.638-.416-.433-.979-.84-1.69-1.222a24.895 24.895 0 00-2.262-1.144 14.334 14.334 0 01-2.21-1.248 7.124 7.124 0 01-1.716-1.664c-.45-.641-.676-1.439-.676-2.392 0-.555.095-1.1.286-1.638.19-.537.511-1.014.962-1.43.468-.416 1.066-.754 1.794-1.014.745-.26 1.664-.39 2.756-.39.624 0 1.213.035 1.768.104.572.052 1.066.113 1.482.182.485.087.945.182 1.378.286l-.364 2.106zM19 58.186h189.643v1.3H19v-1.3zm0 30h92.133v1.3H19v-1.3z" fill="#C63F3E"/><a><path fill="none" d="M0 -0.639H195.597V30.639H0z"/></a><a><path fill="none" d="M0 29.361H92.133V60.638999999999996H0z"/></a></svg>