<svg width="342" height="97" fill="none" xmlns="http://www.w3.org/2000/svg"><rect width="342" height="97" rx="28.5" fill="#EAA7C7"/><path d="M320.707 53.462a1 1 0 000-1.415l-6.364-6.364a1 1 0 10-1.414 1.414l5.657 5.657-5.657 5.657a1 1 0 101.414 1.414l6.364-6.364zM292 52.754v1h28v-2h-28v1zM21.288 33.496h4.082c2.253 0 3.917.399 4.992 1.196 1.092.797 1.638 2.14 1.638 4.03 0 1.04-.2 1.907-.598 2.6a5.268 5.268 0 01-1.508 1.69 6.13 6.13 0 01-1.924.91 7.968 7.968 0 01-1.924.26h-2.574v7.046h-2.184V33.496zm2.184 8.736h2.392a7.34 7.34 0 001.586-.156 3.447 3.447 0 001.248-.572c.347-.277.615-.641.806-1.092.19-.468.286-1.049.286-1.742 0-.693-.104-1.248-.312-1.664a2.05 2.05 0 00-.884-.988c-.381-.225-.867-.373-1.456-.442-.59-.087-1.274-.13-2.054-.13h-1.612v6.786zm11.467-1.976c0-.399-.043-1.023-.13-1.872l1.924-.26.208 1.898h.026c.312-.399.615-.745.91-1.04a6 6 0 01.91-.754c.33-.225.641-.338.936-.338.399-.017.953.026 1.664.13l-.468 2.002c-.572-.104-.97-.147-1.196-.13-.295 0-.607.139-.936.416a5.88 5.88 0 00-.858.884 11.38 11.38 0 00-.91 1.3v8.736h-2.08V40.256zm9.835 4.498c0 1.681.373 2.938 1.118 3.77.763.815 1.785 1.222 3.068 1.222 1.265 0 2.253-.407 2.964-1.222.71-.815 1.066-2.037 1.066-3.666 0-1.733-.381-3.025-1.144-3.874-.745-.85-1.768-1.274-3.068-1.274s-2.297.425-2.99 1.274c-.676.832-1.014 2.089-1.014 3.77zm-2.21-.026c0-1.317.208-2.41.624-3.276.416-.884.945-1.586 1.586-2.106.641-.537 1.326-.91 2.054-1.118.745-.225 1.447-.338 2.106-.338.624 0 1.3.104 2.028.312a5.19 5.19 0 012.054 1.066c.624.503 1.144 1.187 1.56 2.054.416.85.624 1.933.624 3.25 0 1.37-.217 2.505-.65 3.406-.416.901-.945 1.62-1.586 2.158a5.726 5.726 0 01-2.08 1.092c-.745.225-1.439.338-2.08.338a7.574 7.574 0 01-2.08-.312 5.715 5.715 0 01-2.028-1.066c-.607-.52-1.118-1.222-1.534-2.106-.399-.884-.598-2.002-.598-3.354zm17.738-6.864v13.13c0 1.56-.286 2.843-.858 3.848-.572 1.023-1.465 1.88-2.678 2.574L55.7 55.57c.52-.312.944-.659 1.274-1.04.329-.364.58-.763.754-1.196.19-.416.32-.85.39-1.3.069-.433.104-.875.104-1.326V38.176l2.08-.312zm-2.496-3.458c0-.399.13-.728.39-.988a1.38 1.38 0 011.014-.416c.416 0 .762.139 1.04.416.294.26.442.59.442.988 0 .399-.148.737-.442 1.014-.278.26-.624.39-1.04.39-.4 0-.737-.13-1.014-.39a1.428 1.428 0 01-.39-1.014zm15.902 16.51c-.399.121-.815.225-1.248.312-.416.087-.884.165-1.404.234a11.6 11.6 0 01-1.586.104 7.766 7.766 0 01-2.418-.364 4.977 4.977 0 01-1.95-1.17c-.555-.537-.997-1.23-1.326-2.08-.312-.867-.468-1.924-.468-3.172 0-1.127.156-2.115.468-2.964.312-.867.737-1.586 1.274-2.158a5.401 5.401 0 011.924-1.326 6.519 6.519 0 012.418-.442c.85 0 1.586.165 2.21.494.624.33 1.135.78 1.534 1.352.416.555.72 1.213.91 1.976.208.745.312 1.534.312 2.366l-.39 1.144H65.57c0 .537.07 1.075.208 1.612.139.537.373 1.023.702 1.456.347.433.789.789 1.326 1.066.555.26 1.24.39 2.054.39.52 0 .997-.026 1.43-.078.433-.07.806-.139 1.118-.208.33-.087.633-.182.91-.286l.39 1.742zM72.2 43.558c0-.121-.026-.39-.078-.806a4.91 4.91 0 00-.364-1.3c-.19-.45-.485-.85-.884-1.196-.399-.364-.927-.546-1.586-.546-.728 0-1.326.156-1.794.468-.468.295-.84.65-1.118 1.066-.277.416-.468.84-.572 1.274-.104.433-.156.78-.156 1.04H72.2zm8.03-9.308v3.9H84v1.69h-3.77v6.942c0 .572.01 1.049.026 1.43.035.381.096.685.182.91.087.225.208.39.364.494.156.087.356.13.598.13.66-.017 1.422-.26 2.288-.728l.624 1.586c-.572.381-1.109.633-1.612.754-.485.139-.97.208-1.456.208-1.144 0-1.95-.32-2.418-.962-.45-.659-.676-1.742-.676-3.25V39.84h-2.392v-1.69h2.392v-3.64l2.08-.26zm20.535 5.85c-.624-.173-1.11-.277-1.457-.312a7.178 7.178 0 00-1.066-.078c-.728 0-1.352.13-1.871.39a3.6 3.6 0 00-1.3 1.092 4.6 4.6 0 00-.728 1.586 7.395 7.395 0 00-.234 1.898c0 .607.06 1.213.181 1.82.14.607.347 1.153.624 1.638.278.485.616.875 1.014 1.17.4.295.876.442 1.43.442.382 0 .772-.07 1.17-.208a8.716 8.716 0 001.144-.468c.347-.19.711-.425 1.093-.702V40.1zm.026 10.088a9.491 9.491 0 01-1.17.702c-.364.173-.772.33-1.222.468a4.165 4.165 0 01-1.275.208c-1.629 0-2.911-.572-3.847-1.716-.92-1.161-1.379-2.851-1.379-5.07 0-1.317.209-2.418.624-3.302.434-.884.971-1.586 1.612-2.106a5.911 5.911 0 012.055-1.144c.745-.225 1.43-.338 2.054-.338.312 0 .64.026.988.078.346.035.858.139 1.534.312v-6.526l2.08-.234v18.122l.052.78.104.806-2.002.208-.208-1.248zm15.497.728c-.399.121-.815.225-1.248.312-.416.087-.884.165-1.404.234-.503.07-1.031.104-1.586.104a7.764 7.764 0 01-2.418-.364 4.983 4.983 0 01-1.95-1.17c-.555-.537-.997-1.23-1.326-2.08-.312-.867-.468-1.924-.468-3.172 0-1.127.156-2.115.468-2.964.312-.867.737-1.586 1.274-2.158a5.405 5.405 0 011.924-1.326 6.516 6.516 0 012.418-.442c.849 0 1.586.165 2.21.494.624.33 1.135.78 1.534 1.352.416.555.719 1.213.91 1.976.208.745.312 1.534.312 2.366l-.39 1.144h-8.398c0 .537.069 1.075.208 1.612.139.537.373 1.023.702 1.456.347.433.789.789 1.326 1.066.555.26 1.239.39 2.054.39.52 0 .997-.026 1.43-.078.433-.07.806-.139 1.118-.208.329-.087.633-.182.91-.286l.39 1.742zm-1.508-7.358c0-.121-.026-.39-.078-.806a4.896 4.896 0 00-.364-1.3 3.26 3.26 0 00-.884-1.196c-.399-.364-.927-.546-1.586-.546-.728 0-1.326.156-1.794.468-.468.295-.841.65-1.118 1.066a3.97 3.97 0 00-.572 1.274c-.104.433-.156.78-.156 1.04h6.552zm15.324-10.062V45.69c0 1.023-.095 1.898-.286 2.626a3.015 3.015 0 01-1.092 1.716c-.399.312-.919.615-1.56.91-.624.277-1.456.485-2.496.624l-.286-1.846c.815-.139 1.456-.312 1.924-.52.485-.225.841-.494 1.066-.806.243-.312.39-.693.442-1.144.069-.45.104-.98.104-1.586V33.496h2.184zm13.53 17.42c-.399.121-.815.225-1.248.312-.416.087-.884.165-1.404.234-.503.07-1.031.104-1.586.104a7.764 7.764 0 01-2.418-.364 4.983 4.983 0 01-1.95-1.17c-.555-.537-.997-1.23-1.326-2.08-.312-.867-.468-1.924-.468-3.172 0-1.127.156-2.115.468-2.964.312-.867.737-1.586 1.274-2.158a5.405 5.405 0 011.924-1.326 6.516 6.516 0 012.418-.442c.849 0 1.586.165 2.21.494.624.33 1.135.78 1.534 1.352.416.555.719 1.213.91 1.976.208.745.312 1.534.312 2.366l-.39 1.144h-8.398c0 .537.069 1.075.208 1.612.139.537.373 1.023.702 1.456.347.433.789.789 1.326 1.066.555.26 1.239.39 2.054.39.52 0 .997-.026 1.43-.078.433-.07.806-.139 1.118-.208.329-.087.633-.182.91-.286l.39 1.742zm-1.508-7.358c0-.121-.026-.39-.078-.806a4.896 4.896 0 00-.364-1.3 3.26 3.26 0 00-.884-1.196c-.399-.364-.927-.546-1.586-.546-.728 0-1.326.156-1.794.468-.468.295-.841.65-1.118 1.066a3.97 3.97 0 00-.572 1.274c-.104.433-.156.78-.156 1.04h6.552zm5.014-3.302c0-.399-.043-1.023-.13-1.872l1.924-.26.208 1.898h.026c.312-.399.616-.745.91-1.04.295-.295.598-.546.91-.754.33-.225.642-.338.936-.338.399-.017.954.026 1.664.13l-.468 2.002c-.572-.104-.97-.147-1.196-.13-.294 0-.606.139-.936.416a5.909 5.909 0 00-.858.884c-.312.381-.615.815-.91 1.3v8.736h-2.08V40.256zm18.025 10.66c-.399.121-.815.225-1.248.312-.416.087-.884.165-1.404.234-.503.07-1.031.104-1.586.104a7.764 7.764 0 01-2.418-.364 4.983 4.983 0 01-1.95-1.17c-.555-.537-.997-1.23-1.326-2.08-.312-.867-.468-1.924-.468-3.172 0-1.127.156-2.115.468-2.964.312-.867.737-1.586 1.274-2.158a5.405 5.405 0 011.924-1.326 6.516 6.516 0 012.418-.442c.849 0 1.586.165 2.21.494.624.33 1.135.78 1.534 1.352.416.555.719 1.213.91 1.976.208.745.312 1.534.312 2.366l-.39 1.144h-8.398c0 .537.069 1.075.208 1.612.139.537.373 1.023.702 1.456.347.433.789.789 1.326 1.066.555.26 1.239.39 2.054.39.52 0 .997-.026 1.43-.078.433-.07.806-.139 1.118-.208.329-.087.633-.182.91-.286l.39 1.742zm-1.508-7.358c0-.121-.026-.39-.078-.806a4.896 4.896 0 00-.364-1.3 3.26 3.26 0 00-.884-1.196c-.399-.364-.927-.546-1.586-.546-.728 0-1.326.156-1.794.468-.468.295-.841.65-1.118 1.066a3.97 3.97 0 00-.572 1.274c-.104.433-.156.78-.156 1.04h6.552zm5.014-3.042c0-.59-.052-1.3-.156-2.132l1.95-.26.286 1.638c.468-.347.928-.65 1.378-.91a9.36 9.36 0 011.456-.676 4.578 4.578 0 011.586-.286c.867 0 1.552.156 2.054.468.503.295.876.806 1.118 1.534a22.523 22.523 0 012.21-1.378 5.076 5.076 0 012.418-.624c.642 0 1.188.087 1.638.26a2.21 2.21 0 011.092.806c.278.381.477.884.598 1.508.122.624.182 1.404.182 2.34v8.424h-2.08v-8.19c0-.52-.008-.98-.026-1.378-.017-.416-.078-.763-.182-1.04a1.281 1.281 0 00-.52-.676c-.225-.156-.554-.234-.988-.234-.398 0-.78.06-1.144.182-.346.104-.71.26-1.092.468-.381.208-.97.633-1.768 1.274v9.594h-2.08v-8.19c0-.52-.008-.98-.026-1.378-.017-.416-.078-.763-.182-1.04a1.281 1.281 0 00-.52-.676c-.225-.156-.554-.234-.988-.234-.45 0-.918.095-1.404.286a9.29 9.29 0 00-1.378.676c-.433.26-.884.563-1.352.91v9.646h-2.08V40.516zm19.79-2.366h2.21l2.444 5.902c.243.572.46 1.144.65 1.716.208.572.39 1.083.546 1.534.191.537.356 1.057.494 1.56h.026c.156-.503.33-1.023.52-1.56.156-.45.338-.962.546-1.534.208-.572.425-1.144.65-1.716l2.262-5.902h2.184l-6.188 15.6a5.567 5.567 0 01-.962 1.664 9.13 9.13 0 01-1.118 1.17 8.567 8.567 0 01-1.352.936l-1.014-1.794c.364-.173.702-.39 1.014-.65.278-.225.555-.511.832-.858.278-.33.503-.728.676-1.196l.806-2.132-5.226-12.74zM19.468 63.496h2.21l5.096 15.652h.026l5.018-15.652h2.21l-5.902 17.732H25.37l-5.902-17.732zm17.308 0h2.184v17.732h-2.184V63.496zm18.818 2.496c-.433-.139-.892-.26-1.378-.364a12.888 12.888 0 00-1.612-.286 12.162 12.162 0 00-1.82-.13c-1.04 0-1.924.225-2.652.676a5.74 5.74 0 00-1.794 1.742 7.443 7.443 0 00-.988 2.34 11 11 0 00-.312 2.574c0 1.075.148 2.054.442 2.938.312.867.728 1.612 1.248 2.236a5.746 5.746 0 001.846 1.404c.71.33 1.456.494 2.236.494a17.7 17.7 0 002.002-.104 28.96 28.96 0 001.56-.26c.503-.104.953-.225 1.352-.364l.442 1.846c-.468.156-.988.295-1.56.416-.485.104-1.049.2-1.69.286-.641.087-1.343.13-2.106.13-1.37 0-2.574-.225-3.614-.676a7.208 7.208 0 01-2.574-1.872c-.676-.815-1.187-1.768-1.534-2.86-.346-1.11-.52-2.323-.52-3.64 0-1.508.208-2.834.624-3.978.416-1.161.988-2.132 1.716-2.912a7.081 7.081 0 012.6-1.768c1.005-.399 2.106-.598 3.302-.598.728 0 1.404.043 2.028.13.642.07 1.222.165 1.742.286.538.121 1.032.251 1.482.39l-.468 1.924zm8.02-2.496h2.703l6.084 17.732H70.14l-1.56-4.732h-7.202l-1.586 4.732H57.53l6.084-17.732zm4.263 10.92l-2.86-8.84h-.078l-2.886 8.84h5.824zm7.315-10.92h2.184v17.732h-2.184V63.496zm6.754 0h4.368c.954 0 1.82.087 2.6.26.797.156 1.474.433 2.028.832.555.381.98.893 1.274 1.534.295.641.442 1.447.442 2.418-.017 1.075-.2 1.95-.546 2.626-.346.659-.771 1.196-1.274 1.612a5.012 5.012 0 01-1.742.884v.052c.07.07.173.2.312.39.156.173.286.33.39.468l5.018 6.656h-2.574l-5.148-7.046H84.13v7.046h-2.184V63.496zm8.502 5.408c0-.728-.095-1.317-.286-1.768-.173-.468-.442-.823-.806-1.066-.346-.243-.78-.407-1.3-.494-.52-.087-1.11-.13-1.768-.13H84.13v6.786h2.574c.676 0 1.248-.087 1.716-.26.468-.173.85-.407 1.144-.702.295-.312.512-.667.65-1.066.139-.399.217-.832.234-1.3zm6.555-5.408h10.868v2.002h-8.684v5.668h8.06v1.95h-8.06v6.11h8.944v2.002H97.003V63.496zM19 59.028h182.203v1.3H19v-1.3zm0 30h90.379v1.3H19v-1.3z" fill="#C63F3E"/><a><path fill="none" d="M0 -0.639H188.157V30.639H0z"/></a><a><path fill="none" d="M0 29.361H90.379V60.638999999999996H0z"/></a></svg>