<svg width="342" height="97" fill="none" xmlns="http://www.w3.org/2000/svg"><rect width="342" height="97" rx="28.5" fill="#EAA7C7"/><path d="M320.707 53.462a1 1 0 000-1.415l-6.364-6.364a1 1 0 10-1.414 1.414l5.657 5.657-5.657 5.657a1 1 0 101.414 1.414l6.364-6.364zM292 52.754v1h28v-2h-28v1zM21.288 33.496h4.082c2.253 0 3.917.399 4.992 1.196 1.092.797 1.638 2.14 1.638 4.03 0 1.04-.2 1.907-.598 2.6a5.269 5.269 0 01-1.508 1.69c-.59.416-1.23.72-1.924.91a7.973 7.973 0 01-1.924.26h-2.574v7.046h-2.184V33.496zm2.184 8.736h2.392a7.34 7.34 0 001.586-.156 3.447 3.447 0 001.248-.572c.347-.277.615-.641.806-1.092.19-.468.286-1.049.286-1.742 0-.693-.104-1.248-.312-1.664a2.05 2.05 0 00-.884-.988c-.381-.225-.867-.373-1.456-.442-.59-.087-1.274-.13-2.054-.13h-1.612v6.786zm11.467-1.976c0-.399-.043-1.023-.13-1.872l1.924-.26.208 1.898h.026c.312-.399.615-.745.91-1.04.295-.295.598-.546.91-.754.33-.225.641-.338.936-.338.399-.017.953.026 1.664.13l-.468 2.002c-.572-.104-.97-.147-1.196-.13-.295 0-.607.139-.936.416-.33.277-.615.572-.858.884-.312.381-.615.815-.91 1.3v8.736h-2.08V40.256zm9.835 4.498c0 1.681.373 2.938 1.118 3.77.763.815 1.785 1.222 3.068 1.222 1.265 0 2.253-.407 2.964-1.222.71-.815 1.066-2.037 1.066-3.666 0-1.733-.381-3.025-1.144-3.874-.745-.85-1.768-1.274-3.068-1.274s-2.297.425-2.99 1.274c-.676.832-1.014 2.089-1.014 3.77zm-2.21-.026c0-1.317.208-2.41.624-3.276.416-.884.945-1.586 1.586-2.106.641-.537 1.326-.91 2.054-1.118.745-.225 1.447-.338 2.106-.338.624 0 1.3.104 2.028.312a5.19 5.19 0 012.054 1.066c.624.503 1.144 1.187 1.56 2.054.416.85.624 1.933.624 3.25 0 1.37-.217 2.505-.65 3.406-.416.901-.945 1.62-1.586 2.158a5.726 5.726 0 01-2.08 1.092c-.745.225-1.439.338-2.08.338a7.574 7.574 0 01-2.08-.312 5.715 5.715 0 01-2.028-1.066c-.607-.52-1.118-1.222-1.534-2.106-.399-.884-.598-2.002-.598-3.354zm17.738-6.864v13.13c0 1.56-.286 2.843-.858 3.848-.572 1.023-1.465 1.88-2.678 2.574L55.7 55.57c.52-.312.944-.659 1.274-1.04.329-.364.58-.763.754-1.196.19-.416.32-.85.39-1.3.069-.433.104-.875.104-1.326V38.176l2.08-.312zm-2.496-3.458c0-.399.13-.728.39-.988a1.38 1.38 0 011.014-.416c.416 0 .762.139 1.04.416.294.26.442.59.442.988 0 .399-.148.737-.442 1.014-.278.26-.624.39-1.04.39-.4 0-.737-.13-1.014-.39a1.428 1.428 0 01-.39-1.014zm15.902 16.51c-.399.121-.815.225-1.248.312-.416.087-.884.165-1.404.234-.503.07-1.031.104-1.586.104a7.766 7.766 0 01-2.418-.364 4.98 4.98 0 01-1.95-1.17c-.555-.537-.997-1.23-1.326-2.08-.312-.867-.468-1.924-.468-3.172 0-1.127.156-2.115.468-2.964.312-.867.737-1.586 1.274-2.158a5.401 5.401 0 011.924-1.326 6.517 6.517 0 012.418-.442c.85 0 1.586.165 2.21.494.624.33 1.135.78 1.534 1.352.416.555.72 1.213.91 1.976.208.745.312 1.534.312 2.366l-.39 1.144H65.57c0 .537.07 1.075.208 1.612.139.537.373 1.023.702 1.456.347.433.789.789 1.326 1.066.555.26 1.24.39 2.054.39.52 0 .997-.026 1.43-.078.433-.07.806-.139 1.118-.208.33-.087.633-.182.91-.286l.39 1.742zM72.2 43.558c0-.121-.026-.39-.078-.806a4.91 4.91 0 00-.364-1.3c-.19-.45-.485-.85-.884-1.196-.399-.364-.927-.546-1.586-.546-.728 0-1.326.156-1.794.468-.468.295-.84.65-1.118 1.066-.277.416-.468.84-.572 1.274-.104.433-.156.78-.156 1.04H72.2zm8.03-9.308v3.9H84v1.69h-3.77v6.942c0 .572.01 1.049.026 1.43.035.381.096.685.182.91.087.225.208.39.364.494.156.087.356.13.598.13.66-.017 1.422-.26 2.288-.728l.624 1.586c-.572.381-1.109.633-1.612.754-.485.139-.97.208-1.456.208-1.144 0-1.95-.32-2.418-.962-.45-.659-.676-1.742-.676-3.25V39.84h-2.392v-1.69h2.392v-3.64l2.08-.26zm20.535 5.85c-.624-.173-1.11-.277-1.457-.312a7.178 7.178 0 00-1.066-.078c-.728 0-1.352.13-1.871.39a3.6 3.6 0 00-1.3 1.092c-.33.45-.572.98-.728 1.586a7.395 7.395 0 00-.234 1.898c0 .607.06 1.213.181 1.82.14.607.347 1.153.624 1.638.278.485.616.875 1.014 1.17.4.295.876.442 1.43.442.382 0 .772-.07 1.17-.208a8.743 8.743 0 001.144-.468c.347-.19.711-.425 1.093-.702V40.1zm.026 10.088a9.516 9.516 0 01-1.17.702c-.364.173-.772.33-1.222.468a4.165 4.165 0 01-1.275.208c-1.629 0-2.911-.572-3.847-1.716-.92-1.161-1.379-2.851-1.379-5.07 0-1.317.209-2.418.624-3.302.434-.884.971-1.586 1.612-2.106a5.91 5.91 0 012.055-1.144c.745-.225 1.43-.338 2.054-.338.312 0 .64.026.988.078.346.035.858.139 1.534.312v-6.526l2.08-.234v18.122l.052.78.104.806-2.002.208-.208-1.248zm15.497.728c-.399.121-.815.225-1.248.312-.416.087-.884.165-1.404.234-.503.07-1.031.104-1.586.104a7.764 7.764 0 01-2.418-.364 4.986 4.986 0 01-1.95-1.17c-.555-.537-.997-1.23-1.326-2.08-.312-.867-.468-1.924-.468-3.172 0-1.127.156-2.115.468-2.964.312-.867.737-1.586 1.274-2.158a5.405 5.405 0 011.924-1.326 6.514 6.514 0 012.418-.442c.849 0 1.586.165 2.21.494.624.33 1.135.78 1.534 1.352.416.555.719 1.213.91 1.976.208.745.312 1.534.312 2.366l-.39 1.144h-8.398c0 .537.069 1.075.208 1.612.139.537.373 1.023.702 1.456.347.433.789.789 1.326 1.066.555.26 1.239.39 2.054.39.52 0 .997-.026 1.43-.078.433-.07.806-.139 1.118-.208.329-.087.633-.182.91-.286l.39 1.742zm-1.508-7.358c0-.121-.026-.39-.078-.806a4.896 4.896 0 00-.364-1.3 3.26 3.26 0 00-.884-1.196c-.399-.364-.927-.546-1.586-.546-.728 0-1.326.156-1.794.468-.468.295-.841.65-1.118 1.066a3.97 3.97 0 00-.572 1.274c-.104.433-.156.78-.156 1.04h6.552zm11.346-10.062h10.868v2.002h-8.684v5.668h8.06v1.95h-8.06v6.11h8.944v2.002h-11.128V33.496zm12.343 4.654h2.288l3.172 9.23.572 2.054h.026l.598-2.054 3.38-9.23h2.184l-5.07 13.078h-2.34l-4.81-13.078zm21.486 7.072c-.347.017-.676.035-.988.052-.312.017-.624.043-.936.078a9.73 9.73 0 00-.806.078c-1.248.156-2.132.433-2.652.832-.52.381-.78.936-.78 1.664 0 .607.182 1.066.546 1.378.381.295.875.442 1.482.442.832 0 1.568-.139 2.21-.416.658-.295 1.3-.676 1.924-1.144v-2.964zm-.026 4.784c-.815.468-1.578.85-2.288 1.144a6.04 6.04 0 01-2.262.416c-1.162 0-2.089-.277-2.782-.832-.676-.572-1.014-1.508-1.014-2.808 0-.676.173-1.265.52-1.768a4.242 4.242 0 011.352-1.248 7.373 7.373 0 011.924-.806c.71-.19 1.438-.312 2.184-.364.312-.035.719-.06 1.222-.078.502-.035.892-.06 1.17-.078 0-.607-.018-1.144-.052-1.612-.035-.485-.139-.893-.312-1.222a1.706 1.706 0 00-.78-.78c-.33-.173-.806-.26-1.43-.26-.503 0-.988.035-1.456.104a16.45 16.45 0 00-1.248.182 15.21 15.21 0 00-1.196.286l-.416-1.794c.433-.104.901-.2 1.404-.286.433-.087.936-.156 1.508-.208.572-.07 1.187-.104 1.846-.104.884 0 1.594.13 2.132.39.554.26.979.615 1.274 1.066.312.433.52.936.624 1.508a8.28 8.28 0 01.182 1.768V49.642l.052.78.104.806-2.002.208-.26-1.43zm5.797-9.256c.017-.364-.026-1.153-.13-2.366l1.924-.26.286 1.664c.52-.347 1.031-.65 1.534-.91.52-.26 1.049-.485 1.586-.676a4.308 4.308 0 011.56-.312c.711 0 1.3.087 1.768.26.485.156.875.425 1.17.806.295.381.503.884.624 1.508.139.624.208 1.404.208 2.34v8.424h-2.08v-8.19c0-.52-.009-.98-.026-1.378-.017-.416-.095-.763-.234-1.04a1.34 1.34 0 00-.598-.676c-.26-.156-.633-.234-1.118-.234-.451 0-.927.104-1.43.312-.503.19-.997.416-1.482.676-.485.26-.979.563-1.482.91v9.62h-2.08V40.75zM34.782 65.992a57.823 57.823 0 00-2.444-.442 23.002 23.002 0 00-2.964-.26c-1.144.017-2.132.19-2.964.52-.832.33-1.517.806-2.054 1.43-.52.607-.91 1.335-1.17 2.184-.26.85-.39 1.785-.39 2.808 0 1.317.165 2.444.494 3.38.347.936.815 1.707 1.404 2.314a5.653 5.653 0 002.106 1.3 7.783 7.783 0 002.574.416c.59 0 1.118-.035 1.586-.104.485-.07.901-.147 1.248-.234.364-.104.693-.217.988-.338v-4.758h-3.25v-1.95h5.46v7.774c-.607.399-1.447.763-2.522 1.092-1.057.312-2.227.46-3.51.442-1.179 0-2.314-.139-3.406-.416a7.453 7.453 0 01-2.886-1.456c-.832-.71-1.5-1.673-2.002-2.886-.503-1.213-.754-2.747-.754-4.602 0-1.508.234-2.817.702-3.926.468-1.127 1.1-2.054 1.898-2.782a7.946 7.946 0 012.808-1.664 10.11 10.11 0 013.406-.572c.78 0 1.534.043 2.262.13.728.07 1.395.156 2.002.26.607.087 1.187.2 1.742.338l-.364 2.002zm4.508-2.496h2.184v17.732H39.29V63.496zm18.818 2.496a14.47 14.47 0 00-1.378-.364 12.873 12.873 0 00-1.612-.286 12.149 12.149 0 00-1.82-.13c-1.04 0-1.924.225-2.652.676a5.738 5.738 0 00-1.794 1.742 7.441 7.441 0 00-.988 2.34 11 11 0 00-.312 2.574c0 1.075.147 2.054.442 2.938.312.867.728 1.612 1.248 2.236a5.745 5.745 0 001.846 1.404c.71.33 1.456.494 2.236.494.728 0 1.395-.035 2.002-.104a29.094 29.094 0 001.56-.26c.502-.104.953-.225 1.352-.364l.442 1.846c-.468.156-.988.295-1.56.416-.485.104-1.049.2-1.69.286-.642.087-1.343.13-2.106.13-1.37 0-2.574-.225-3.614-.676a7.21 7.21 0 01-2.574-1.872c-.676-.815-1.188-1.768-1.534-2.86-.347-1.11-.52-2.323-.52-3.64 0-1.508.208-2.834.624-3.978.416-1.161.988-2.132 1.716-2.912a7.08 7.08 0 012.6-1.768c1.005-.399 2.106-.598 3.302-.598.728 0 1.404.043 2.028.13.641.07 1.222.165 1.742.286.537.121 1.031.251 1.482.39l-.468 1.924zm3.729-2.496h2.184v7.67h8.97v-7.67h2.184v17.732H72.99v-8.112h-8.97v8.112h-2.184V63.496zm21.644 2.028h-5.564v-2.028h13.312v2.028h-5.564v15.704H83.48V65.524zm10.475-2.028h10.868v2.002H96.14v5.668h8.06v1.95h-8.06v6.11h8.944v2.002H93.956V63.496zm14.676 0h2.08l9.308 14.066h.052a40.67 40.67 0 01-.078-1.612 37.653 37.653 0 01-.078-1.664v-10.79h2.08v17.732h-2.08l-9.308-14.118h-.052c.017.52.043 1.066.078 1.638.017.503.034 1.066.052 1.69.017.624.026 1.265.026 1.924v8.866h-2.08V63.496zm22.241 0h2.704l6.084 17.732h-2.262l-1.56-4.732h-7.202l-1.586 4.732h-2.262l6.084-17.732zm4.264 10.92l-2.86-8.84h-.078l-2.886 8.84h5.824zm7.315-10.92h10.868v2.002h-8.684v5.668h8.06v1.95h-8.06v6.11h8.944v2.002h-11.128V63.496zm14.676 0h4.368c.953 0 1.82.087 2.6.26.797.156 1.473.433 2.028.832.555.381.979.893 1.274 1.534.295.641.442 1.447.442 2.418-.017 1.075-.199 1.95-.546 2.626-.347.659-.771 1.196-1.274 1.612a5.014 5.014 0 01-1.742.884v.052c.069.07.173.2.312.39.156.173.286.33.39.468l5.018 6.656h-2.574l-5.148-7.046h-2.964v7.046h-2.184V63.496zm8.502 5.408c0-.728-.095-1.317-.286-1.768-.173-.468-.442-.823-.806-1.066-.347-.243-.78-.407-1.3-.494-.52-.087-1.109-.13-1.768-.13h-2.158v6.786h2.574c.676 0 1.248-.087 1.716-.26.468-.173.849-.407 1.144-.702.295-.312.511-.667.65-1.066s.217-.832.234-1.3zm6.554-5.408h10.868v2.002h-8.684v5.668h8.06v1.95h-8.06v6.11h8.944v2.002h-11.128V63.496zM19 59.028h159.047v1.3H19v-1.3zm0 30h165.56v1.3H19v-1.3z" fill="#C63F3E"/><a><path fill="none" d="M0 -0.639H165.001V30.639H0z"/></a><a><path fill="none" d="M0 29.361H165.56V60.638999999999996H0z"/></a></svg>