<svg width="342" height="97" fill="none" xmlns="http://www.w3.org/2000/svg"><rect width="342" height="97" rx="28.5" fill="#EAC119"/><path d="M320.707 53.462a1 1 0 000-1.415l-6.364-6.364a1 1 0 10-1.414 1.414l5.657 5.657-5.657 5.657a1 1 0 101.414 1.414l6.364-6.364zM292 52.754v1h28v-2h-28v1zM21.288 33.496h4.082c2.253 0 3.917.399 4.992 1.196 1.092.797 1.638 2.14 1.638 4.03 0 1.04-.2 1.907-.598 2.6a5.268 5.268 0 01-1.508 1.69 6.13 6.13 0 01-1.924.91 7.968 7.968 0 01-1.924.26h-2.574v7.046h-2.184V33.496zm2.184 8.736h2.392a7.34 7.34 0 001.586-.156 3.447 3.447 0 001.248-.572c.347-.277.615-.641.806-1.092.19-.468.286-1.049.286-1.742 0-.693-.104-1.248-.312-1.664a2.05 2.05 0 00-.884-.988c-.381-.225-.867-.373-1.456-.442-.59-.087-1.274-.13-2.054-.13h-1.612v6.786zm11.467-1.976c0-.399-.043-1.023-.13-1.872l1.924-.26.208 1.898h.026c.312-.399.615-.745.91-1.04a6 6 0 01.91-.754c.33-.225.641-.338.936-.338.399-.017.953.026 1.664.13l-.468 2.002c-.572-.104-.97-.147-1.196-.13-.295 0-.607.139-.936.416a5.88 5.88 0 00-.858.884 11.38 11.38 0 00-.91 1.3v8.736h-2.08V40.256zm9.835 4.498c0 1.681.373 2.938 1.118 3.77.763.815 1.785 1.222 3.068 1.222 1.265 0 2.253-.407 2.964-1.222.71-.815 1.066-2.037 1.066-3.666 0-1.733-.381-3.025-1.144-3.874-.745-.85-1.768-1.274-3.068-1.274s-2.297.425-2.99 1.274c-.676.832-1.014 2.089-1.014 3.77zm-2.21-.026c0-1.317.208-2.41.624-3.276.416-.884.945-1.586 1.586-2.106.641-.537 1.326-.91 2.054-1.118.745-.225 1.447-.338 2.106-.338.624 0 1.3.104 2.028.312a5.19 5.19 0 012.054 1.066c.624.503 1.144 1.187 1.56 2.054.416.85.624 1.933.624 3.25 0 1.37-.217 2.505-.65 3.406-.416.901-.945 1.62-1.586 2.158a5.726 5.726 0 01-2.08 1.092c-.745.225-1.439.338-2.08.338a7.574 7.574 0 01-2.08-.312 5.715 5.715 0 01-2.028-1.066c-.607-.52-1.118-1.222-1.534-2.106-.399-.884-.598-2.002-.598-3.354zm17.738-6.864v13.13c0 1.56-.286 2.843-.858 3.848-.572 1.023-1.465 1.88-2.678 2.574L55.7 55.57c.52-.312.944-.659 1.274-1.04.329-.364.58-.763.754-1.196.19-.416.32-.85.39-1.3.069-.433.104-.875.104-1.326V38.176l2.08-.312zm-2.496-3.458c0-.399.13-.728.39-.988a1.38 1.38 0 011.014-.416c.416 0 .762.139 1.04.416.294.26.442.59.442.988 0 .399-.148.737-.442 1.014-.278.26-.624.39-1.04.39-.4 0-.737-.13-1.014-.39a1.428 1.428 0 01-.39-1.014zm15.902 16.51c-.399.121-.815.225-1.248.312-.416.087-.884.165-1.404.234a11.6 11.6 0 01-1.586.104 7.766 7.766 0 01-2.418-.364 4.977 4.977 0 01-1.95-1.17c-.555-.537-.997-1.23-1.326-2.08-.312-.867-.468-1.924-.468-3.172 0-1.127.156-2.115.468-2.964.312-.867.737-1.586 1.274-2.158a5.401 5.401 0 011.924-1.326 6.519 6.519 0 012.418-.442c.85 0 1.586.165 2.21.494.624.33 1.135.78 1.534 1.352.416.555.72 1.213.91 1.976.208.745.312 1.534.312 2.366l-.39 1.144H65.57c0 .537.07 1.075.208 1.612.139.537.373 1.023.702 1.456.347.433.789.789 1.326 1.066.555.26 1.24.39 2.054.39.52 0 .997-.026 1.43-.078.433-.07.806-.139 1.118-.208.33-.087.633-.182.91-.286l.39 1.742zM72.2 43.558c0-.121-.026-.39-.078-.806a4.91 4.91 0 00-.364-1.3c-.19-.45-.485-.85-.884-1.196-.399-.364-.927-.546-1.586-.546-.728 0-1.326.156-1.794.468-.468.295-.84.65-1.118 1.066-.277.416-.468.84-.572 1.274-.104.433-.156.78-.156 1.04H72.2zm8.03-9.308v3.9H84v1.69h-3.77v6.942c0 .572.01 1.049.026 1.43.035.381.096.685.182.91.087.225.208.39.364.494.156.087.356.13.598.13.66-.017 1.422-.26 2.288-.728l.624 1.586c-.572.381-1.109.633-1.612.754-.485.139-.97.208-1.456.208-1.144 0-1.95-.32-2.418-.962-.45-.659-.676-1.742-.676-3.25V39.84h-2.392v-1.69h2.392v-3.64l2.08-.26zm20.535 5.85c-.624-.173-1.11-.277-1.457-.312a7.178 7.178 0 00-1.066-.078c-.728 0-1.352.13-1.871.39a3.6 3.6 0 00-1.3 1.092 4.6 4.6 0 00-.728 1.586 7.395 7.395 0 00-.234 1.898c0 .607.06 1.213.181 1.82.14.607.347 1.153.624 1.638.278.485.616.875 1.014 1.17.4.295.876.442 1.43.442.382 0 .772-.07 1.17-.208a8.716 8.716 0 001.144-.468c.347-.19.711-.425 1.093-.702V40.1zm.026 10.088a9.491 9.491 0 01-1.17.702c-.364.173-.772.33-1.222.468a4.165 4.165 0 01-1.275.208c-1.629 0-2.911-.572-3.847-1.716-.92-1.161-1.379-2.851-1.379-5.07 0-1.317.209-2.418.624-3.302.434-.884.971-1.586 1.612-2.106a5.911 5.911 0 012.055-1.144c.745-.225 1.43-.338 2.054-.338.312 0 .64.026.988.078.346.035.858.139 1.534.312v-6.526l2.08-.234v18.122l.052.78.104.806-2.002.208-.208-1.248zm15.497.728c-.399.121-.815.225-1.248.312-.416.087-.884.165-1.404.234-.503.07-1.031.104-1.586.104a7.764 7.764 0 01-2.418-.364 4.983 4.983 0 01-1.95-1.17c-.555-.537-.997-1.23-1.326-2.08-.312-.867-.468-1.924-.468-3.172 0-1.127.156-2.115.468-2.964.312-.867.737-1.586 1.274-2.158a5.405 5.405 0 011.924-1.326 6.516 6.516 0 012.418-.442c.849 0 1.586.165 2.21.494.624.33 1.135.78 1.534 1.352.416.555.719 1.213.91 1.976.208.745.312 1.534.312 2.366l-.39 1.144h-8.398c0 .537.069 1.075.208 1.612.139.537.373 1.023.702 1.456.347.433.789.789 1.326 1.066.555.26 1.239.39 2.054.39.52 0 .997-.026 1.43-.078.433-.07.806-.139 1.118-.208.329-.087.633-.182.91-.286l.39 1.742zm-1.508-7.358c0-.121-.026-.39-.078-.806a4.896 4.896 0 00-.364-1.3 3.26 3.26 0 00-.884-1.196c-.399-.364-.927-.546-1.586-.546-.728 0-1.326.156-1.794.468-.468.295-.841.65-1.118 1.066a3.97 3.97 0 00-.572 1.274c-.104.433-.156.78-.156 1.04h6.552zm15.324-10.062V45.69c0 1.023-.095 1.898-.286 2.626a3.015 3.015 0 01-1.092 1.716c-.399.312-.919.615-1.56.91-.624.277-1.456.485-2.496.624l-.286-1.846c.815-.139 1.456-.312 1.924-.52.485-.225.841-.494 1.066-.806.243-.312.39-.693.442-1.144.069-.45.104-.98.104-1.586V33.496h2.184zm13.53 17.42c-.399.121-.815.225-1.248.312-.416.087-.884.165-1.404.234-.503.07-1.031.104-1.586.104a7.764 7.764 0 01-2.418-.364 4.983 4.983 0 01-1.95-1.17c-.555-.537-.997-1.23-1.326-2.08-.312-.867-.468-1.924-.468-3.172 0-1.127.156-2.115.468-2.964.312-.867.737-1.586 1.274-2.158a5.405 5.405 0 011.924-1.326 6.516 6.516 0 012.418-.442c.849 0 1.586.165 2.21.494.624.33 1.135.78 1.534 1.352.416.555.719 1.213.91 1.976.208.745.312 1.534.312 2.366l-.39 1.144h-8.398c0 .537.069 1.075.208 1.612.139.537.373 1.023.702 1.456.347.433.789.789 1.326 1.066.555.26 1.239.39 2.054.39.52 0 .997-.026 1.43-.078.433-.07.806-.139 1.118-.208.329-.087.633-.182.91-.286l.39 1.742zm-1.508-7.358c0-.121-.026-.39-.078-.806a4.896 4.896 0 00-.364-1.3 3.26 3.26 0 00-.884-1.196c-.399-.364-.927-.546-1.586-.546-.728 0-1.326.156-1.794.468-.468.295-.841.65-1.118 1.066a3.97 3.97 0 00-.572 1.274c-.104.433-.156.78-.156 1.04h6.552zm4.988-11.804l2.08-.234v8.268c.52-.347 1.032-.65 1.534-.91.52-.26 1.049-.485 1.586-.676a4.316 4.316 0 011.56-.312c.711 0 1.3.087 1.768.26a2.34 2.34 0 011.17.806c.295.381.503.884.624 1.508.139.624.208 1.404.208 2.34v8.424h-2.08v-8.19c0-.52-.008-.98-.026-1.378-.017-.416-.095-.763-.234-1.04a1.336 1.336 0 00-.598-.676c-.26-.156-.632-.234-1.118-.234-.45 0-.936.104-1.456.312-.52.19-1.014.416-1.482.676-.468.26-.953.563-1.456.91v9.62h-2.08V31.754zm21.474 13.468c-.347.017-.676.035-.988.052-.312.017-.624.043-.936.078a9.817 9.817 0 00-.806.078c-1.248.156-2.132.433-2.652.832-.52.381-.78.936-.78 1.664 0 .607.182 1.066.546 1.378.381.295.875.442 1.482.442.832 0 1.568-.139 2.21-.416.658-.295 1.3-.676 1.924-1.144v-2.964zm-.026 4.784a20.14 20.14 0 01-2.288 1.144 6.039 6.039 0 01-2.262.416c-1.162 0-2.089-.277-2.782-.832-.676-.572-1.014-1.508-1.014-2.808 0-.676.173-1.265.52-1.768a4.244 4.244 0 011.352-1.248 7.377 7.377 0 011.924-.806c.71-.19 1.438-.312 2.184-.364.312-.035.719-.06 1.222-.078.502-.035.892-.06 1.17-.078 0-.607-.018-1.144-.052-1.612-.035-.485-.139-.893-.312-1.222a1.707 1.707 0 00-.78-.78c-.33-.173-.806-.26-1.43-.26-.503 0-.988.035-1.456.104a16.45 16.45 0 00-1.248.182 15.21 15.21 0 00-1.196.286l-.416-1.794c.433-.104.901-.2 1.404-.286.433-.087.936-.156 1.508-.208.572-.07 1.187-.104 1.846-.104.884 0 1.594.13 2.132.39.554.26.979.615 1.274 1.066.312.433.52.936.624 1.508a8.28 8.28 0 01.182 1.768V49.642l.052.78.104.806-2.002.208-.26-1.43zm8.813-15.756v3.9h3.77v1.69h-3.77v6.942c0 .572.009 1.049.026 1.43.035.381.095.685.182.91.087.225.208.39.364.494.156.087.355.13.598.13.659-.017 1.421-.26 2.288-.728l.624 1.586c-.572.381-1.109.633-1.612.754a5.277 5.277 0 01-1.456.208c-1.144 0-1.95-.32-2.418-.962-.451-.659-.676-1.742-.676-3.25V39.84h-2.392v-1.69h2.392v-3.64l2.08-.26zm12.786-.754h4.732c1.872 0 3.224.347 4.056 1.04.849.693 1.274 1.75 1.274 3.172 0 .659-.095 1.23-.286 1.716a5.35 5.35 0 01-.598 1.222c-.26.381-.546.71-.858.988a5.73 5.73 0 011.17.598c.364.243.685.537.962.884.277.347.494.763.65 1.248.173.468.26 1.023.26 1.664 0 .71-.095 1.387-.286 2.028a4.024 4.024 0 01-.962 1.638c-.451.468-1.049.84-1.794 1.118-.745.277-1.673.416-2.782.416h-5.538V33.496zm2.184 7.696h4.342c.243-.19.459-.442.65-.754.173-.26.329-.58.468-.962.139-.399.208-.875.208-1.43 0-1.023-.269-1.707-.806-2.054-.52-.364-1.257-.546-2.21-.546h-2.652v5.746zm0 8.086h3.536c1.144 0 2.002-.295 2.574-.884.572-.59.858-1.378.858-2.366 0-.433-.061-.832-.182-1.196a2.025 2.025 0 00-.572-.936c-.277-.277-.65-.494-1.118-.65-.468-.156-1.049-.234-1.742-.234h-3.354v6.266zm17.061-15.782h2.704l6.084 17.732h-2.262l-1.56-4.732h-7.202l-1.586 4.732h-2.262l6.084-17.732zm4.264 10.92l-2.86-8.84h-.078l-2.886 8.84h5.824zm7.315-10.92h2.184v8.19l7.436-8.19h2.73l-6.812 7.436 7.852 10.296h-2.73l-6.63-8.684-1.846 2.028v6.656h-2.184V33.496zm15.489 0h2.184v17.732h-2.184V33.496zm6.753 0h4.368c.954 0 1.82.087 2.6.26.798.156 1.474.433 2.028.832.555.381.98.893 1.274 1.534.295.641.442 1.447.442 2.418-.017 1.075-.199 1.95-.546 2.626-.346.659-.771 1.196-1.274 1.612a5.003 5.003 0 01-1.742.884v.052c.07.07.174.2.312.39.156.173.286.33.39.468l5.018 6.656h-2.574l-5.148-7.046h-2.964v7.046h-2.184V33.496zm8.502 5.408c0-.728-.095-1.317-.286-1.768-.173-.468-.442-.823-.806-1.066-.346-.243-.78-.407-1.3-.494-.52-.087-1.109-.13-1.768-.13h-2.158v6.786h2.574c.676 0 1.248-.087 1.716-.26.468-.173.85-.407 1.144-.702.295-.312.512-.667.65-1.066.139-.399.217-.832.234-1.3zm10.845-5.408h2.704l6.084 17.732H269.1l-1.56-4.732h-7.202l-1.586 4.732h-2.262l6.084-17.732zm4.264 10.92l-2.86-8.84h-.078l-2.886 8.84h5.824zm9.941.364l-5.668-11.284h2.418l4.342 8.606 4.368-8.606h2.418l-5.668 11.284v6.448h-2.21V44.78zM19 59.028h265.969v1.3H19v-1.3z" fill="#C63F3E"/><a><path fill="none" d="M0 -0.639H265.969V30.639H0z"/></a></svg>