<svg width="342" height="97" fill="none" xmlns="http://www.w3.org/2000/svg"><rect width="342" height="97" rx="28.5" fill="#9ED6DF"/><path d="M320.707 53.462a1 1 0 000-1.415l-6.364-6.364a1 1 0 10-1.414 1.414l5.657 5.657-5.657 5.657a1 1 0 101.414 1.414l6.364-6.364zM292 52.754v1h28v-2h-28v1zM21.288 33.496h4.082c2.253 0 3.917.399 4.992 1.196 1.092.797 1.638 2.14 1.638 4.03 0 1.04-.2 1.907-.598 2.6a5.269 5.269 0 01-1.508 1.69c-.59.416-1.23.72-1.924.91a7.973 7.973 0 01-1.924.26h-2.574v7.046h-2.184V33.496zm2.184 8.736h2.392a7.34 7.34 0 001.586-.156 3.447 3.447 0 001.248-.572c.347-.277.615-.641.806-1.092.19-.468.286-1.049.286-1.742 0-.693-.104-1.248-.312-1.664a2.05 2.05 0 00-.884-.988c-.381-.225-.867-.373-1.456-.442-.59-.087-1.274-.13-2.054-.13h-1.612v6.786zm11.467-1.976c0-.399-.043-1.023-.13-1.872l1.924-.26.208 1.898h.026c.312-.399.615-.745.91-1.04.295-.295.598-.546.91-.754.33-.225.641-.338.936-.338.399-.017.953.026 1.664.13l-.468 2.002c-.572-.104-.97-.147-1.196-.13-.295 0-.607.139-.936.416-.33.277-.615.572-.858.884-.312.381-.615.815-.91 1.3v8.736h-2.08V40.256zm9.835 4.498c0 1.681.373 2.938 1.118 3.77.763.815 1.785 1.222 3.068 1.222 1.265 0 2.253-.407 2.964-1.222.71-.815 1.066-2.037 1.066-3.666 0-1.733-.381-3.025-1.144-3.874-.745-.85-1.768-1.274-3.068-1.274s-2.297.425-2.99 1.274c-.676.832-1.014 2.089-1.014 3.77zm-2.21-.026c0-1.317.208-2.41.624-3.276.416-.884.945-1.586 1.586-2.106.641-.537 1.326-.91 2.054-1.118.745-.225 1.447-.338 2.106-.338.624 0 1.3.104 2.028.312a5.19 5.19 0 012.054 1.066c.624.503 1.144 1.187 1.56 2.054.416.85.624 1.933.624 3.25 0 1.37-.217 2.505-.65 3.406-.416.901-.945 1.62-1.586 2.158a5.726 5.726 0 01-2.08 1.092c-.745.225-1.439.338-2.08.338a7.574 7.574 0 01-2.08-.312 5.715 5.715 0 01-2.028-1.066c-.607-.52-1.118-1.222-1.534-2.106-.399-.884-.598-2.002-.598-3.354zm17.738-6.864v13.13c0 1.56-.286 2.843-.858 3.848-.572 1.023-1.465 1.88-2.678 2.574L55.7 55.57c.52-.312.944-.659 1.274-1.04.329-.364.58-.763.754-1.196.19-.416.32-.85.39-1.3.069-.433.104-.875.104-1.326V38.176l2.08-.312zm-2.496-3.458c0-.399.13-.728.39-.988a1.38 1.38 0 011.014-.416c.416 0 .762.139 1.04.416.294.26.442.59.442.988 0 .399-.148.737-.442 1.014-.278.26-.624.39-1.04.39-.4 0-.737-.13-1.014-.39a1.428 1.428 0 01-.39-1.014zm15.902 16.51c-.399.121-.815.225-1.248.312-.416.087-.884.165-1.404.234-.503.07-1.031.104-1.586.104a7.766 7.766 0 01-2.418-.364 4.98 4.98 0 01-1.95-1.17c-.555-.537-.997-1.23-1.326-2.08-.312-.867-.468-1.924-.468-3.172 0-1.127.156-2.115.468-2.964.312-.867.737-1.586 1.274-2.158a5.401 5.401 0 011.924-1.326 6.517 6.517 0 012.418-.442c.85 0 1.586.165 2.21.494.624.33 1.135.78 1.534 1.352.416.555.72 1.213.91 1.976.208.745.312 1.534.312 2.366l-.39 1.144H65.57c0 .537.07 1.075.208 1.612.139.537.373 1.023.702 1.456.347.433.789.789 1.326 1.066.555.26 1.24.39 2.054.39.52 0 .997-.026 1.43-.078.433-.07.806-.139 1.118-.208.33-.087.633-.182.91-.286l.39 1.742zM72.2 43.558c0-.121-.026-.39-.078-.806a4.91 4.91 0 00-.364-1.3c-.19-.45-.485-.85-.884-1.196-.399-.364-.927-.546-1.586-.546-.728 0-1.326.156-1.794.468-.468.295-.84.65-1.118 1.066-.277.416-.468.84-.572 1.274-.104.433-.156.78-.156 1.04H72.2zm8.03-9.308v3.9H84v1.69h-3.77v6.942c0 .572.01 1.049.026 1.43.035.381.096.685.182.91.087.225.208.39.364.494.156.087.356.13.598.13.66-.017 1.422-.26 2.288-.728l.624 1.586c-.572.381-1.109.633-1.612.754-.485.139-.97.208-1.456.208-1.144 0-1.95-.32-2.418-.962-.45-.659-.676-1.742-.676-3.25V39.84h-2.392v-1.69h2.392v-3.64l2.08-.26zm20.535 5.85c-.624-.173-1.11-.277-1.457-.312a7.178 7.178 0 00-1.066-.078c-.728 0-1.352.13-1.871.39a3.6 3.6 0 00-1.3 1.092c-.33.45-.572.98-.728 1.586a7.395 7.395 0 00-.234 1.898c0 .607.06 1.213.181 1.82.14.607.347 1.153.624 1.638.278.485.616.875 1.014 1.17.4.295.876.442 1.43.442.382 0 .772-.07 1.17-.208a8.743 8.743 0 001.144-.468c.347-.19.711-.425 1.093-.702V40.1zm.026 10.088a9.516 9.516 0 01-1.17.702c-.364.173-.772.33-1.222.468a4.165 4.165 0 01-1.275.208c-1.629 0-2.911-.572-3.847-1.716-.92-1.161-1.379-2.851-1.379-5.07 0-1.317.209-2.418.624-3.302.434-.884.971-1.586 1.612-2.106a5.91 5.91 0 012.055-1.144c.745-.225 1.43-.338 2.054-.338.312 0 .64.026.988.078.346.035.858.139 1.534.312v-6.526l2.08-.234v18.122l.052.78.104.806-2.002.208-.208-1.248zm15.497.728c-.399.121-.815.225-1.248.312-.416.087-.884.165-1.404.234-.503.07-1.031.104-1.586.104a7.764 7.764 0 01-2.418-.364 4.986 4.986 0 01-1.95-1.17c-.555-.537-.997-1.23-1.326-2.08-.312-.867-.468-1.924-.468-3.172 0-1.127.156-2.115.468-2.964.312-.867.737-1.586 1.274-2.158a5.405 5.405 0 011.924-1.326 6.514 6.514 0 012.418-.442c.849 0 1.586.165 2.21.494.624.33 1.135.78 1.534 1.352.416.555.719 1.213.91 1.976.208.745.312 1.534.312 2.366l-.39 1.144h-8.398c0 .537.069 1.075.208 1.612.139.537.373 1.023.702 1.456.347.433.789.789 1.326 1.066.555.26 1.239.39 2.054.39.52 0 .997-.026 1.43-.078.433-.07.806-.139 1.118-.208.329-.087.633-.182.91-.286l.39 1.742zm-1.508-7.358c0-.121-.026-.39-.078-.806a4.896 4.896 0 00-.364-1.3 3.26 3.26 0 00-.884-1.196c-.399-.364-.927-.546-1.586-.546-.728 0-1.326.156-1.794.468-.468.295-.841.65-1.118 1.066a3.97 3.97 0 00-.572 1.274c-.104.433-.156.78-.156 1.04h6.552zm23.41-7.566c-.433-.139-.893-.26-1.378-.364a12.87 12.87 0 00-1.612-.286 12.152 12.152 0 00-1.82-.13c-1.04 0-1.924.225-2.652.676a5.738 5.738 0 00-1.794 1.742 7.434 7.434 0 00-.988 2.34 11 11 0 00-.312 2.574c0 1.075.147 2.054.442 2.938.312.867.728 1.612 1.248 2.236a5.746 5.746 0 001.846 1.404c.711.33 1.456.494 2.236.494.728 0 1.395-.035 2.002-.104a28.958 28.958 0 001.56-.26c.503-.104.953-.225 1.352-.364l.442 1.846c-.468.156-.988.295-1.56.416-.485.104-1.049.2-1.69.286a15.77 15.77 0 01-2.106.13c-1.369 0-2.574-.225-3.614-.676a7.205 7.205 0 01-2.574-1.872c-.676-.815-1.187-1.768-1.534-2.86-.347-1.11-.52-2.323-.52-3.64 0-1.508.208-2.834.624-3.978.416-1.161.988-2.132 1.716-2.912a7.084 7.084 0 012.6-1.768c1.005-.399 2.106-.598 3.302-.598.728 0 1.404.043 2.028.13.641.07 1.222.165 1.742.286.537.121 1.031.251 1.482.39l-.468 1.924zm3.313-4.238l2.08-.234v19.708h-2.08V31.754zm15.486 19.162c-.398.121-.814.225-1.248.312-.416.087-.884.165-1.404.234-.502.07-1.031.104-1.586.104a7.773 7.773 0 01-2.418-.364 4.986 4.986 0 01-1.95-1.17c-.554-.537-.996-1.23-1.326-2.08-.312-.867-.468-1.924-.468-3.172 0-1.127.156-2.115.468-2.964.312-.867.737-1.586 1.274-2.158a5.405 5.405 0 011.924-1.326 6.522 6.522 0 012.418-.442c.85 0 1.586.165 2.21.494.624.33 1.136.78 1.534 1.352.416.555.72 1.213.91 1.976.208.745.312 1.534.312 2.366l-.39 1.144h-8.398c0 .537.07 1.075.208 1.612.139.537.373 1.023.702 1.456.347.433.789.789 1.326 1.066.555.26 1.24.39 2.054.39.52 0 .997-.026 1.43-.078a19.2 19.2 0 001.118-.208c.33-.087.633-.182.91-.286l.39 1.742zm-1.508-7.358c0-.121-.026-.39-.078-.806a4.896 4.896 0 00-.364-1.3c-.19-.45-.485-.85-.884-1.196-.398-.364-.927-.546-1.586-.546-.728 0-1.326.156-1.794.468-.468.295-.84.65-1.118 1.066a3.97 3.97 0 00-.572 1.274c-.104.433-.156.78-.156 1.04h6.552zm-1.274-12.376l1.352 1.586-4.94 2.834-.884-1.17 4.472-3.25zm6.289 9.334c0-.59-.052-1.3-.156-2.132l1.95-.26.286 1.638c.468-.347.927-.65 1.378-.91.45-.26.936-.485 1.456-.676a4.571 4.571 0 011.586-.286c.866 0 1.551.156 2.054.468.502.295.875.806 1.118 1.534a22.27 22.27 0 012.21-1.378 5.076 5.076 0 012.418-.624c.641 0 1.187.087 1.638.26.45.156.814.425 1.092.806.277.381.476.884.598 1.508.121.624.182 1.404.182 2.34v8.424h-2.08v-8.19c0-.52-.009-.98-.026-1.378-.018-.416-.078-.763-.182-1.04a1.286 1.286 0 00-.52-.676c-.226-.156-.555-.234-.988-.234-.399 0-.78.06-1.144.182-.347.104-.711.26-1.092.468-.382.208-.971.633-1.768 1.274v9.594h-2.08v-8.19c0-.52-.009-.98-.026-1.378-.018-.416-.078-.763-.182-1.04a1.286 1.286 0 00-.52-.676c-.226-.156-.555-.234-.988-.234-.451 0-.919.095-1.404.286-.486.19-.945.416-1.378.676-.434.26-.884.563-1.352.91v9.646h-2.08V40.516zm31.152 10.4c-.399.121-.815.225-1.248.312-.416.087-.884.165-1.404.234-.503.07-1.032.104-1.586.104a7.764 7.764 0 01-2.418-.364 4.971 4.971 0 01-1.95-1.17c-.555-.537-.997-1.23-1.326-2.08-.312-.867-.468-1.924-.468-3.172 0-1.127.156-2.115.468-2.964.312-.867.736-1.586 1.274-2.158a5.396 5.396 0 011.924-1.326 6.514 6.514 0 012.418-.442c.849 0 1.586.165 2.21.494.624.33 1.135.78 1.534 1.352.416.555.719 1.213.91 1.976.208.745.312 1.534.312 2.366l-.39 1.144h-8.398c0 .537.069 1.075.208 1.612.138.537.372 1.023.702 1.456.346.433.788.789 1.326 1.066.554.26 1.239.39 2.054.39.52 0 .996-.026 1.43-.078.433-.07.806-.139 1.118-.208.329-.087.632-.182.91-.286l.39 1.742zm-1.508-7.358c0-.121-.026-.39-.078-.806a4.933 4.933 0 00-.364-1.3 3.271 3.271 0 00-.884-1.196c-.399-.364-.928-.546-1.586-.546-.728 0-1.326.156-1.794.468-.468.295-.841.65-1.118 1.066-.278.416-.468.84-.572 1.274-.104.433-.156.78-.156 1.04h6.552zm5.014-2.808c.017-.364-.026-1.153-.13-2.366l1.924-.26.286 1.664c.52-.347 1.031-.65 1.534-.91.52-.26 1.049-.485 1.586-.676a4.308 4.308 0 011.56-.312c.711 0 1.3.087 1.768.26.485.156.875.425 1.17.806.295.381.503.884.624 1.508.139.624.208 1.404.208 2.34v8.424h-2.08v-8.19c0-.52-.009-.98-.026-1.378-.017-.416-.095-.763-.234-1.04a1.34 1.34 0 00-.598-.676c-.26-.156-.633-.234-1.118-.234-.451 0-.927.104-1.43.312-.503.19-.997.416-1.482.676-.485.26-.979.563-1.482.91v9.62h-2.08V40.75zm17.235-6.5v3.9h3.77v1.69h-3.77v6.942c0 .572.008 1.049.026 1.43.034.381.095.685.182.91.086.225.208.39.364.494.156.087.355.13.598.13.658-.017 1.421-.26 2.288-.728l.624 1.586c-.572.381-1.11.633-1.612.754a5.282 5.282 0 01-1.456.208c-1.144 0-1.95-.32-2.418-.962-.451-.659-.676-1.742-.676-3.25V39.84h-2.392v-1.69h2.392v-3.64l2.08-.26zM21.288 63.496h4.732c1.872 0 3.224.347 4.056 1.04.85.693 1.274 1.75 1.274 3.172 0 .659-.095 1.23-.286 1.716a5.351 5.351 0 01-.598 1.222c-.26.381-.546.71-.858.988.416.156.806.355 1.17.598.364.243.685.537.962.884.277.347.494.763.65 1.248.173.468.26 1.023.26 1.664 0 .71-.095 1.387-.286 2.028a4.024 4.024 0 01-.962 1.638c-.45.468-1.049.84-1.794 1.118-.745.277-1.673.416-2.782.416h-5.538V63.496zm2.184 7.696h4.342c.243-.19.46-.442.65-.754.173-.26.33-.58.468-.962.139-.399.208-.875.208-1.43 0-1.023-.269-1.707-.806-2.054-.52-.364-1.257-.546-2.21-.546h-2.652v5.746zm0 8.086h3.536c1.144 0 2.002-.295 2.574-.884.572-.59.858-1.378.858-2.366 0-.433-.06-.832-.182-1.196a2.022 2.022 0 00-.572-.936c-.277-.277-.65-.494-1.118-.65-.468-.156-1.049-.234-1.742-.234h-3.354v6.266zm12.771-15.782h10.868v2.002h-8.684v5.668h8.06v1.95h-8.06v6.11h8.944v2.002H36.243V63.496zm14.676 0h4.368c.953 0 1.82.087 2.6.26.797.156 1.473.433 2.028.832.554.381.98.893 1.274 1.534.294.641.442 1.447.442 2.418-.017 1.075-.2 1.95-.546 2.626-.347.659-.772 1.196-1.274 1.612a5.015 5.015 0 01-1.742.884v.052c.07.07.173.2.312.39.156.173.286.33.39.468l5.018 6.656h-2.574l-5.148-7.046h-2.964v7.046h-2.184V63.496zm8.502 5.408c0-.728-.096-1.317-.286-1.768-.173-.468-.442-.823-.806-1.066-.347-.243-.78-.407-1.3-.494-.52-.087-1.11-.13-1.768-.13h-2.158v6.786h2.574c.676 0 1.248-.087 1.716-.26.468-.173.85-.407 1.144-.702.294-.312.511-.667.65-1.066s.217-.832.234-1.3zm9.917-3.38h-5.564v-2.028h13.312v2.028h-5.564v15.704h-2.184V65.524zm10.475-2.028h4.368c.954 0 1.82.087 2.6.26.798.156 1.474.433 2.028.832.555.381.98.893 1.274 1.534.295.641.442 1.447.442 2.418-.017 1.075-.199 1.95-.546 2.626-.346.659-.77 1.196-1.274 1.612a5.014 5.014 0 01-1.742.884v.052c.07.07.174.2.312.39.156.173.286.33.39.468l5.018 6.656H90.11l-5.148-7.046h-2.964v7.046h-2.184V63.496zm8.502 5.408c0-.728-.095-1.317-.286-1.768-.173-.468-.442-.823-.806-1.066-.346-.243-.78-.407-1.3-.494-.52-.087-1.109-.13-1.768-.13h-2.158v6.786h2.574c.676 0 1.248-.087 1.716-.26.468-.173.85-.407 1.144-.702.295-.312.512-.667.65-1.066.14-.399.217-.832.234-1.3zm10.845-5.408h2.704l6.084 17.732h-2.262l-1.56-4.732h-7.202l-1.586 4.732h-2.262l6.084-17.732zm4.264 10.92l-2.86-8.84h-.078l-2.886 8.84h5.824zm7.315-10.92h2.08l9.308 14.066h.052c-.034-.503-.06-1.04-.078-1.612-.034-.485-.06-1.04-.078-1.664v-10.79h2.08v17.732h-2.08l-9.308-14.118h-.052c.018.52.044 1.066.078 1.638.018.503.035 1.066.052 1.69.018.624.026 1.265.026 1.924v8.866h-2.08V63.496zm20.135 15.73h3.51a9.52 9.52 0 002.678-.364 5.76 5.76 0 002.21-1.17c.642-.555 1.144-1.274 1.508-2.158.364-.884.546-1.959.546-3.224 0-1.179-.164-2.193-.494-3.042-.329-.867-.797-1.577-1.404-2.132-.589-.555-1.317-.962-2.184-1.222-.849-.277-1.802-.416-2.86-.416h-3.51v13.728zm-2.184-15.73h5.694c1.404 0 2.67.173 3.796.52 1.144.347 2.124.884 2.938 1.612.815.728 1.439 1.647 1.872 2.756.451 1.11.676 2.418.676 3.926 0 1.525-.242 2.851-.728 3.978-.485 1.11-1.144 2.037-1.976 2.782-.832.728-1.811 1.274-2.938 1.638-1.126.347-2.34.52-3.64.52h-5.694V63.496zM19 59.028h197.945v1.3H19v-1.3zm0 30h125.992v1.3H19v-1.3z" fill="#C63F3E"/><a><path fill="none" d="M0 -0.639H203.899V30.639H0z"/></a><a><path fill="none" d="M0 29.361H125.992V60.638999999999996H0z"/></a></svg>