<svg width="342" height="97" fill="none" xmlns="http://www.w3.org/2000/svg"><rect width="342" height="97" rx="28.5" fill="#9ED6DF"/><path d="M320.707 53.462a1 1 0 000-1.415l-6.364-6.364a1 1 0 10-1.414 1.414l5.657 5.657-5.657 5.657a1 1 0 101.414 1.414l6.364-6.364zM292 52.754v1h28v-2h-28v1zM21.288 33.496h4.082c2.253 0 3.917.399 4.992 1.196 1.092.797 1.638 2.14 1.638 4.03 0 1.04-.2 1.907-.598 2.6a5.27 5.27 0 01-1.508 1.69c-.59.416-1.23.72-1.924.91a7.973 7.973 0 01-1.924.26h-2.574v7.046h-2.184V33.496zm2.184 8.736h2.392a7.34 7.34 0 001.586-.156 3.449 3.449 0 001.248-.572 2.73 2.73 0 00.806-1.092c.19-.468.286-1.049.286-1.742 0-.693-.104-1.248-.312-1.664a2.05 2.05 0 00-.884-.988c-.381-.225-.867-.373-1.456-.442-.59-.087-1.274-.13-2.054-.13h-1.612v6.786zm11.467-1.976c0-.399-.043-1.023-.13-1.872l1.924-.26.208 1.898h.026c.312-.399.615-.745.91-1.04.295-.295.598-.546.91-.754.33-.225.641-.338.936-.338.399-.017.953.026 1.664.13l-.468 2.002c-.572-.104-.97-.147-1.196-.13-.295 0-.607.139-.936.416-.33.277-.615.572-.858.884-.312.381-.615.815-.91 1.3v8.736h-2.08V40.256zm9.835 4.498c0 1.681.373 2.938 1.118 3.77.763.815 1.785 1.222 3.068 1.222 1.265 0 2.253-.407 2.964-1.222.71-.815 1.066-2.037 1.066-3.666 0-1.733-.381-3.025-1.144-3.874-.745-.85-1.768-1.274-3.068-1.274s-2.297.425-2.99 1.274c-.676.832-1.014 2.089-1.014 3.77zm-2.21-.026c0-1.317.208-2.41.624-3.276.416-.884.945-1.586 1.586-2.106.641-.537 1.326-.91 2.054-1.118.745-.225 1.447-.338 2.106-.338.624 0 1.3.104 2.028.312a5.19 5.19 0 012.054 1.066c.624.503 1.144 1.187 1.56 2.054.416.85.624 1.933.624 3.25 0 1.37-.217 2.505-.65 3.406-.416.901-.945 1.62-1.586 2.158a5.726 5.726 0 01-2.08 1.092c-.745.225-1.439.338-2.08.338a7.574 7.574 0 01-2.08-.312 5.716 5.716 0 01-2.028-1.066c-.607-.52-1.118-1.222-1.534-2.106-.399-.884-.598-2.002-.598-3.354zm17.738-6.864v13.13c0 1.56-.286 2.843-.858 3.848-.572 1.023-1.465 1.88-2.678 2.574L55.7 55.57c.52-.312.944-.659 1.274-1.04.329-.364.58-.763.754-1.196.19-.416.32-.85.39-1.3.069-.433.104-.875.104-1.326V38.176l2.08-.312zm-2.496-3.458c0-.399.13-.728.39-.988a1.38 1.38 0 011.014-.416c.416 0 .762.139 1.04.416.294.26.442.59.442.988 0 .399-.148.737-.442 1.014-.278.26-.624.39-1.04.39-.4 0-.737-.13-1.014-.39a1.428 1.428 0 01-.39-1.014zm15.902 16.51c-.399.121-.815.225-1.248.312-.416.087-.884.165-1.404.234-.503.07-1.031.104-1.586.104a7.77 7.77 0 01-2.418-.364 4.98 4.98 0 01-1.95-1.17c-.555-.537-.997-1.23-1.326-2.08-.312-.867-.468-1.924-.468-3.172 0-1.127.156-2.115.468-2.964.312-.867.737-1.586 1.274-2.158a5.399 5.399 0 011.924-1.326 6.517 6.517 0 012.418-.442c.85 0 1.586.165 2.21.494.624.33 1.135.78 1.534 1.352.416.555.72 1.213.91 1.976.208.745.312 1.534.312 2.366l-.39 1.144H65.57c0 .537.07 1.075.208 1.612.139.537.373 1.023.702 1.456.347.433.789.789 1.326 1.066.555.26 1.24.39 2.054.39.52 0 .997-.026 1.43-.078.433-.07.806-.139 1.118-.208.33-.087.633-.182.91-.286l.39 1.742zM72.2 43.558c0-.121-.026-.39-.078-.806a4.91 4.91 0 00-.364-1.3 3.26 3.26 0 00-.884-1.196c-.399-.364-.927-.546-1.586-.546-.728 0-1.326.156-1.794.468-.468.295-.84.65-1.118 1.066a3.96 3.96 0 00-.572 1.274c-.104.433-.156.78-.156 1.04H72.2zm8.03-9.308v3.9H84v1.69h-3.77v6.942c0 .572.01 1.049.026 1.43.035.381.096.685.182.91.087.225.208.39.364.494.156.087.356.13.598.13.66-.017 1.422-.26 2.288-.728l.624 1.586c-.572.381-1.109.633-1.612.754a5.28 5.28 0 01-1.456.208c-1.144 0-1.95-.32-2.418-.962-.45-.659-.676-1.742-.676-3.25V39.84h-2.392v-1.69h2.392v-3.64l2.08-.26zm20.535 5.85c-.624-.173-1.11-.277-1.457-.312a7.178 7.178 0 00-1.066-.078c-.728 0-1.352.13-1.871.39a3.6 3.6 0 00-1.3 1.092c-.33.45-.572.98-.728 1.586a7.395 7.395 0 00-.234 1.898c0 .607.06 1.213.181 1.82a5.96 5.96 0 00.624 1.638c.278.485.616.875 1.014 1.17.4.295.876.442 1.43.442.382 0 .772-.07 1.17-.208a8.743 8.743 0 001.144-.468c.347-.19.711-.425 1.093-.702V40.1zm.026 10.088a9.516 9.516 0 01-1.17.702c-.364.173-.772.33-1.222.468a4.168 4.168 0 01-1.275.208c-1.629 0-2.911-.572-3.847-1.716-.92-1.161-1.379-2.851-1.379-5.07 0-1.317.209-2.418.624-3.302.434-.884.971-1.586 1.612-2.106a5.908 5.908 0 012.055-1.144c.745-.225 1.43-.338 2.054-.338.312 0 .64.026.988.078.346.035.858.139 1.534.312v-6.526l2.08-.234v18.122l.052.78.104.806-2.002.208-.208-1.248zm15.497.728c-.399.121-.815.225-1.248.312-.416.087-.884.165-1.404.234-.503.07-1.031.104-1.586.104a7.767 7.767 0 01-2.418-.364 4.986 4.986 0 01-1.95-1.17c-.555-.537-.997-1.23-1.326-2.08-.312-.867-.468-1.924-.468-3.172 0-1.127.156-2.115.468-2.964.312-.867.737-1.586 1.274-2.158a5.402 5.402 0 011.924-1.326 6.514 6.514 0 012.418-.442c.849 0 1.586.165 2.21.494.624.33 1.135.78 1.534 1.352.416.555.719 1.213.91 1.976.208.745.312 1.534.312 2.366l-.39 1.144h-8.398c0 .537.069 1.075.208 1.612.139.537.373 1.023.702 1.456.347.433.789.789 1.326 1.066.555.26 1.239.39 2.054.39.52 0 .997-.026 1.43-.078.433-.07.806-.139 1.118-.208.329-.087.633-.182.91-.286l.39 1.742zm-1.508-7.358c0-.121-.026-.39-.078-.806a4.894 4.894 0 00-.364-1.3 3.26 3.26 0 00-.884-1.196c-.399-.364-.927-.546-1.586-.546-.728 0-1.326.156-1.794.468a3.66 3.66 0 00-1.118 1.066c-.277.416-.468.84-.572 1.274-.104.433-.156.78-.156 1.04h6.552zm11.346-10.062h2.184v15.652h8.06v2.08h-10.244V33.496zm22.078 17.42c-.399.121-.815.225-1.248.312-.416.087-.884.165-1.404.234-.503.07-1.031.104-1.586.104a7.767 7.767 0 01-2.418-.364 4.986 4.986 0 01-1.95-1.17c-.555-.537-.997-1.23-1.326-2.08-.312-.867-.468-1.924-.468-3.172 0-1.127.156-2.115.468-2.964.312-.867.737-1.586 1.274-2.158a5.402 5.402 0 011.924-1.326 6.514 6.514 0 012.418-.442c.849 0 1.586.165 2.21.494.624.33 1.135.78 1.534 1.352.416.555.719 1.213.91 1.976.208.745.312 1.534.312 2.366l-.39 1.144h-8.398c0 .537.069 1.075.208 1.612.139.537.373 1.023.702 1.456.347.433.789.789 1.326 1.066.555.26 1.239.39 2.054.39.52 0 .997-.026 1.43-.078.433-.07.806-.139 1.118-.208.329-.087.633-.182.91-.286l.39 1.742zm-1.508-7.358c0-.121-.026-.39-.078-.806a4.894 4.894 0 00-.364-1.3 3.26 3.26 0 00-.884-1.196c-.399-.364-.927-.546-1.586-.546-.728 0-1.326.156-1.794.468a3.66 3.66 0 00-1.118 1.066c-.277.416-.468.84-.572 1.274-.104.433-.156.78-.156 1.04h6.552zm-1.274-12.376l1.352 1.586-4.94 2.834-.884-1.17 4.472-3.25zm7.745 13.572c0 1.681.372 2.938 1.118 3.77.762.815 1.785 1.222 3.068 1.222 1.265 0 2.253-.407 2.964-1.222.71-.815 1.066-2.037 1.066-3.666 0-1.733-.382-3.025-1.144-3.874-.746-.85-1.768-1.274-3.068-1.274s-2.297.425-2.99 1.274c-.676.832-1.014 2.089-1.014 3.77zm-2.21-.026c0-1.317.208-2.41.624-3.276.416-.884.944-1.586 1.586-2.106.641-.537 1.326-.91 2.054-1.118.745-.225 1.447-.338 2.106-.338.624 0 1.3.104 2.028.312.745.19 1.43.546 2.054 1.066.624.503 1.144 1.187 1.56 2.054.416.85.624 1.933.624 3.25 0 1.37-.217 2.505-.651 3.406-.415.901-.944 1.62-1.585 2.158a5.735 5.735 0 01-2.08 1.092c-.746.225-1.439.338-2.08.338a7.571 7.571 0 01-2.08-.312 5.716 5.716 0 01-2.028-1.066c-.607-.52-1.118-1.222-1.534-2.106-.399-.884-.598-2.002-.598-3.354zm15.683-3.978c.018-.364-.026-1.153-.13-2.366l1.924-.26.286 1.664a16.22 16.22 0 011.534-.91c.52-.26 1.049-.485 1.586-.676a4.316 4.316 0 011.56-.312c.711 0 1.3.087 1.768.26a2.34 2.34 0 011.17.806c.295.381.503.884.624 1.508.139.624.208 1.404.208 2.34v8.424h-2.08v-8.19c0-.52-.008-.98-.026-1.378-.017-.416-.095-.763-.234-1.04a1.335 1.335 0 00-.598-.676c-.26-.156-.632-.234-1.118-.234-.45 0-.927.104-1.43.312-.502.19-.996.416-1.482.676-.485.26-.979.563-1.482.91v9.62h-2.08V40.75zm14.193-2.626l2.08-.234v13.338h-2.08V38.124zm-.338-3.718c0-.399.13-.728.39-.988a1.379 1.379 0 011.014-.416c.416 0 .763.139 1.04.416.295.26.442.59.442.988 0 .399-.147.737-.442 1.014-.277.26-.624.39-1.04.39-.399 0-.737-.13-1.014-.39a1.428 1.428 0 01-.39-1.014zm15.824 16.51c-.398.121-.814.225-1.248.312-.416.087-.884.165-1.404.234-.502.07-1.031.104-1.586.104a7.776 7.776 0 01-2.418-.364 4.986 4.986 0 01-1.95-1.17c-.554-.537-.996-1.23-1.326-2.08-.312-.867-.468-1.924-.468-3.172 0-1.127.156-2.115.468-2.964.312-.867.737-1.586 1.274-2.158a5.402 5.402 0 011.924-1.326 6.522 6.522 0 012.418-.442c.85 0 1.586.165 2.21.494.624.33 1.136.78 1.534 1.352.416.555.72 1.213.91 1.976.208.745.312 1.534.312 2.366l-.39 1.144h-8.398c0 .537.07 1.075.208 1.612.139.537.373 1.023.702 1.456.347.433.789.789 1.326 1.066.555.26 1.24.39 2.054.39.52 0 .997-.026 1.43-.078.434-.07.806-.139 1.118-.208.33-.087.633-.182.91-.286l.39 1.742zm-1.508-7.358c0-.121-.026-.39-.078-.806a4.894 4.894 0 00-.364-1.3c-.19-.45-.485-.85-.884-1.196-.398-.364-.927-.546-1.586-.546-.728 0-1.326.156-1.794.468-.468.295-.84.65-1.118 1.066-.277.416-.468.84-.572 1.274-.104.433-.156.78-.156 1.04h6.552zM21.288 63.496h4.082c2.253 0 3.917.399 4.992 1.196 1.092.797 1.638 2.14 1.638 4.03 0 1.04-.2 1.907-.598 2.6a5.27 5.27 0 01-1.508 1.69c-.59.416-1.23.72-1.924.91a7.973 7.973 0 01-1.924.26h-2.574v7.046h-2.184V63.496zm2.184 8.736h2.392a7.34 7.34 0 001.586-.156 3.449 3.449 0 001.248-.572 2.73 2.73 0 00.806-1.092c.19-.468.286-1.049.286-1.742 0-.693-.104-1.248-.312-1.664a2.05 2.05 0 00-.884-.988c-.381-.225-.867-.373-1.456-.442-.59-.087-1.274-.13-2.054-.13h-1.612v6.786zm11.857-8.736h4.368c.953 0 1.82.087 2.6.26.797.156 1.473.433 2.028.832.555.381.98.893 1.274 1.534.295.641.442 1.447.442 2.418-.017 1.075-.2 1.95-.546 2.626-.347.659-.771 1.196-1.274 1.612a5.016 5.016 0 01-1.742.884v.052c.07.07.173.2.312.39.156.173.286.33.39.468l5.018 6.656h-2.574l-5.148-7.046h-2.964v7.046h-2.184V63.496zm8.502 5.408c0-.728-.095-1.317-.286-1.768-.173-.468-.442-.823-.806-1.066-.347-.243-.78-.407-1.3-.494-.52-.087-1.11-.13-1.768-.13h-2.158v6.786h2.574c.676 0 1.248-.087 1.716-.26.468-.173.85-.407 1.144-.702.295-.312.511-.667.65-1.066s.217-.832.234-1.3zm8.482-5.408v11.076c0 .988.138 1.803.416 2.444.294.624.676 1.118 1.144 1.482a4.07 4.07 0 001.586.754 8.262 8.262 0 001.846.208c.624 0 1.23-.07 1.82-.208a4.07 4.07 0 001.586-.754c.468-.364.84-.858 1.118-1.482.277-.641.416-1.456.416-2.444V63.496h2.184v11.622c0 .901-.174 1.742-.52 2.522a6.018 6.018 0 01-1.43 2.054c-.624.572-1.378 1.023-2.262 1.352-.884.33-1.864.494-2.938.494-2.306 0-4.074-.555-5.304-1.664-1.231-1.127-1.846-2.713-1.846-4.758V63.496h2.184zm16.557 0h2.08l9.308 14.066h.052c-.035-.503-.06-1.04-.078-1.612-.035-.485-.06-1.04-.078-1.664v-10.79h2.08v17.732h-2.08L70.846 67.11h-.052c.017.52.043 1.066.078 1.638.017.503.035 1.066.052 1.69.017.624.026 1.265.026 1.924v8.866h-2.08V63.496zm17.951 0h2.184v17.732h-2.184V63.496zm11.044 0h2.704l6.084 17.732h-2.262l-1.56-4.732h-7.202l-1.586 4.732h-2.262l6.084-17.732zm4.264 10.92l-2.86-8.84h-.078l-2.886 8.84h5.824zm9.065-10.92v11.076c0 .988.138 1.803.416 2.444.294.624.676 1.118 1.144 1.482.468.364.996.615 1.586.754a8.258 8.258 0 001.846.208c.624 0 1.23-.07 1.82-.208a4.072 4.072 0 001.586-.754c.468-.364.84-.858 1.118-1.482.277-.641.416-1.456.416-2.444V63.496h2.184v11.622a6.15 6.15 0 01-.52 2.522 6.028 6.028 0 01-1.43 2.054c-.624.572-1.378 1.023-2.262 1.352-.884.33-1.864.494-2.938.494-2.306 0-4.074-.555-5.304-1.664-1.231-1.127-1.846-2.713-1.846-4.758V63.496h2.184zm19.911 8.71l-5.122-8.71h2.47l4.186 7.202 4.16-7.202h2.47l-5.252 8.918 5.278 8.814h-2.522l-4.264-7.41-4.056 7.41h-2.47l5.122-9.022zM19 59.028h178.928v1.3H19v-1.3zm0 30h120.789v1.3H19v-1.3z" fill="#C63F3E"/><a><path fill="none" d="M0 -0.639H184.882V30.639H0z"/></a><a><path fill="none" d="M0 29.361H120.789V60.638999999999996H0z"/></a></svg>